<svg version="1.1" id="Layer_1" xmlns="http://www.w3.org/2000/svg" xmlns:xlink="http://www.w3.org/1999/xlink" x="0px" y="0px"
	 width="24" viewBox="0 0 500 500" enable-background="new 0 0 500 500" xml:space="preserve">
<path fill="currentColor" opacity="1.000000" stroke="none" 
	d="
M345.000000,501.000000 
	C230.000031,501.000000 115.500053,501.000000 1.000062,501.000000 
	C1.000041,334.333405 1.000041,167.666794 1.000021,1.000151 
	C167.666550,1.000101 334.333099,1.000101 500.999756,1.000050 
	C500.999817,167.666519 500.999817,334.333038 500.999908,500.999786 
	C449.166656,501.000000 397.333344,501.000000 345.000000,501.000000 
M246.500000,97.977219 
	C187.517715,97.977287 128.535400,97.957588 69.553139,97.989166 
	C51.300499,97.998932 36.175793,112.381355 36.070774,130.482651 
	C35.842644,169.803024 35.888439,209.126129 36.056469,248.447113 
	C36.121471,263.658478 47.285557,276.880920 62.142418,280.028015 
	C65.035011,280.640717 68.044968,280.937958 71.003761,280.958832 
	C84.594124,281.054810 98.185547,281.001068 111.977219,281.001068 
	C111.977219,290.258575 112.396332,298.928223 111.880806,307.541931 
	C111.069771,321.093170 121.838226,336.997528 137.394409,339.930786 
	C142.883606,340.965820 148.616272,340.913849 154.242111,340.978333 
	C166.679535,341.121033 179.119720,341.022736 191.977478,341.022736 
	C191.977478,351.551758 191.901642,361.511810 191.999557,371.470215 
	C192.091125,380.780060 196.061111,388.433472 202.770142,394.643677 
	C209.981583,401.319061 218.763565,403.389954 228.431015,403.375275 
	C294.911224,403.274506 361.395142,402.931885 427.870087,403.531403 
	C451.553070,403.744995 465.781586,385.875122 465.273376,365.968903 
	C464.325348,328.837433 465.004395,291.664490 464.999786,254.508804 
	C464.997345,234.898361 450.395538,220.202057 430.871552,220.174362 
	C416.875732,220.154510 402.879822,220.178680 388.884003,220.156250 
	C387.635315,220.154251 386.386932,219.953262 385.001068,219.832748 
	C385.001068,209.985397 385.178741,200.497742 384.954742,191.019592 
	C384.692108,179.904877 380.053864,170.875137 371.019531,164.276520 
	C365.078918,159.937576 358.381561,157.935547 350.999420,157.976807 
	C337.231293,158.053757 323.462402,157.998901 309.042694,157.998901 
	C309.042694,147.828156 309.409912,138.185516 308.961334,128.580963 
	C308.181702,111.886795 293.602295,98.145470 276.991089,98.003609 
	C267.161346,97.919647 257.330414,97.981133 246.500000,97.977219 
z"/>
<path fill="currentColor" opacity="1.000000" stroke="none" 
	d="
M247.000000,97.977219 
	C257.330414,97.981133 267.161346,97.919647 276.991089,98.003609 
	C293.602295,98.145470 308.181702,111.886795 308.961334,128.580963 
	C309.409912,138.185516 309.042694,147.828156 309.042694,157.998901 
	C323.462402,157.998901 337.231293,158.053757 350.999420,157.976807 
	C358.381561,157.935547 365.078918,159.937576 371.019531,164.276520 
	C380.053864,170.875137 384.692108,179.904877 384.954742,191.019592 
	C385.178741,200.497742 385.001068,209.985397 385.001068,219.832748 
	C386.386932,219.953262 387.635315,220.154251 388.884003,220.156250 
	C402.879822,220.178680 416.875732,220.154510 430.871552,220.174362 
	C450.395538,220.202057 464.997345,234.898361 464.999786,254.508804 
	C465.004395,291.664490 464.325348,328.837433 465.273376,365.968903 
	C465.781586,385.875122 451.553070,403.744995 427.870087,403.531403 
	C361.395142,402.931885 294.911224,403.274506 228.431015,403.375275 
	C218.763565,403.389954 209.981583,401.319061 202.770142,394.643677 
	C196.061111,388.433472 192.091125,380.780060 191.999557,371.470215 
	C191.901642,361.511810 191.977478,351.551758 191.977478,341.022736 
	C179.119720,341.022736 166.679535,341.121033 154.242111,340.978333 
	C148.616272,340.913849 142.883606,340.965820 137.394409,339.930786 
	C121.838226,336.997528 111.069771,321.093170 111.880806,307.541931 
	C112.396332,298.928223 111.977219,290.258575 111.977219,281.001068 
	C98.185547,281.001068 84.594124,281.054810 71.003761,280.958832 
	C68.044968,280.937958 65.035011,280.640717 62.142418,280.028015 
	C47.285557,276.880920 36.121471,263.658478 36.056469,248.447113 
	C35.888439,209.126129 35.842644,169.803024 36.070774,130.482651 
	C36.175793,112.381355 51.300499,97.998932 69.553139,97.989166 
	C128.535400,97.957588 187.517715,97.977287 247.000000,97.977219 
M361.500000,384.999603 
	C384.651001,384.999603 407.802032,385.012634 430.953033,384.993073 
	C439.956696,384.985474 446.892731,378.570770 446.922516,369.562317 
	C447.049805,331.088806 447.056732,292.614319 446.921661,254.140839 
	C446.887909,244.534256 439.919830,238.406967 429.574219,238.342010 
	C416.083862,238.257324 402.592621,238.313721 389.101776,238.333420 
	C387.818878,238.335297 386.536285,238.507492 385.000397,238.618988 
	C385.000397,261.208466 385.001404,283.509552 385.000122,305.810638 
	C384.998932,326.835571 370.826660,341.007263 349.720642,341.016205 
	C304.917633,341.035187 260.114655,341.022064 215.311646,341.022064 
	C213.567429,341.022064 211.823196,341.022034 210.000427,341.022034 
	C210.000427,350.578003 209.990051,359.403809 210.003113,368.229523 
	C210.018631,378.724152 216.220276,384.996338 226.590668,384.997467 
	C271.227112,385.002411 315.863556,384.999603 361.500000,384.999603 
M142.572098,234.848358 
	C151.470963,242.817017 160.740677,239.705170 163.888824,227.307129 
	C170.306870,202.031448 176.455276,176.686996 182.640747,151.352798 
	C184.102783,145.364670 181.363815,140.240799 176.352859,139.020172 
	C170.713974,137.646591 166.701767,139.977127 164.986496,146.396347 
	C162.729858,154.841553 160.933884,163.410889 158.988770,171.938019 
	C156.275711,183.831757 153.607895,195.735809 150.639984,208.878662 
	C147.859665,198.538101 145.460205,189.479111 142.984451,180.441040 
	C140.022522,169.628174 137.137115,158.791061 133.944031,148.046036 
	C131.990860,141.473404 128.280365,138.860153 122.056015,138.824570 
	C115.731094,138.788406 112.224052,141.301743 109.867897,147.637863 
	C109.179604,149.488800 108.534561,151.364685 108.018646,153.269485 
	C103.174614,171.153870 98.362923,189.047028 93.341255,207.682159 
	C92.698914,206.466888 92.280884,205.961380 92.152664,205.390747 
	C90.088814,196.205582 88.128784,186.996658 86.009224,177.824539 
	C83.482994,166.892654 80.864983,155.981476 78.206558,145.080872 
	C77.300560,141.365906 75.147682,139.016464 70.974854,138.826035 
	C63.475487,138.483810 59.202549,143.429428 61.172878,151.694427 
	C67.336311,177.548340 73.792435,203.334763 80.411995,229.076157 
	C82.208794,236.063354 86.481270,239.094421 92.342461,238.981491 
	C97.821770,238.875900 101.999084,235.579010 103.886276,229.081558 
	C107.426826,216.891785 110.663521,204.613846 114.039818,192.376221 
	C116.526199,183.364166 119.033615,174.357895 121.531662,165.349045 
	C125.952789,178.470139 129.348114,191.529663 133.037781,204.505463 
	C135.871918,214.472504 139.076920,224.334106 142.572098,234.848358 
M356.224335,176.996780 
	C354.729797,178.003357 352.780365,178.688965 351.809509,180.065018 
	C338.815063,198.483124 325.999023,217.026962 313.028961,235.462448 
	C310.567108,238.961716 309.157867,242.429321 309.208618,246.894653 
	C309.366058,260.744476 303.331848,272.050690 290.634033,277.088776 
	C282.238586,280.419830 277.792572,286.101196 273.298798,292.724579 
	C271.344940,295.604431 269.275635,298.405762 267.300446,301.271423 
	C262.466736,308.284363 257.657257,315.313995 252.397095,322.979431 
	C267.804352,322.979431 282.254425,322.882599 296.701294,323.054901 
	C299.882202,323.092804 301.729004,322.140259 303.571869,319.474762 
	C323.742065,290.301117 344.118500,261.270081 364.270538,232.084030 
	C365.824615,229.833282 366.775818,226.724426 366.859375,223.979446 
	C367.163452,213.994034 366.967407,203.993759 366.983337,193.999100 
	C366.995453,186.388107 364.223053,180.461166 356.224335,176.996780 
M271.851501,167.994217 
	C273.523956,154.759247 264.299866,142.282303 250.450928,141.207672 
	C235.892807,140.078018 221.209167,140.329926 206.582932,140.414978 
	C199.398270,140.456741 196.035721,144.308716 196.018845,151.447739 
	C195.960220,176.247101 195.964050,201.046783 196.015640,225.846191 
	C196.031494,233.465347 199.278717,236.947586 206.812439,237.053040 
	C218.291367,237.213730 229.781464,237.273849 241.253555,236.931671 
	C247.003143,236.760193 252.925079,236.309814 258.412170,234.738968 
	C267.898651,232.023102 273.882721,225.171402 275.855835,215.549545 
	C277.803375,206.052277 275.888733,197.346161 267.640747,191.168610 
	C264.788605,189.032455 261.453644,187.540909 258.140656,185.641022 
	C265.061951,181.837952 270.248840,176.825333 271.851501,167.994217 
M198.500000,322.979156 
	C204.156708,322.979156 209.891037,322.385925 215.452576,323.113434 
	C224.574585,324.306702 230.235077,321.129059 234.953079,313.041077 
	C241.320175,302.126068 249.221420,292.105957 256.950745,281.003174 
	C237.848831,281.003174 219.616470,280.946838 201.386505,281.128967 
	C200.162186,281.141174 198.668869,282.748749 197.789902,283.967194 
	C193.532166,289.869415 189.438431,295.890015 185.292648,301.872864 
	C180.539154,308.732635 175.792053,315.596832 170.682220,322.979156 
	C180.233124,322.979156 188.866562,322.979156 198.500000,322.979156 
M166.339279,293.850250 
	C169.188904,289.707214 172.038528,285.564178 174.999039,281.259949 
	C159.725143,281.259949 145.002106,281.259949 129.999252,281.259949 
	C129.999252,290.138458 129.966873,298.759216 130.009338,307.379639 
	C130.044220,314.459869 134.321701,319.748413 140.982864,322.193268 
	C144.753876,323.577332 146.660873,322.454987 148.712860,319.372925 
	C154.308716,310.967896 160.201508,302.760590 166.339279,293.850250 
M351.943390,285.427216 
	C343.331421,297.706268 334.719452,309.985352 326.020844,322.387939 
	C326.867859,322.736542 327.140747,322.946350 327.414368,322.947266 
	C334.739471,322.971710 342.064636,322.989532 349.389771,322.977875 
	C360.409363,322.960358 366.921478,316.442688 366.969269,305.278748 
	C367.022034,292.959076 366.990448,280.638916 366.964233,268.319061 
	C366.962097,267.322357 366.717438,266.326141 366.479431,264.529083 
	C361.415985,271.785614 356.869751,278.300873 351.943390,285.427216 
M310.038483,176.258789 
	C310.038483,185.528229 310.038483,194.797668 310.038483,204.771347 
	C316.736603,195.093323 323.120575,185.869202 329.936737,176.020569 
	C322.880981,176.020569 316.909119,176.020569 310.038483,176.258789 
z"/>
<path fill="currentColor" opacity="1.000000" stroke="none" 
	d="
M361.000000,384.999603 
	C315.863556,384.999603 271.227112,385.002411 226.590668,384.997467 
	C216.220276,384.996338 210.018631,378.724152 210.003113,368.229523 
	C209.990051,359.403809 210.000427,350.578003 210.000427,341.022034 
	C211.823196,341.022034 213.567429,341.022064 215.311646,341.022064 
	C260.114655,341.022064 304.917633,341.035187 349.720642,341.016205 
	C370.826660,341.007263 384.998932,326.835571 385.000122,305.810638 
	C385.001404,283.509552 385.000397,261.208466 385.000397,238.618988 
	C386.536285,238.507492 387.818878,238.335297 389.101776,238.333420 
	C402.592621,238.313721 416.083862,238.257324 429.574219,238.342010 
	C439.919830,238.406967 446.887909,244.534256 446.921661,254.140839 
	C447.056732,292.614319 447.049805,331.088806 446.922516,369.562317 
	C446.892731,378.570770 439.956696,384.985474 430.953033,384.993073 
	C407.802032,385.012634 384.651001,384.999603 361.000000,384.999603 
z"/>
<path fill="currentColor" opacity="1.000000" stroke="none" 
	d="
M142.344543,234.545471 
	C139.076920,224.334106 135.871918,214.472504 133.037781,204.505463 
	C129.348114,191.529663 125.952789,178.470139 121.531662,165.349045 
	C119.033615,174.357895 116.526199,183.364166 114.039818,192.376221 
	C110.663521,204.613846 107.426826,216.891785 103.886276,229.081558 
	C101.999084,235.579010 97.821770,238.875900 92.342461,238.981491 
	C86.481270,239.094421 82.208794,236.063354 80.411995,229.076157 
	C73.792435,203.334763 67.336311,177.548340 61.172878,151.694427 
	C59.202549,143.429428 63.475487,138.483810 70.974854,138.826035 
	C75.147682,139.016464 77.300560,141.365906 78.206558,145.080872 
	C80.864983,155.981476 83.482994,166.892654 86.009224,177.824539 
	C88.128784,186.996658 90.088814,196.205582 92.152664,205.390747 
	C92.280884,205.961380 92.698914,206.466888 93.341255,207.682159 
	C98.362923,189.047028 103.174614,171.153870 108.018646,153.269485 
	C108.534561,151.364685 109.179604,149.488800 109.867897,147.637863 
	C112.224052,141.301743 115.731094,138.788406 122.056015,138.824570 
	C128.280365,138.860153 131.990860,141.473404 133.944031,148.046036 
	C137.137115,158.791061 140.022522,169.628174 142.984451,180.441040 
	C145.460205,189.479111 147.859665,198.538101 150.639984,208.878662 
	C153.607895,195.735809 156.275711,183.831757 158.988770,171.938019 
	C160.933884,163.410889 162.729858,154.841553 164.986496,146.396347 
	C166.701767,139.977127 170.713974,137.646591 176.352859,139.020172 
	C181.363815,140.240799 184.102783,145.364670 182.640747,151.352798 
	C176.455276,176.686996 170.306870,202.031448 163.888824,227.307129 
	C160.740677,239.705170 151.470963,242.817017 142.344543,234.545471 
z"/>
<path fill="currentColor" opacity="1.000000" stroke="none" 
	d="
M356.589050,177.103455 
	C364.223053,180.461166 366.995453,186.388107 366.983337,193.999100 
	C366.967407,203.993759 367.163452,213.994034 366.859375,223.979446 
	C366.775818,226.724426 365.824615,229.833282 364.270538,232.084030 
	C344.118500,261.270081 323.742065,290.301117 303.571869,319.474762 
	C301.729004,322.140259 299.882202,323.092804 296.701294,323.054901 
	C282.254425,322.882599 267.804352,322.979431 252.397095,322.979431 
	C257.657257,315.313995 262.466736,308.284363 267.300446,301.271423 
	C269.275635,298.405762 271.344940,295.604431 273.298798,292.724579 
	C277.792572,286.101196 282.238586,280.419830 290.634033,277.088776 
	C303.331848,272.050690 309.366058,260.744476 309.208618,246.894653 
	C309.157867,242.429321 310.567108,238.961716 313.028961,235.462448 
	C325.999023,217.026962 338.815063,198.483124 351.809509,180.065018 
	C352.780365,178.688965 354.729797,178.003357 356.589050,177.103455 
z"/>
<path fill="currentColor" opacity="1.000000" stroke="none" 
	d="
M271.724731,168.400757 
	C270.248840,176.825333 265.061951,181.837952 258.140656,185.641022 
	C261.453644,187.540909 264.788605,189.032455 267.640747,191.168610 
	C275.888733,197.346161 277.803375,206.052277 275.855835,215.549545 
	C273.882721,225.171402 267.898651,232.023102 258.412170,234.738968 
	C252.925079,236.309814 247.003143,236.760193 241.253555,236.931671 
	C229.781464,237.273849 218.291367,237.213730 206.812439,237.053040 
	C199.278717,236.947586 196.031494,233.465347 196.015640,225.846191 
	C195.964050,201.046783 195.960220,176.247101 196.018845,151.447739 
	C196.035721,144.308716 199.398270,140.456741 206.582932,140.414978 
	C221.209167,140.329926 235.892807,140.078018 250.450928,141.207672 
	C264.299866,142.282303 273.523956,154.759247 271.724731,168.400757 
M252.388123,198.027527 
	C250.755371,197.272324 249.171539,196.007355 247.481873,195.845200 
	C237.018967,194.841064 226.532242,194.084778 216.091553,193.249252 
	C216.091553,203.849609 216.091553,213.200546 216.091553,221.980637 
	C225.761841,221.980637 235.035355,222.345795 244.260483,221.835876 
	C249.332886,221.555511 253.885010,218.947189 255.746216,213.724991 
	C257.692535,208.263885 257.262451,202.976212 252.388123,198.027527 
M249.662262,158.798126 
	C238.870239,152.458649 227.164398,155.955002 215.684555,154.912537 
	C215.684555,159.640045 215.684540,163.627426 215.684540,167.614807 
	C215.684540,171.683929 215.684555,175.753052 215.684555,180.018433 
	C222.329712,180.018433 228.296326,180.020859 234.262955,180.016876 
	C235.925095,180.015762 237.592682,180.079010 239.248520,179.970978 
	C251.138336,179.195160 256.276581,169.521027 249.662262,158.798126 
z"/>
<path fill="currentColor" opacity="1.000000" stroke="none" 
	d="
M198.000000,322.979156 
	C188.866562,322.979156 180.233124,322.979156 170.682220,322.979156 
	C175.792053,315.596832 180.539154,308.732635 185.292648,301.872864 
	C189.438431,295.890015 193.532166,289.869415 197.789902,283.967194 
	C198.668869,282.748749 200.162186,281.141174 201.386505,281.128967 
	C219.616470,280.946838 237.848831,281.003174 256.950745,281.003174 
	C249.221420,292.105957 241.320175,302.126068 234.953079,313.041077 
	C230.235077,321.129059 224.574585,324.306702 215.452576,323.113434 
	C209.891037,322.385925 204.156708,322.979156 198.000000,322.979156 
z"/>
<path fill="currentColor" opacity="1.000000" stroke="none" 
	d="
M166.157959,294.162598 
	C160.201508,302.760590 154.308716,310.967896 148.712860,319.372925 
	C146.660873,322.454987 144.753876,323.577332 140.982864,322.193268 
	C134.321701,319.748413 130.044220,314.459869 130.009338,307.379639 
	C129.966873,298.759216 129.999252,290.138458 129.999252,281.259949 
	C145.002106,281.259949 159.725143,281.259949 174.999039,281.259949 
	C172.038528,285.564178 169.188904,289.707214 166.157959,294.162598 
z"/>
<path fill="currentColor" opacity="1.000000" stroke="none" 
	d="
M352.133453,285.121704 
	C356.869751,278.300873 361.415985,271.785614 366.479431,264.529083 
	C366.717438,266.326141 366.962097,267.322357 366.964233,268.319061 
	C366.990448,280.638916 367.022034,292.959076 366.969269,305.278748 
	C366.921478,316.442688 360.409363,322.960358 349.389771,322.977875 
	C342.064636,322.989532 334.739471,322.971710 327.414368,322.947266 
	C327.140747,322.946350 326.867859,322.736542 326.020844,322.387939 
	C334.719452,309.985352 343.331421,297.706268 352.133453,285.121704 
z"/>
<path fill="currentColor" opacity="1.000000" stroke="none" 
	d="
M310.487854,176.139679 
	C316.909119,176.020569 322.880981,176.020569 329.936737,176.020569 
	C323.120575,185.869202 316.736603,195.093323 310.038483,204.771347 
	C310.038483,194.797668 310.038483,185.528229 310.487854,176.139679 
z"/>
<path fill="currentColor" opacity="1.000000" stroke="none" 
	d="
M252.669693,198.282349 
	C257.262451,202.976212 257.692535,208.263885 255.746216,213.724991 
	C253.885010,218.947189 249.332886,221.555511 244.260483,221.835876 
	C235.035355,222.345795 225.761841,221.980637 216.091553,221.980637 
	C216.091553,213.200546 216.091553,203.849609 216.091553,193.249252 
	C226.532242,194.084778 237.018967,194.841064 247.481873,195.845200 
	C249.171539,196.007355 250.755371,197.272324 252.669693,198.282349 
z"/>
<path fill="currentColor" opacity="1.000000" stroke="none" 
	d="
M249.954956,159.051575 
	C256.276581,169.521027 251.138336,179.195160 239.248520,179.970978 
	C237.592682,180.079010 235.925095,180.015762 234.262955,180.016876 
	C228.296326,180.020859 222.329712,180.018433 215.684555,180.018433 
	C215.684555,175.753052 215.684540,171.683929 215.684540,167.614807 
	C215.684540,163.627426 215.684555,159.640045 215.684555,154.912537 
	C227.164398,155.955002 238.870239,152.458649 249.954956,159.051575 
z"/>
</svg>