<?xml version="1.0" encoding="UTF-8"?>
<svg version="1.1" xmlns="http://www.w3.org/2000/svg" width="24" height="24" viewBox="0 0 500 500">
<path d="M0 0 C0.92685527 -0.00367669 1.85371055 -0.00735338 2.80865234 -0.01114148 C5.91597384 -0.02215885 9.02326188 -0.02601888 12.13059998 -0.02983093 C14.3581452 -0.03609709 16.58568938 -0.04274403 18.81323242 -0.04974365 C26.13052138 -0.07076977 33.44781052 -0.08114528 40.76512146 -0.09111023 C43.28619332 -0.09515845 45.80726508 -0.09927539 48.32833672 -0.10346031 C58.81727166 -0.12032734 69.30620549 -0.13496147 79.79515171 -0.14220905 C82.51471521 -0.14411876 85.2342787 -0.14603912 87.95384216 -0.147995 C88.6297271 -0.14847874 89.30561203 -0.14896248 90.00197833 -0.14946087 C100.94143543 -0.15775437 111.88078294 -0.18308128 122.82019223 -0.21557567 C134.06629131 -0.24870711 145.3123369 -0.26633099 156.55849117 -0.26985329 C162.86677079 -0.27220112 169.17487714 -0.28112697 175.48311043 -0.30631447 C181.42161149 -0.32964268 187.35982577 -0.33380914 193.29836082 -0.32355309 C195.47189921 -0.32305876 197.64545195 -0.32934848 199.81894684 -0.34310913 C213.87553894 -0.42708736 226.56361009 -0.39376031 237.85496521 9.15888977 C248.551527 19.96156825 249.9706712 31.90730883 249.98484802 46.40962219 C249.98981293 47.63007233 249.99477783 48.85052246 249.99989319 50.10795593 C250.01195443 53.44090147 250.01944757 56.77378466 250.02390385 60.10674453 C250.0268469 62.19488714 250.03095398 64.28302442 250.03540802 66.37116432 C250.04906386 72.9214914 250.05873963 79.47180609 250.06260991 86.0221464 C250.06708491 93.55191277 250.08461481 101.08149709 250.11361051 108.61120814 C250.13531464 114.45268115 250.14531884 120.29410327 250.14665103 126.13561612 C250.14769291 129.61464389 250.15346759 133.0935001 250.17147064 136.57248497 C250.19120332 140.4609638 250.18662776 144.34921979 250.18016052 148.23774719 C250.18937531 149.37115036 250.19859009 150.50455353 250.20808411 151.67230225 C250.1438813 164.06495302 247.69837415 174.29340225 239.57371521 183.77217102 C230.96067216 191.2107082 223.64972256 194.4543129 212.28593445 194.41459656 C210.85550123 194.42139323 210.85550123 194.42139323 209.39617038 194.4283272 C206.20432601 194.440976 203.01265217 194.4393505 199.82078552 194.43769836 C197.53073406 194.44368334 195.24068461 194.45048882 192.95063782 194.45805359 C186.73150097 194.47572474 180.51241915 194.48040947 174.29325962 194.48168516 C170.40658305 194.48310679 166.51992047 194.48737662 162.63324738 194.4926796 C149.77035984 194.51022921 136.90751678 194.51951939 124.04461899 194.51801865 C123.35168168 194.51793874 122.65874437 194.51785882 121.94480896 194.51777649 C121.25102122 194.51769473 120.55723347 194.51761297 119.84242186 194.51752873 C108.60421181 194.51671621 97.36613591 194.53584652 86.12796465 194.56405322 C74.57672489 194.59281587 63.02556783 194.60622578 51.47428966 194.60486567 C44.9939554 194.60435608 38.51377295 194.61003757 32.03347015 194.63122177 C25.93654128 194.65060838 19.83990894 194.6507254 13.74296951 194.63618851 C11.50893088 194.6340998 9.27487367 194.63880491 7.04086685 194.65090942 C3.98337512 194.66639893 0.92690114 194.65702872 -2.13056946 194.64164734 C-3.00783023 194.65193447 -3.88509099 194.66222159 -4.78893542 194.67282045 C-14.42880612 194.56616708 -23.22861349 190.86421423 -30.17628479 184.14717102 C-38.91480031 174.00487791 -40.63119775 164.05966856 -40.56446838 150.96162415 C-40.56972534 149.67900192 -40.5749823 148.3963797 -40.58039856 147.07489014 C-40.59397175 143.58516458 -40.58881538 140.09570773 -40.5792613 136.60597801 C-40.5716124 132.93647465 -40.57872473 129.26699276 -40.5834198 125.5974884 C-40.58886224 119.43773816 -40.58172564 113.27809619 -40.56739807 107.11836243 C-40.55107441 100.01893515 -40.556364 92.91976643 -40.57287729 85.8203454 C-40.58653546 79.7011198 -40.58839075 73.58197158 -40.58056128 67.46273565 C-40.57590846 63.81840629 -40.57519343 60.17419806 -40.58517075 56.52987671 C-40.59552666 52.4640039 -40.58113269 48.39856977 -40.56446838 44.3327179 C-40.57054108 43.14073288 -40.57661377 41.94874786 -40.58287048 40.72064209 C-40.49150494 28.64173608 -37.67923078 19.08913447 -29.32472229 10.17060852 C-20.64398517 2.04322516 -11.54858991 -0.00246317 0 0 Z M-15.17628479 24.14717102 C-18.89866326 28.82400551 -20.29787319 32.41279022 -20.31672668 38.32020569 C-20.32243683 39.39122528 -20.32814697 40.46224487 -20.33403015 41.5657196 C-20.33514801 42.74083099 -20.33626587 43.91594238 -20.3374176 45.12666321 C-20.34238251 46.36431427 -20.34734741 47.60196533 -20.35246277 48.87712097 C-20.36457361 52.27401499 -20.37203037 55.67084742 -20.37647343 59.0677557 C-20.37940607 61.19134982 -20.38351128 63.31493856 -20.3879776 65.43852997 C-20.40165171 72.08657072 -20.41131823 78.73459916 -20.41517949 85.382653 C-20.41965721 93.04947929 -20.43719201 100.71612703 -20.46618009 108.38289905 C-20.48782246 114.31338449 -20.49788517 120.2438198 -20.49922061 126.1743443 C-20.50026701 129.71419214 -20.5061392 133.25387212 -20.52404022 136.79367828 C-20.54363766 140.74587718 -20.53922172 144.69785444 -20.5327301 148.65010071 C-20.54194489 149.81711517 -20.55115967 150.98412964 -20.56065369 152.18650818 C-20.52590036 158.94040492 -20.3038576 164.59781358 -15.64112854 169.88935852 C-7.58462284 175.86477196 0.97749241 174.96296488 10.76829529 175.26631165 C12.99559947 175.35285279 15.22182561 175.47534971 17.4450531 175.63545227 C29.87906342 176.83872993 29.87906342 176.83872993 41.0355072 172.40605164 C45.05786975 167.92692366 47.87789574 162.83878377 50.59541321 157.49562073 C52.22400244 154.3818426 54.13900197 151.6634686 56.20652771 148.82295227 C56.83019226 147.92842346 57.45385681 147.03389465 58.09642029 146.11225891 C58.70767761 145.23690491 59.31893494 144.3615509 59.94871521 143.45967102 C66.276513 134.37999759 72.56673177 125.27574011 78.82371521 116.14717102 C85.81445822 105.94809009 92.85324653 95.78364573 99.92015076 85.63716125 C103.73864846 80.15222897 107.5448422 74.65947202 111.32371521 69.14717102 C115.79395267 62.62636592 120.30535428 56.13470918 124.82371521 49.64717102 C129.64806653 42.71783492 134.4696023 35.78670159 139.26121521 28.83467102 C139.71560974 28.17724915 140.17000427 27.51982727 140.63816833 26.84248352 C142.88896651 23.59036467 142.88896651 23.59036467 144.82371521 20.14717102 C125.14358565 20.05365984 105.46350128 19.98315858 85.7831955 19.93992233 C76.64493373 19.91931188 67.50681015 19.89122034 58.36863708 19.84541321 C50.40223455 19.80549893 42.43593211 19.77972718 34.46943235 19.77081704 C30.25260748 19.76561005 26.0360689 19.75340353 21.81933594 19.72425079 C17.84664982 19.69700899 13.87436672 19.68874359 9.90159607 19.6947403 C8.44718228 19.69364396 6.99275438 19.68574211 5.53842163 19.67034912 C-2.41950347 19.59028433 -8.45640927 19.63803199 -15.17628479 24.14717102 Z M132.82371521 120.14717102 C132.16687821 125.78156145 132.16687821 125.78156145 134.63621521 130.58467102 C138.13483493 133.08368511 140.95398875 133.27842966 145.1337738 133.30830383 C146.76093826 133.32271515 146.76093826 133.32271515 148.42097473 133.3374176 C149.59286346 133.34166748 150.7647522 133.34591736 151.97215271 133.35029602 C153.17683197 133.35599609 154.38151123 133.36169617 155.62269592 133.36756897 C158.17309185 133.37702107 160.72349999 133.38355378 163.27391052 133.3874054 C167.17614519 133.39711486 171.07785411 133.42813881 174.97996521 133.45967102 C177.45652458 133.46620067 179.93308772 133.47145129 182.40965271 133.47529602 C184.16141312 133.49381622 184.16141312 133.49381622 185.94856262 133.51271057 C187.03964325 133.50970947 188.13072388 133.50670837 189.25486755 133.50361633 C190.21178497 133.50726196 191.16870239 133.51090759 192.15461731 133.5146637 C195.36973333 133.07199294 197.21551945 132.0546486 199.82371521 130.14717102 C202.16540285 126.63463956 202.31995198 125.28247746 201.82371521 121.14717102 C199.6728107 117.80956057 198.61958722 116.41246169 194.82371521 115.14717102 C193.05586743 115.04436917 191.28444566 114.99869457 189.51365662 114.98603821 C187.88649216 114.97162689 187.88649216 114.97162689 186.22645569 114.95692444 C185.05456696 114.95267456 183.88267822 114.94842468 182.67527771 114.94404602 C180.86825882 114.93549591 180.86825882 114.93549591 179.0247345 114.92677307 C176.47433857 114.91732097 173.92393043 114.91078826 171.3735199 114.90693665 C167.47128523 114.89722718 163.56957631 114.86620323 159.66746521 114.83467102 C157.19090584 114.82814137 154.7143427 114.82289075 152.23777771 114.81904602 C151.06993744 114.80669922 149.90209717 114.79435242 148.6988678 114.78163147 C147.60778717 114.78463257 146.51670654 114.78763367 145.39256287 114.79072571 C144.43564545 114.78708008 143.47872803 114.78343445 142.49281311 114.77967834 C138.36019389 115.34867482 135.73089465 117.23999158 132.82371521 120.14717102 Z " fill="currentColor" transform="translate(145.17628479003906,152.8528289794922)"/>
<path d="M0 0 C0.74886475 0.00523682 1.49772949 0.01047363 2.26928711 0.01586914 C3.36188843 0.01961548 3.36188843 0.01961548 4.4765625 0.0234375 C5.40718506 0.0325415 6.33780762 0.04164551 7.29663086 0.05102539 C11.72069336 0.08196289 11.72069336 0.08196289 16.23413086 0.11352539 C16.23413086 8.69352539 16.23413086 17.27352539 16.23413086 26.11352539 C24.81413086 26.11352539 33.39413086 26.11352539 42.23413086 26.11352539 C42.23413086 32.38352539 42.23413086 38.65352539 42.23413086 45.11352539 C33.65413086 45.11352539 25.07413086 45.11352539 16.23413086 45.11352539 C16.23413086 53.69352539 16.23413086 62.27352539 16.23413086 71.11352539 C13.28475586 71.13415039 10.33538086 71.15477539 7.29663086 71.17602539 C5.90069702 71.1896814 5.90069702 71.1896814 4.4765625 71.20361328 C3.74816162 71.20611084 3.01976074 71.2086084 2.26928711 71.21118164 C1.52042236 71.21641846 0.77155762 71.22165527 0 71.22705078 C-1.76586914 71.11352539 -1.76586914 71.11352539 -2.76586914 70.11352539 C-2.85324559 68.25982928 -2.87285067 66.40284998 -2.86352539 64.54711914 C-2.86030273 63.42241211 -2.85708008 62.29770508 -2.85375977 61.13891602 C-2.84538086 59.95491211 -2.83700195 58.7709082 -2.82836914 57.55102539 C-2.82385742 56.3631543 -2.8193457 55.1752832 -2.81469727 53.95141602 C-2.80286589 51.00540313 -2.78638201 48.05948858 -2.76586914 45.11352539 C-3.51795654 45.11876221 -4.27004395 45.12399902 -5.04492188 45.12939453 C-8.43106257 45.15009766 -11.81718998 45.16316416 -15.20336914 45.17602539 C-16.979375 45.18859375 -16.979375 45.18859375 -18.79125977 45.20141602 C-19.9159668 45.20463867 -21.04067383 45.20786133 -22.19946289 45.21118164 C-23.76265259 45.21903687 -23.76265259 45.21903687 -25.35742188 45.22705078 C-27.76586914 45.11352539 -27.76586914 45.11352539 -28.76586914 44.11352539 C-28.86573889 41.27017491 -28.90464795 38.45655376 -28.89086914 35.61352539 C-28.89473633 34.8155957 -28.89860352 34.01766602 -28.90258789 33.19555664 C-28.89247681 27.24013306 -28.89247681 27.24013306 -27.76586914 26.11352539 C-25.91217303 26.02614894 -24.05519373 26.00654386 -22.19946289 26.01586914 C-21.07475586 26.0190918 -19.95004883 26.02231445 -18.79125977 26.02563477 C-17.60725586 26.03401367 -16.42325195 26.04239258 -15.20336914 26.05102539 C-14.01549805 26.05553711 -12.82762695 26.06004883 -11.60375977 26.06469727 C-8.65774688 26.07652864 -5.71183233 26.09301252 -2.76586914 26.11352539 C-2.77372437 24.98539429 -2.77372437 24.98539429 -2.78173828 23.83447266 C-2.80244141 20.44833197 -2.81550791 17.06220455 -2.82836914 13.67602539 C-2.83674805 12.49202148 -2.84512695 11.30801758 -2.85375977 10.08813477 C-2.85859375 8.40107422 -2.85859375 8.40107422 -2.86352539 6.67993164 C-2.86876221 5.63780518 -2.87399902 4.59567871 -2.87939453 3.52197266 C-2.72162907 0.17496993 -2.72162907 0.17496993 0 0 Z " fill="currentColor" transform="translate(174.765869140625,190.886474609375)"/>
</svg>
