<?xml version="1.0" encoding="UTF-8"?>
<svg version="1.1" xmlns="http://www.w3.org/2000/svg" width="24" height="24" viewBox="0 0 500 500">
<path d="M0 0 C1.23685547 -0.020625 2.47371094 -0.04125 3.74804688 -0.0625 C5.53758789 -0.07023438 5.53758789 -0.07023438 7.36328125 -0.078125 C9.0016394 -0.09214355 9.0016394 -0.09214355 10.6730957 -0.10644531 C14.07970062 0.29637668 15.94707448 1.22115281 18.6875 3.25 C20.9940768 7.86315359 19.75463402 12.51408303 18.20288086 17.17211914 C17.52968147 19.04686687 16.84556794 20.91772039 16.15234375 22.78515625 C15.41852646 24.83134674 14.6848054 26.87757174 13.95117188 28.92382812 C12.78751167 32.12690802 11.61923657 35.3282481 10.44799805 38.52856445 C9.31700948 41.6308744 8.20282722 44.73885037 7.08984375 47.84765625 C6.734702 48.800923 6.37956024 49.75418976 6.01365662 50.73634338 C3.59030254 57.38418071 3.59030254 57.38418071 4.6875 64.25 C8.05354294 66.49402863 9.15522966 66.49660679 13.08935547 66.48950195 C14.19415253 66.49323318 15.29894958 66.49696442 16.43722534 66.50080872 C17.63098785 66.49667465 18.82475037 66.49254059 20.0546875 66.48828125 C22.57422415 66.50369939 25.0937555 66.52000291 27.61328125 66.53710938 C31.59207804 66.55357913 35.57048826 66.56248581 39.54931641 66.55541992 C43.3848874 66.55280487 47.21927433 66.58088857 51.0546875 66.61328125 C52.24440155 66.60307449 53.4341156 66.59286774 54.65988159 66.58235168 C62.77656037 66.67868892 62.77656037 66.67868892 67.03955078 69.35229492 C69.27508942 73.28319982 68.86825135 74.90321027 67.6875 79.25 C66.64113702 82.49964047 65.45445161 85.67975771 64.22265625 88.86328125 C63.69863724 90.24308167 63.69863724 90.24308167 63.16403198 91.65075684 C62.03290619 94.62401608 60.89162115 97.59325671 59.75 100.5625 C58.97343003 102.59766785 58.1974713 104.63306905 57.42211914 106.66870117 C55.52786881 111.63658725 53.6253589 116.60125155 51.71887207 121.56445312 C50.77970177 124.00991965 49.84203282 126.45595289 48.90527344 128.90234375 C46.17846975 136.02305546 43.4427742 143.14025101 40.6875 150.25 C41.66360229 150.22643433 41.66360229 150.22643433 42.65942383 150.20239258 C45.60619424 150.14005351 48.55282598 150.10101316 51.5 150.0625 C52.52416016 150.03736328 53.54832031 150.01222656 54.60351562 149.98632812 C56.07788086 149.97182617 56.07788086 149.97182617 57.58203125 149.95703125 C58.94098511 149.93346558 58.94098511 149.93346558 60.32739258 149.90942383 C62.6875 150.25 62.6875 150.25 64.5065918 151.39331055 C66.25749888 154.14618388 66.07588146 156.04926206 65.6875 159.25 C64.44091797 161.55737305 64.44091797 161.55737305 62.6796875 163.76171875 C61.70467285 165.00755737 61.70467285 165.00755737 60.70996094 166.27856445 C60.00129883 167.15601318 59.29263672 168.03346191 58.5625 168.9375 C57.0845095 170.81919174 55.60797506 172.70202796 54.1328125 174.5859375 C53.38547852 175.53307617 52.63814453 176.48021484 51.86816406 177.45605469 C48.63758991 181.59518262 45.53299043 185.82192799 42.4375 190.0625 C41.30389308 191.60844531 40.16978426 193.15402271 39.03515625 194.69921875 C38.4848877 195.44864746 37.93461914 196.19807617 37.36767578 196.97021484 C34.55557206 200.78588247 31.71793779 204.58227422 28.875 208.375 C28.36485352 209.05667236 27.85470703 209.73834473 27.32910156 210.44067383 C23.02150031 216.1784285 23.02150031 216.1784285 20.0625 216.8125 C12.49518654 215.55128109 7.29704196 205.18620867 3 199.25 C1.77143538 197.56726861 0.54225855 195.88498405 -0.6875 194.203125 C-1.60015625 192.95305664 -1.60015625 192.95305664 -2.53125 191.67773438 C-4.67288219 188.7588212 -6.84041276 185.86035947 -9.01806641 182.96826172 C-9.99959829 181.66461921 -10.97847912 180.35897611 -11.95458984 179.05126953 C-14.44567893 175.71437272 -16.96663293 172.40751689 -19.5390625 169.1328125 C-20.56782916 167.79696804 -21.59647921 166.46103377 -22.625 165.125 C-23.11186279 164.52139648 -23.59872559 163.91779297 -24.1003418 163.29589844 C-26.33824588 160.35599571 -27.31508972 158.68818146 -27.29296875 154.9453125 C-26.3125 152.25 -26.3125 152.25 -23.3125 150.25 C-20.8605957 149.93115234 -20.8605957 149.93115234 -17.98828125 149.8359375 C-16.96025391 149.79726563 -15.93222656 149.75859375 -14.87304688 149.71875 C-13.26526367 149.67234375 -13.26526367 149.67234375 -11.625 149.625 C-10.54154297 149.58632813 -9.45808594 149.54765625 -8.34179688 149.5078125 C-5.66553533 149.41349491 -2.98928157 149.32789995 -0.3125 149.25 C1.55409602 144.54188577 3.40490505 139.82797522 5.24169922 135.1081543 C5.86798708 133.50525183 6.49846752 131.90398065 7.13330078 130.30444336 C8.04801647 127.99755051 8.9472151 125.68510315 9.84375 123.37109375 C10.12810913 122.66351425 10.41246826 121.95593475 10.70544434 121.22691345 C12.40876322 116.77553961 13.15768444 113.09176216 12.6875 108.25 C10.14131461 105.70381461 9.22150569 105.9951858 5.69042969 105.97875977 C4.64884705 105.96857315 3.6072644 105.95838654 2.53411865 105.94789124 C1.40395325 105.94575119 0.27378784 105.94361115 -0.890625 105.94140625 C-3.2721378 105.91623981 -5.65364816 105.89084188 -8.03515625 105.86523438 C-11.79865861 105.83651097 -15.56211847 105.81250191 -19.32568359 105.79370117 C-22.95172633 105.7720297 -26.57725891 105.73257859 -30.203125 105.69140625 C-31.32519348 105.69129044 -32.44726196 105.69117462 -33.60333252 105.6910553 C-39.19643902 105.62028523 -43.54858122 105.5505422 -48.3125 102.25 C-50.4079508 98.0590984 -49.54754817 93.52002332 -48.17358398 89.20629883 C-47.64631327 87.70261917 -47.10725427 86.20303878 -46.55859375 84.70703125 C-46.26616791 83.88108963 -45.97374207 83.05514801 -45.67245483 82.20417786 C-44.70825039 79.48662642 -43.72923125 76.77466899 -42.75 74.0625 C-41.37310398 70.20341893 -40.00314643 66.34188399 -38.6328125 62.48046875 C-38.27872818 61.48615845 -37.92464386 60.49184814 -37.55982971 59.46740723 C-35.00399698 52.26960801 -32.53831065 45.04491018 -30.1171875 37.80078125 C-29.78004227 36.79535782 -29.44289703 35.78993439 -29.09553528 34.75404358 C-27.78060205 30.83135165 -26.46591044 26.90871402 -25.1701355 22.97964478 C-24.27487964 20.26714528 -23.36714283 17.55910693 -22.45703125 14.8515625 C-22.19715424 14.05136185 -21.93727722 13.25116119 -21.66952515 12.42671204 C-17.50273786 0.14247055 -12.03933581 0.04972364 0 0 Z " fill="currentColor" transform="translate(423.3125,141.75)"/>
<path d="M0 0 C0.79786423 -0.00350464 1.59572845 -0.00700928 2.41777039 -0.01062012 C5.0305577 -0.01935512 7.64306976 -0.0136176 10.25585938 -0.00683594 C12.08614147 -0.00818495 13.91642322 -0.01012746 15.7467041 -0.01263428 C19.57287017 -0.01557439 23.39894253 -0.01132377 27.22509766 -0.00195312 C32.11397004 0.00944071 37.00262278 0.00287528 41.89148712 -0.00909805 C45.66800574 -0.01634674 49.44447282 -0.01401493 53.22099304 -0.00884247 C55.02300544 -0.00751429 56.82502261 -0.00912435 58.62702942 -0.01380157 C61.15121749 -0.01891645 63.67505648 -0.01108745 66.19921875 0 C66.93399948 -0.00404846 67.66878021 -0.00809692 68.42582703 -0.01226807 C74.47772451 0.03664286 80.13129796 0.77780222 85.41210938 3.94628906 C89.07550163 7.81901802 90.73857147 11.96333004 90.97460938 17.25878906 C90.75453439 22.42054769 88.97590068 26.56136311 85.72460938 30.57128906 C81.30071551 34.08438125 77.31928107 34.50301524 71.76757812 34.45410156 C70.47529297 34.44765625 69.18300781 34.44121094 67.8515625 34.43457031 C66.49674207 34.41786233 65.14192436 34.40093248 63.78710938 34.38378906 C62.41276687 34.37374909 61.03841734 34.36462502 59.6640625 34.35644531 C56.30906621 34.33290148 52.95442738 34.30001473 49.59960938 34.25878906 C49.60145296 35.01324531 49.60329655 35.76770155 49.605196 36.5450201 C49.64941393 54.92429995 49.68248486 73.30356915 49.70323372 91.68289089 C49.71353506 100.5710841 49.72757353 109.45924174 49.75048828 118.34741211 C49.77045715 126.09664674 49.78333411 133.8458556 49.78778636 141.59511524 C49.79038783 145.69618328 49.79647853 149.79717761 49.81106949 153.89822197 C49.82470871 157.76331069 49.82881927 161.6282958 49.82582474 165.4934063 C49.82637208 166.90706954 49.83031161 168.32073648 49.83802032 169.73437881 C49.94133352 189.66872384 49.94133352 189.66872384 44.72460938 195.19628906 C44.2321875 195.7415625 43.73976563 196.28683594 43.23242188 196.84863281 C39.34872554 200.20273419 35.909952 200.70712512 30.91210938 200.56738281 C27.15600552 200.06614598 24.426153 198.77698247 21.59960938 196.25878906 C17.43292697 190.80030847 16.47378988 185.74545861 16.47935486 179.04522705 C16.47798019 177.76919113 16.47660553 176.49315521 16.47518921 175.17845154 C16.47872813 173.76675392 16.48236294 172.35505653 16.48608398 170.94335938 C16.48636609 169.45510358 16.48620766 167.96684764 16.48564148 166.47859192 C16.48535443 162.43968921 16.49123633 158.40081617 16.49821544 154.36192036 C16.50446425 150.14051272 16.50505399 145.91910442 16.50624084 141.69769287 C16.50934964 133.7044357 16.51755697 125.7111922 16.52759033 117.71794105 C16.53876546 108.61766055 16.54426545 99.5173794 16.54928577 90.41709375 C16.55973994 71.69765111 16.57733068 52.97822118 16.59960938 34.25878906 C15.76300781 34.27973633 14.92640625 34.30068359 14.06445312 34.32226562 C10.92598628 34.39090873 7.78790522 34.44081469 4.64892578 34.47851562 C2.6361331 34.50824952 0.62368803 34.55910635 -1.38867188 34.61035156 C-8.87615786 34.68560268 -14.12172746 34.50298249 -20.40039062 30.25878906 C-24.45827475 25.28788101 -24.98180149 21.19812009 -24.72070312 14.84472656 C-24.13654196 10.12869372 -22.47923786 7.36846051 -19.21289062 4.00878906 C-13.26875321 0.31021467 -6.81446622 -0.03754604 0 0 Z " fill="currentColor" transform="translate(163.400390625,146.7412109375)"/>
<path d="M0 0 C1.21076958 -0.00503792 1.21076958 -0.00503792 2.44599915 -0.01017761 C5.10748851 -0.01965585 7.76891474 -0.02162922 10.43041992 -0.02270508 C12.28740972 -0.02592008 14.14439927 -0.02928433 16.00138855 -0.03279114 C19.89253323 -0.03877476 23.78365573 -0.04063185 27.67480469 -0.04003906 C32.64782161 -0.03993754 37.62069543 -0.05358286 42.59367847 -0.07081127 C46.42938381 -0.08195965 50.26505489 -0.08395739 54.10077477 -0.08342934 C55.93349386 -0.08460544 57.76621395 -0.08900634 59.59891701 -0.0967617 C62.16890957 -0.10661799 64.73859569 -0.10366133 67.30859375 -0.09765625 C68.43186066 -0.10608551 68.43186066 -0.10608551 69.57781982 -0.11468506 C76.82727651 -0.071891 83.50247449 0.79934949 88.84838867 6.14526367 C91.64188932 10.97590198 92.35861186 16.05891361 91.44995117 21.55541992 C89.85624964 27.17087415 87.68783173 29.9189683 82.84838867 33.14526367 C79.37056284 34.30453895 76.6603561 34.25839434 72.99291992 34.24291992 C72.00046516 34.2407975 72.00046516 34.2407975 70.98796082 34.2386322 C68.87889039 34.23304363 66.7699269 34.22049332 64.66088867 34.20776367 C63.22924958 34.20274719 61.79760883 34.19818454 60.3659668 34.1940918 C56.86007279 34.18307797 53.35424117 34.16582122 49.84838867 34.14526367 C49.85207584 34.92641037 49.85576302 35.70755707 49.85956192 36.51237488 C49.94796268 55.53385465 50.01412248 74.55529333 50.05563736 93.57693481 C50.07624813 102.77573023 50.10434029 111.97438839 50.15014648 121.1730957 C50.19005977 129.19223594 50.21583228 137.21127676 50.22474265 145.23051357 C50.22994981 149.47528329 50.24215739 153.7197686 50.2713089 157.96444702 C50.29854913 161.96339727 50.30681641 165.96194715 50.3008194 169.96098137 C50.3019158 171.42507036 50.30981858 172.88917335 50.32521057 174.35318184 C50.40516234 182.35320546 50.33648648 188.37077641 45.84838867 195.14526367 C41.51289164 199.26927305 37.99554666 200.52223871 31.97338867 200.42260742 C26.77330238 199.74391969 23.61521898 197.13407117 20.47338867 193.08276367 C18.10081846 188.79388675 17.72417275 185.81290301 17.72813416 180.97602844 C17.72675949 179.68453888 17.72538483 178.39304932 17.72396851 177.06242371 C17.72750767 175.62820411 17.73114248 174.19398476 17.73486328 172.75976562 C17.7351453 171.25195314 17.73498712 169.74414053 17.73442078 168.23632812 C17.73413339 164.139517 17.74002062 160.04273505 17.74699473 155.94593072 C17.75323806 151.66579348 17.75383285 147.38565561 17.75502014 143.10551453 C17.75813056 134.99889306 17.76634007 126.89228504 17.77636963 118.78566951 C17.78753973 109.55724048 17.79304348 100.32881082 17.79806507 91.10037673 C17.80852291 72.11533141 17.82611677 53.13029862 17.84838867 34.14526367 C16.97102051 34.16097412 16.09365234 34.17668457 15.18969727 34.19287109 C11.91326916 34.24420743 8.63727269 34.28171364 5.3605957 34.31005859 C3.9464643 34.32508192 2.532379 34.34550672 1.1184082 34.37158203 C-0.9222353 34.40825321 -2.96225925 34.42505404 -5.00317383 34.43823242 C-6.84129639 34.4617981 -6.84129639 34.4617981 -8.71655273 34.48583984 C-13.81764316 33.98008141 -17.04122539 32.37569133 -20.46411133 28.58276367 C-24.22167279 23.15517489 -23.69671412 17.58668958 -23.15161133 11.14526367 C-21.90922926 6.94956193 -19.94114723 4.64922276 -16.21411133 2.27026367 C-10.78546297 0.27606632 -5.74525313 -0.00344895 0 0 Z " fill="currentColor" transform="translate(31.151611328125,146.854736328125)"/>
<path d="M0 0 C5.32273414 2.68973985 8.19352882 6.63527397 10.08203125 12.30078125 C10.1736841 14.35554056 10.20397029 16.41321478 10.20228577 18.47001648 C10.20366043 19.76150604 10.2050351 21.05299561 10.20645142 22.38362122 C10.20291225 23.81784081 10.19927744 25.25206017 10.19555664 26.6862793 C10.19527462 28.19409178 10.1954328 29.7019044 10.19599915 31.2097168 C10.19628653 35.30652792 10.1903993 39.40330987 10.18342519 43.5001142 C10.17718186 47.78025144 10.17658707 52.06038931 10.17539978 56.3405304 C10.17228936 64.44715186 10.16407986 72.55375988 10.15405029 80.66037542 C10.14288019 89.88880444 10.13737644 99.1172341 10.13235486 108.3456682 C10.12189702 127.33071352 10.10430315 146.3157463 10.08203125 165.30078125 C11.01711266 165.2907885 11.01711266 165.2907885 11.97108459 165.28059387 C18.4763573 165.2140734 24.98153289 165.16891126 31.48706055 165.13598633 C33.91288174 165.12092716 36.33867583 165.10047563 38.7644043 165.07446289 C42.25706687 165.03795422 45.7493685 165.02102572 49.2421875 165.0078125 C50.32162125 164.99232864 51.40105499 164.97684479 52.51319885 164.96089172 C59.63174895 164.95931116 64.6504915 165.61119604 70.39453125 170.11328125 C74.10418111 174.92208662 74.81712897 180.36256996 74.08203125 186.30078125 C72.44118001 191.48241676 70.70463618 194.39821537 66.08203125 197.30078125 C61.68669189 199.04453626 58.00077701 199.55688041 53.28564453 199.57543945 C52.63437592 199.58055038 51.9831073 199.58566132 51.31210327 199.59092712 C49.17542127 199.60474039 47.03906489 199.60387251 44.90234375 199.6015625 C43.40550621 199.60545431 41.90866976 199.60978998 40.41183472 199.61454773 C37.2798911 199.62199241 34.14806025 199.62173167 31.01611328 199.61645508 C27.01939733 199.61066627 23.02314568 199.62758537 19.02650642 199.65079975 C15.93624206 199.66559364 12.84608803 199.66640108 9.75579453 199.66329002 C8.2831213 199.66380052 6.81044146 199.66898673 5.33780289 199.67910194 C-12.33894638 199.78561882 -12.33894638 199.78561882 -18.29296875 193.98828125 C-21.44323773 188.77822102 -22.16922554 184.14573791 -22.18539429 178.11003113 C-22.1899254 177.40888367 -22.19445651 176.7077362 -22.19912493 175.98534185 C-22.2117332 173.64795614 -22.2101509 171.31080451 -22.20849609 168.97338867 C-22.2144836 167.29254356 -22.22128966 165.61170119 -22.22885132 163.93086243 C-22.24649627 159.3728928 -22.25120607 154.8149983 -22.25248289 150.25699782 C-22.25390594 147.40687707 -22.25817845 144.55677534 -22.26347733 141.70665932 C-22.28197285 131.7564943 -22.29014856 121.80638281 -22.28857422 111.85620117 C-22.28737305 102.59260653 -22.30847171 93.32924497 -22.34006155 84.06570929 C-22.36624467 76.10286975 -22.37694065 68.14010623 -22.3756634 60.17722398 C-22.37515435 55.42561889 -22.38080585 50.67422099 -22.4020195 45.92265892 C-22.42143615 41.45165556 -22.42150304 36.9810563 -22.40698624 32.51003838 C-22.40490126 30.87383685 -22.40958044 29.23760979 -22.42170715 27.60145187 C-22.53920286 10.64359872 -22.53920286 10.64359872 -17.91796875 4.30078125 C-12.57996491 -0.49153892 -7.03953384 -2.56634737 0 0 Z " fill="currentColor" transform="translate(291.91796875,144.69921875)"/>
<path d="M0 0 C0.66 0.33 1.32 0.66 2 1 C-0.31 3.31 -2.62 5.62 -5 8 C-5 5 -5 5 -2.5 2.3125 C-1.675 1.549375 -0.85 0.78625 0 0 Z " fill="currentColor" transform="translate(278,146)"/>
<path d="M0 0 C0.66 0.33 1.32 0.66 2 1 C-0.31 3.31 -2.62 5.62 -5 8 C-5 5 -5 5 -2.5 2.3125 C-1.675 1.549375 -0.85 0.78625 0 0 Z " fill="currentColor" transform="translate(15,149)"/>
</svg>
