<?xml version="1.0" encoding="UTF-8"?>
<svg version="1.1" xmlns="http://www.w3.org/2000/svg" width="24" height="24" viewBox="0 0 500 500">
<path d="M0 0 C2.10058559 -0.00968123 4.20018223 -0.04069247 6.30053711 -0.07226562 C7.64232819 -0.07879848 8.98412625 -0.08404785 10.32592773 -0.08789062 C11.5438501 -0.09723633 12.76177246 -0.10658203 14.01660156 -0.11621094 C17.61743453 0.27393497 19.44427001 1.06035713 22.30639648 3.24023438 C24.7133213 6.8506216 24.71099842 7.96611111 24.30639648 12.24023438 C23.42723446 15.53154451 22.28854572 18.71369044 21.13061523 21.91601562 C20.80478958 22.84061081 20.47896393 23.76520599 20.14326477 24.71781921 C19.10224028 27.66598255 18.04841757 30.60937498 16.99389648 33.55273438 C16.29575363 35.52052232 15.59847898 37.48861853 14.90209961 39.45703125 C13.91565001 42.24531501 12.92807975 45.03312187 11.93327332 47.81843567 C11.05116079 50.29014177 10.17601559 52.76410659 9.30639648 55.24023438 C8.87274277 56.47342911 8.87274277 56.47342911 8.43032837 57.73153687 C8.15844696 58.52226593 7.88656555 59.312995 7.60644531 60.12768555 C7.36461014 60.82713791 7.12277496 61.52659027 6.87361145 62.24723816 C5.98919628 65.35476562 5.92349317 68.0493734 6.30639648 71.24023438 C7.39252225 73.02839821 7.39252225 73.02839821 9.30639648 74.24023438 C12.11669877 74.69435032 12.11669877 74.69435032 15.35083008 74.625 C16.5957724 74.63511108 17.84071472 74.64522217 19.12338257 74.65563965 C19.78824047 74.65408371 20.45309837 74.65252777 21.13810349 74.65092468 C23.22353553 74.6464442 25.30811996 74.66045258 27.39346313 74.67932129 C31.82276038 74.71610628 36.25196899 74.72980881 40.68139648 74.74023438 C45.80824994 74.75232241 50.93469095 74.77393204 56.06135941 74.82023621 C58.11157794 74.83378118 60.1612718 74.82963987 62.21151733 74.8248291 C63.46276398 74.83494019 64.71401062 74.84505127 66.00317383 74.85546875 C67.10221039 74.85752319 68.20124695 74.85957764 69.33358765 74.86169434 C72.7018479 75.29058884 74.59007405 76.23488284 77.30639648 78.24023438 C79.30700125 82.2414439 78.7687363 86.58261408 77.60165405 90.76693726 C76.57235801 93.66634931 75.46302809 96.52120749 74.31811523 99.37695312 C73.90336441 100.442892 73.48861359 101.50883087 73.06129456 102.60707092 C71.71778985 106.05224878 70.35596517 109.48985913 68.99389648 112.92773438 C68.07224341 115.28232787 67.15199824 117.63747293 66.2331543 119.99316406 C64.42418079 124.62824475 62.60949958 129.26102044 60.7902832 133.89208984 C57.64937741 141.90119806 54.59082288 149.94030535 51.55639648 157.99023438 C51.10997803 159.17061279 50.66355957 160.35099121 50.20361328 161.56713867 C49.23653328 164.12433468 48.27067208 166.68197994 47.30639648 169.24023438 C48.04277344 169.21928711 48.77915039 169.19833984 49.5378418 169.17675781 C52.87722091 169.09356294 56.21638198 169.04156281 59.55639648 168.99023438 C60.71526367 168.95671875 61.87413086 168.92320312 63.06811523 168.88867188 C64.1831543 168.87578125 65.29819336 168.86289062 66.44702148 168.84960938 C67.4734375 168.82866211 68.49985352 168.80771484 69.55737305 168.78613281 C73.02423085 169.35881092 74.19006752 170.48803377 76.30639648 173.24023438 C76.78516648 179.59567135 71.84813474 184.25481954 68.11889648 188.92773438 C66.64750904 190.81341191 65.17748263 192.70015215 63.70874023 194.58789062 C62.96736816 195.5355127 62.22599609 196.48313477 61.4621582 197.45947266 C58.29674005 201.54261114 55.2327967 205.69656165 52.18139648 209.86523438 C51.6192041 210.63005127 51.05701172 211.39486816 50.4777832 212.18286133 C47.47359654 216.27225132 44.48283997 220.37122571 41.49780273 224.47460938 C40.8695459 225.33489746 40.24128906 226.19518555 39.59399414 227.08154297 C38.39588171 228.72234672 37.2013097 230.36574397 36.01098633 232.01220703 C29.61226863 240.76465061 29.61226863 240.76465061 26.30639648 243.24023438 C22.96655273 243.63867188 22.96655273 243.63867188 19.30639648 242.24023438 C16.36949009 239.41210229 14.09262527 236.18697469 11.74389648 232.86523438 C11.04844727 231.91712891 10.35299805 230.96902344 9.63647461 229.9921875 C7.50929809 227.0869173 5.40793829 224.1640751 3.30639648 221.24023438 C1.54336449 218.8331703 -0.22800574 216.43246298 -2.00097656 214.03271484 C-3.12887005 212.50510488 -4.25403894 210.97547947 -5.37646484 209.44384766 C-10.67051535 202.22516949 -16.09509839 195.10825643 -21.54125977 188.00390625 C-22.18450195 187.16408203 -22.82774414 186.32425781 -23.49047852 185.45898438 C-24.06121094 184.71583984 -24.63194336 183.97269531 -25.2199707 183.20703125 C-28.70986553 178.5492127 -28.70986553 178.5492127 -28.50610352 174.67773438 C-27.69360352 171.24023438 -27.69360352 171.24023438 -24.69360352 169.24023438 C-21.96630859 168.92138672 -21.96630859 168.92138672 -18.71313477 168.82617188 C-17.54975586 168.7875 -16.38637695 168.74882812 -15.18774414 168.70898438 C-13.97280273 168.67804688 -12.75786133 168.64710938 -11.50610352 168.61523438 C-9.66628906 168.55722656 -9.66628906 168.55722656 -7.78930664 168.49804688 C-4.75755695 168.40367334 -1.7258151 168.31808888 1.30639648 168.24023438 C3.45782794 162.82007664 5.59351004 157.39407101 7.71508789 151.9621582 C8.43837101 150.11673449 9.16586366 148.2729547 9.89770508 146.4309082 C10.9514178 143.77655567 11.98964418 141.11657902 13.02514648 138.45507812 C13.35325317 137.63812973 13.68135986 136.82118134 14.01940918 135.97947693 C15.83978869 131.24969508 16.8530112 127.39304844 16.30639648 122.24023438 C14.58413152 118.9917346 14.58413152 118.9917346 11.30639648 118.24023438 C9.38511936 118.14835592 7.46082608 118.1151112 5.53735352 118.11425781 C3.76003342 118.10854767 3.76003342 118.10854767 1.94680786 118.10272217 C0.66555023 118.10169495 -0.6157074 118.10066772 -1.93579102 118.09960938 C-3.94593275 118.08597671 -5.9560748 118.07231446 -7.96620369 118.05690384 C-12.92631392 118.01892545 -17.88616319 117.98761905 -22.84643555 117.98974609 C-25.62893759 117.9903811 -28.41077624 117.97793662 -31.19314575 117.95074463 C-33.81402135 117.92538345 -36.43516367 117.91902499 -39.05612183 117.93353271 C-47.78299553 117.81326992 -47.78299553 117.81326992 -52.0378418 115.13574219 C-54.56166798 110.72220952 -54.34427921 107.66658409 -53.03952026 102.80117798 C-52.11496258 99.8645756 -51.10290654 96.97062886 -50.06469727 94.07226562 C-49.68335129 92.97942764 -49.30200531 91.88658966 -48.90910339 90.76063538 C-47.65998641 87.18765815 -46.39591003 83.62018466 -45.13110352 80.05273438 C-43.82521336 76.33842259 -42.52250571 72.62300616 -41.22027588 68.90740967 C-40.3376785 66.38942927 -39.45395117 63.87187346 -38.56878662 61.35479736 C-35.7277606 53.2582864 -32.96585892 45.13933655 -30.26782227 36.99414062 C-29.59088485 34.96116015 -28.91388465 32.92820058 -28.23681641 30.89526367 C-27.28241212 28.02749903 -26.3327138 25.15863187 -25.39816284 22.28433228 C-24.54358889 19.6583175 -23.6712597 17.03882075 -22.79516602 14.41992188 C-22.55315964 13.65784927 -22.31115326 12.89577667 -22.06181335 12.11061096 C-18.0781035 0.37340786 -11.06587485 0.03090667 0 0 Z " fill="currentColor" transform="translate(159.693603515625,127.759765625)"/>
<path d="M0 0 C2.43314212 1.89858817 4.73628171 3.86974324 7.015625 5.94921875 C7.92828125 6.72458984 7.92828125 6.72458984 8.859375 7.515625 C20.81297355 18.3553655 28.93899792 35.69139311 30.23706055 51.67602539 C31.15654536 74.76117192 26.84904105 94.33533824 11.015625 111.94921875 C10.49742187 112.56023437 9.97921875 113.17125 9.4453125 113.80078125 C-2.44681488 126.88809731 -21.49577526 135.34680887 -38.91796875 136.26953125 C-59.90155286 136.93677876 -77.79526525 131.74368935 -93.984375 117.94921875 C-94.974375 117.22734375 -95.964375 116.50546875 -96.984375 115.76171875 C-110.11296443 104.52422807 -117.95688974 85.75600444 -119.984375 68.94921875 C-121.16929079 47.4156529 -115.31836678 27.01769233 -101.296875 10.26171875 C-74.1769684 -18.52390189 -32.14942781 -22.09221152 0 0 Z M-80.6875 30.0625 C-88.97348714 40.47635118 -92.69234538 52.33518626 -91.71484375 65.609375 C-91.00933168 70.69709213 -90.02661818 75.22436799 -87.984375 79.94921875 C-83.88816866 78.32563179 -81.14989601 75.38241479 -78.11425781 72.30615234 C-77.53821304 71.73039963 -76.96216827 71.15464691 -76.3686676 70.56144714 C-74.47016463 68.66155338 -72.57883978 66.75467884 -70.6875 64.84765625 C-69.37085918 63.52728441 -68.05377543 62.20735411 -66.73626709 60.8878479 C-63.27292463 57.41687599 -59.81563082 53.93993945 -56.35955811 50.46173096 C-52.8305752 46.9122749 -49.2959108 43.36848674 -45.76171875 39.82421875 C-38.83036192 32.87142412 -31.90538123 25.91231566 -24.984375 18.94921875 C-29.57981825 14.3537755 -38.73074066 13.77962149 -45.046875 13.57421875 C-59.05836675 14.11835435 -71.1384998 19.89007781 -80.6875 30.0625 Z M-4.984375 37.94921875 C-25.774375 58.73921875 -46.564375 79.52921875 -67.984375 100.94921875 C-59.63999019 107.20750735 -50.27171169 108.71334004 -39.984375 107.94921875 C-27.14448787 106.09019215 -16.72788834 100.60114906 -7.984375 90.94921875 C0.21130483 79.57075064 3.41666667 67.91394934 2.015625 53.94921875 C0.11747149 45.12348592 0.11747149 45.12348592 -4.984375 37.94921875 Z " fill="currentColor" transform="translate(363.984375,236.05078125)"/>
<path d="M0 0 C0.66 0.33 1.32 0.66 2 1 C-2.95 5.95 -7.9 10.9 -13 16 C-13 11.08924079 -9.30469813 8.39044878 -6 5 C-4.05397986 3.23549584 -2.07285289 1.6178364 0 0 Z " fill="currentColor" transform="translate(273,237)"/>
</svg>
