<?xml version="1.0" encoding="UTF-8"?>
<svg version="1.1" xmlns="http://www.w3.org/2000/svg" width="24" height="24" viewBox="0 0 500 500">
<path d="M0 0 C0.71353638 -0.00478363 1.42707275 -0.00956726 2.16223145 -0.01449585 C3.66498022 -0.0178856 5.16780366 -0.00874758 6.67041016 0.01220703 C8.96294475 0.03899467 11.25058534 0.01243719 13.54296875 -0.01953125 C15.00782324 -0.01622698 16.4726747 -0.00982036 17.9375 0 C18.95801453 -0.01518173 18.95801453 -0.01518173 19.99914551 -0.03067017 C23.59770723 0.05737544 25.45519435 0.65474689 28.43945312 2.70556641 C31.0603704 6.52658127 31.26067251 9.24258632 30.46875 13.6640625 C29.36540038 17.73114637 27.95216225 21.6567536 26.49609375 25.609375 C25.89324303 27.30234207 25.89324303 27.30234207 25.2782135 29.0295105 C23.56587745 33.8380061 21.8246575 38.63587366 20.08374023 43.43408203 C18.81402225 46.94689715 17.56084438 50.46530303 16.30859375 53.984375 C15.90970444 55.06574738 15.51081512 56.14711975 15.09983826 57.26126099 C14.73938919 58.27606537 14.37894012 59.29086975 14.00756836 60.33642578 C13.52458534 61.66590744 13.52458534 61.66590744 13.03184509 63.02224731 C12.32814792 66.32371079 12.44326828 68.44260581 13.46875 71.6640625 C17.04942183 74.7108699 20.06130148 75.04005783 24.66430664 75.04882812 C26.50630394 75.06399475 26.50630394 75.06399475 28.38551331 75.07946777 C29.70333298 75.07644653 31.02115265 75.07342529 32.37890625 75.0703125 C33.75224542 75.07955081 35.12557391 75.09052319 36.49888611 75.10314941 C41.58077778 75.14606567 46.66264885 75.1571807 51.74468994 75.16937256 C56.04619509 75.18090793 60.34730798 75.20448169 64.64864922 75.24406433 C66.66269885 75.25761929 68.67684325 75.25326766 70.69093323 75.24865723 C71.91577927 75.25876831 73.14062531 75.26887939 74.40258789 75.27929688 C75.48004776 75.28135132 76.55750763 75.28340576 77.6676178 75.28552246 C80.85489106 75.71624492 82.21243468 76.39801516 84.46875 78.6640625 C86.64089602 86.07763419 84.11167167 91.61089657 81.32421875 98.5625 C80.88040359 99.71029938 80.43658844 100.85809875 79.97932434 102.04067993 C78.5548419 105.71350553 77.10616792 109.3762137 75.65625 113.0390625 C74.72297107 115.43165326 73.79131569 117.82487798 72.86132812 120.21875 C71.00919872 124.97969968 69.14779921 129.73685623 67.27880859 134.49121094 C62.94679501 145.52486715 58.70983649 156.59519821 54.46875 167.6640625 C56.21191406 167.72216797 57.95507812 167.78027344 59.69824219 167.83837891 C60.72671265 167.87296204 61.75518311 167.90754517 62.81481934 167.94317627 C64.95875953 168.01396802 67.10287561 168.07947912 69.24707031 168.14208984 C70.17100586 168.1777002 71.09494141 168.21331055 72.046875 168.25 C72.98950195 168.2814209 73.93212891 168.3128418 74.90332031 168.34521484 C77.55179297 168.6743836 79.22724166 169.23470407 81.46875 170.6640625 C82.87620212 173.47896673 82.71640175 175.54282981 82.46875 178.6640625 C81.22216797 180.97143555 81.22216797 180.97143555 79.4609375 183.17578125 C78.81125 184.0059375 78.1615625 184.83609375 77.4921875 185.69140625 C76.78320312 186.56925781 76.07421875 187.44710937 75.34375 188.3515625 C73.86054323 190.23975835 72.37879929 192.12910409 70.8984375 194.01953125 C70.15045898 194.96747559 69.40248047 195.91541992 68.63183594 196.89208984 C65.48926412 200.91926371 62.47532516 205.03494508 59.46875 209.1640625 C53.62176968 217.15504882 47.64515395 225.04218919 41.62109375 232.90039062 C40.97785156 233.74021484 40.33460938 234.58003906 39.671875 235.4453125 C39.10114258 236.18845703 38.53041016 236.93160156 37.94238281 237.69726562 C36.7309623 239.31409857 35.58942129 240.98305556 34.46875 242.6640625 C31.5415857 243.77163818 30.09316362 243.93013566 27.1953125 242.6953125 C23.32341268 239.81080261 20.92175189 236.21133432 18.15625 232.2890625 C16.91186575 230.56126751 15.66570528 228.83475069 14.41796875 227.109375 C13.77134277 226.21250977 13.1247168 225.31564453 12.45849609 224.39160156 C9.20136293 219.92673141 5.83404087 215.5476408 2.46875 211.1640625 C-2.88628898 204.16828912 -8.18232199 197.13335304 -13.40625 190.0390625 C-14.28990234 188.83926758 -14.28990234 188.83926758 -15.19140625 187.61523438 C-22.31256244 177.91456199 -22.31256244 177.91456199 -21.53125 171.6640625 C-17.89601254 168.79565547 -15.13351855 168.30095068 -10.57421875 168.37109375 C-9.46240234 168.38076172 -8.35058594 168.39042969 -7.20507812 168.40039062 C-6.05458984 168.42552734 -4.90410156 168.45066406 -3.71875 168.4765625 C-2.54892578 168.49009766 -1.37910156 168.50363281 -0.17382812 168.51757812 C2.707502 168.55285972 5.58788904 168.6021597 8.46875 168.6640625 C8.61280273 168.12418701 8.75685547 167.58431152 8.90527344 167.02807617 C10.43631251 161.60444246 12.3122185 156.37535112 14.421875 151.15234375 C14.68778442 150.48983612 14.95369385 149.82732849 15.22766113 149.14474487 C16.33606494 146.38822834 17.44737412 143.63328293 18.58203125 140.88745117 C19.41859487 138.85644469 20.23414272 136.81798255 21.046875 134.77734375 C21.78019043 132.97970581 21.78019043 132.97970581 22.52832031 131.14575195 C23.60004451 127.17797969 23.5135482 124.62523426 22.46875 120.6640625 C19.00637695 118.3558138 17.6895173 118.41352996 13.60791016 118.40869141 C12.40300934 118.40173248 11.19810852 118.39477356 9.95669556 118.38760376 C8.65356415 118.38860077 7.35043274 118.38959778 6.0078125 118.390625 C4.65643354 118.38206521 3.305063 118.37206514 1.95370483 118.36068726 C-3.78310016 118.31444958 -9.51985101 118.28981497 -15.25683594 118.28320312 C-18.76833022 118.27818057 -22.27927048 118.25389349 -25.79057693 118.21787643 C-27.77409893 118.20334903 -29.75774226 118.21071041 -31.74130249 118.21841431 C-32.95250763 118.20515106 -34.16371277 118.19188782 -35.41162109 118.17822266 C-36.47512787 118.17537262 -37.53863464 118.17252258 -38.6343689 118.16958618 C-42.34748014 117.52162529 -43.97056406 116.41602471 -46.53125 113.6640625 C-47.98516348 109.12032329 -47.35738952 106.04403431 -45.83154297 101.60327148 C-45.43253281 100.42061203 -45.03352264 99.23795258 -44.62242126 98.01945496 C-44.1730356 96.73292576 -43.72336612 95.44649567 -43.2734375 94.16015625 C-42.81272744 92.81125315 -42.35320285 91.46194465 -41.89479065 90.11225891 C-40.66808147 86.51206759 -39.4245544 82.91791122 -38.17689133 79.32493591 C-36.89368211 75.62275547 -35.62361313 71.91607038 -34.35180664 68.20996094 C-32.34324981 62.36272095 -30.32484881 56.51896387 -28.30029297 50.67724609 C-26.2726484 44.82500121 -24.26951367 38.9650347 -22.28918457 33.09657288 C-21.12001306 29.63451477 -19.93945031 26.17643439 -18.75518799 22.71951294 C-18.23549921 21.19604034 -17.72023657 19.67104992 -17.20965576 18.14450073 C-16.51680313 16.0782832 -15.80604104 14.01915777 -15.08984375 11.9609375 C-14.71142334 10.85073242 -14.33300293 9.74052734 -13.94311523 8.59667969 C-10.75393295 1.97235709 -7.18281723 -0.10685552 0 0 Z " fill="currentColor" transform="translate(230.53125,127.3359375)"/>
</svg>
