<svg version="1.1" id="Layer_1" xmlns="http://www.w3.org/2000/svg" xmlns:xlink="http://www.w3.org/1999/xlink" x="0px" y="0px"
	 width="24" viewBox="0 0 496 496" enable-background="new 0 0 496 496" xml:space="preserve">
<path fill="currentColor" opacity="1.000000" stroke="none" 
	d="
M333.938904,119.648804 
	C338.709351,119.111160 342.546906,119.971977 343.865082,124.734688 
	C345.170166,129.450012 345.084290,134.191040 340.276154,137.138977 
	C335.478241,140.080643 335.729980,143.369980 337.944458,148.067825 
	C343.718079,160.315918 346.720673,173.538177 349.109436,186.741898 
	C351.513763,200.031738 354.631287,213.385651 354.423920,226.951004 
	C354.091339,248.708649 356.291473,270.550385 353.462646,292.210571 
	C350.826477,312.395752 347.787109,332.547974 340.927185,351.920410 
	C339.030640,357.276154 336.835968,362.896912 341.630829,368.785065 
	C344.016693,371.714966 343.283691,376.838745 339.632874,379.615692 
	C335.929749,382.432404 331.398712,382.598938 327.504028,379.970673 
	C316.344208,372.439606 305.375366,364.625793 294.318817,356.941345 
	C277.245300,345.074982 260.131561,333.266205 243.090683,321.353149 
	C228.790131,311.355865 214.612656,301.182281 200.299500,291.203217 
	C188.697250,283.114166 176.923660,275.270721 165.328964,267.171021 
	C160.440277,263.755951 155.559219,260.247833 151.136093,256.269043 
	C145.529144,251.225342 146.019943,246.121338 152.173004,241.904327 
	C167.531128,231.378647 182.998764,221.012680 198.349915,210.476959 
	C213.978287,199.750992 229.210617,188.412628 245.189926,178.243668 
	C260.069183,168.774750 274.306854,158.400421 289.032928,148.728302 
	C302.364014,139.972412 315.389130,130.750473 328.540680,121.721634 
	C330.069366,120.672150 331.634796,119.763069 333.938904,119.648804 
M305.103912,220.817108 
	C306.983459,229.151123 306.873138,237.584534 306.423615,246.044495 
	C305.810730,257.577484 307.696503,269.114929 305.770233,280.684082 
	C303.190063,296.180725 299.538971,311.206024 290.263031,324.243347 
	C288.485413,326.741791 288.479126,328.332733 290.815033,330.551392 
	C298.952026,338.279907 308.860413,343.501282 317.805817,350.074188 
	C320.436768,352.007324 322.315308,351.312286 323.684875,348.325165 
	C328.499908,337.823029 330.899170,326.541687 333.252563,315.407990 
	C335.988281,302.465271 337.656006,289.271606 338.393280,275.962952 
	C339.378143,258.185760 339.416351,240.482910 337.768372,222.746933 
	C336.985382,214.319992 334.896545,206.140091 333.807922,197.780350 
	C331.955505,183.555466 328.157990,169.812714 323.083588,156.418518 
	C321.789276,153.002090 319.725708,150.857559 315.912689,153.512100 
	C307.332977,159.485123 298.782410,165.499908 290.217987,171.494873 
	C286.941620,173.788269 286.620087,176.367813 289.247711,179.445587 
	C299.232788,191.141068 303.170837,205.174133 305.103912,220.817108 
M251.707306,275.339905 
	C252.457993,284.496002 254.852722,293.249237 258.295288,301.725983 
	C260.431091,306.985077 262.913330,311.976807 267.984253,315.225800 
	C271.251892,317.319458 273.888153,317.196198 276.143768,313.960388 
	C280.837158,307.227417 284.451477,299.890503 286.468994,291.987579 
	C290.782532,275.090729 292.504730,257.975189 291.100830,240.442963 
	C290.043976,227.244720 286.804047,214.661667 282.953461,202.160767 
	C281.486023,197.396774 279.311340,192.825912 275.178253,189.589493 
	C270.860809,186.208694 268.294342,186.388412 265.002808,190.586685 
	C262.120117,194.263550 259.765808,198.221466 258.241180,202.731979 
	C254.343460,214.263092 251.608521,226.052216 250.181168,238.115982 
	C248.735626,250.333374 248.797958,262.539215 251.707306,275.339905 
M199.770401,267.699982 
	C209.267487,274.335083 218.736694,281.010742 228.286438,287.569153 
	C230.079453,288.800507 231.960236,291.301880 234.381683,289.558380 
	C236.429932,288.083649 235.944321,285.329163 235.766876,283.025085 
	C235.168976,275.261658 234.113586,267.575165 234.222916,259.711182 
	C234.425522,245.136536 234.968613,230.598877 236.225739,216.084183 
	C236.390900,214.177261 237.804718,211.924545 235.625275,210.629120 
	C233.477448,209.352478 231.587845,211.056213 229.715683,212.156509 
	C224.276001,215.353546 219.424530,219.392548 214.094299,222.779968 
	C202.619019,230.072571 191.472961,237.899094 180.389252,245.784119 
	C175.975754,248.923904 176.310059,250.839539 180.314087,254.382477 
	C186.078232,259.482819 193.347961,262.326630 199.770401,267.699982 
z"/>
</svg>