<?xml version="1.0" encoding="UTF-8"?>
<svg version="1.1" xmlns="http://www.w3.org/2000/svg" width="24" height="24" viewBox="0 0 500 500">
<path d="M0 0 C0 25.74 0 51.48 0 78 C-6.56033474 80.6241339 -12.28384453 82.77701594 -19.0625 84.1875 C-19.80048828 84.35185547 -20.53847656 84.51621094 -21.29882812 84.68554688 C-35.35683272 87.71814699 -49.31184204 87.75630478 -63.5 85.6875 C-64.32411377 85.56987305 -65.14822754 85.45224609 -65.99731445 85.33105469 C-71.32351693 84.48680814 -76.00863769 83.04348205 -81 81 C-76.38879798 75.45859223 -71.47060208 70.35347889 -66.34765625 65.28515625 C-65.52929794 64.47058456 -64.71093964 63.65601288 -63.86778259 62.8167572 C-60.39359333 59.3587956 -56.91346892 55.90682999 -53.43383789 52.4543457 C-50.88218577 49.92087695 -48.3336149 47.38433671 -45.78515625 44.84765625 C-45.00890396 44.0797023 -44.23265167 43.31174835 -43.43287659 42.52052307 C-39.33808994 38.44399274 -35.43731383 34.27718298 -31.6676178 29.89915466 C-28.98558412 26.8447397 -26.13230365 23.96993859 -23.26171875 21.09375 C-22.65487747 20.48358032 -22.04803619 19.87341064 -21.42280579 19.24475098 C-20.15613585 17.9730692 -18.88815591 16.70269097 -17.61889648 15.43359375 C-15.66947219 13.48195168 -13.72822376 11.5224033 -11.78710938 9.5625 C-10.54996751 8.32242929 -9.31235465 7.08282823 -8.07421875 5.84375 C-7.49403488 5.25638062 -6.91385101 4.66901123 -6.31608582 4.06384277 C-2.22886255 0 -2.22886255 0 0 0 Z " fill="currentColor" transform="translate(295,286)"/>
<path d="M0 0 C5.05426272 4.22874533 9.77436033 8.65173438 14.40234375 13.33984375 C15.08373917 14.02502579 15.76513458 14.71020782 16.46717834 15.41615295 C19.35167985 18.31683645 22.23015366 21.22347383 25.10913086 24.12963867 C27.22558547 26.26431997 29.34514626 28.39588328 31.46484375 30.52734375 C32.10155502 31.17235336 32.7382663 31.81736298 33.39427185 32.48191833 C37.122157 36.22974634 40.97424141 39.75127489 44.97413635 43.20567322 C48.52377564 46.34962264 51.86410662 49.70145255 55.21875 53.05078125 C56.33376892 54.16080757 56.33376892 54.16080757 57.47131348 55.29325867 C59.02547226 56.84239367 60.5783148 58.39285024 62.12988281 59.94458008 C64.51608307 62.32856816 66.91020259 64.70441471 69.3046875 67.08007812 C70.81819621 68.59065717 72.33123446 70.10170777 73.84375 71.61328125 C74.56236206 72.32470779 75.28097412 73.03613434 76.0213623 73.76911926 C76.67624634 74.42707993 77.33113037 75.08504059 78.00585938 75.76293945 C78.87567444 76.63061699 78.87567444 76.63061699 79.76306152 77.51582336 C81 79 81 79 81 81 C55.26 81 29.52 81 3 81 C0.39757856 74.49394641 -1.78015455 68.78887055 -3.1875 62.0625 C-3.35475586 61.28253662 -3.52201172 60.50257324 -3.69433594 59.69897461 C-4.91685638 53.81391738 -5.78179557 48.01485249 -6 42 C-6.03996094 41.18273437 -6.07992187 40.36546875 -6.12109375 39.5234375 C-6.44821333 26.7850162 -4.9660921 13.12491015 -1 1 C-0.67 0.67 -0.34 0.34 0 0 Z " fill="currentColor" transform="translate(133,214)"/>
<path d="M0 0 C0.77172089 38.00818446 1.15128392 75.98314055 1 114 C-2.83466327 112.41221603 -5.30522243 109.97333089 -8.2434082 107.07885742 C-8.75278427 106.57941116 -9.26216034 106.0799649 -9.78697205 105.56538391 C-11.46383509 103.91764415 -13.13289085 102.26228754 -14.80078125 100.60546875 C-15.9633088 99.45444849 -17.12584039 98.30343232 -18.28837585 97.15242004 C-20.72062934 94.74114848 -23.14821483 92.325275 -25.57348633 89.90698242 C-28.68519284 86.80627602 -31.81503146 83.72457169 -34.94950581 80.64690685 C-37.35554802 78.27805791 -39.74812137 75.89595172 -42.13716698 73.50997353 C-43.28570567 72.3674962 -44.43925427 71.23003286 -45.59780312 70.09770775 C-47.21417894 68.51535325 -48.81065118 66.91524949 -50.40356445 65.30932617 C-51.31749466 64.40268723 -52.23142487 63.49604828 -53.17304993 62.56193542 C-55 60 -55 60 -54.83807373 57.28552246 C-54.07453251 55.20325864 -53.28702356 53.30278804 -52.21484375 51.36328125 C-51.85326172 50.70859863 -51.49167969 50.05391602 -51.11914062 49.37939453 C-50.53422852 48.35628174 -50.53422852 48.35628174 -49.9375 47.3125 C-49.53337891 46.60206543 -49.12925781 45.89163086 -48.71289062 45.15966797 C-45.31173907 39.30612113 -41.4760133 34.08440346 -37 29 C-35.98873047 27.79150391 -35.98873047 27.79150391 -34.95703125 26.55859375 C-27.99506912 18.45532635 -11.66379445 0 0 0 Z " fill="currentColor" transform="translate(193,142)"/>
<path d="M0 0 C-1.58778397 3.83466327 -4.02666911 6.30522243 -6.92114258 9.2434082 C-7.42058884 9.75278427 -7.9200351 10.26216034 -8.43461609 10.78697205 C-10.08235585 12.46383509 -11.73771246 14.13289085 -13.39453125 15.80078125 C-14.54555151 16.9633088 -15.69656768 18.12584039 -16.84757996 19.28837585 C-19.25885152 21.72062934 -21.674725 24.14821483 -24.09301758 26.57348633 C-27.19372398 29.68519284 -30.27542831 32.81503146 -33.35309315 35.94950581 C-35.72194209 38.35554802 -38.10404828 40.74812137 -40.49002647 43.13716698 C-41.6325038 44.28570567 -42.76996714 45.43925427 -43.90229225 46.59780312 C-45.48464675 48.21417894 -47.08475051 49.81065118 -48.69067383 51.40356445 C-49.59731277 52.31749466 -50.50395172 53.23142487 -51.43806458 54.17304993 C-54 56 -54 56 -56.64994812 55.86930847 C-77.76345428 48.05920439 -96.12121564 30.51113559 -108.5 12.125 C-108.93376953 11.48224121 -109.36753906 10.83948242 -109.81445312 10.17724609 C-111.80410922 7.14086483 -113.25435889 4.54565869 -114 1 C-102.31256941 0.82834619 -90.62507033 0.66185949 -78.9375 0.5 C-78.0800909 0.48812275 -77.22268181 0.4762455 -76.33929062 0.46400833 C-50.8920962 0.11302933 -25.45006159 -0.16899111 0 0 Z " fill="currentColor" transform="translate(256,306)"/>
<path d="M0 0 C25.22002163 8.12181358 46.8026049 29.99514552 59 53 C59 53.66 59 54.32 59 55 C20.99005292 55.85334682 -16.98203557 56.13682335 -55 56 C-49.62806094 49.47121267 -43.68214926 43.55420138 -37.6953125 37.59765625 C-36.60507635 36.50928861 -35.51506331 35.42069743 -34.42526245 34.33189392 C-31.57688206 31.48730465 -28.72550996 28.64573319 -25.87347412 25.80480957 C-22.95548 22.89710335 -20.04036696 19.98651176 -17.125 17.07617188 C-11.41946016 11.38130919 -5.71075206 5.68963588 0 0 Z " fill="currentColor" transform="translate(299,138)"/>
<path d="M0 0 C6.52878733 5.37193906 12.44579862 11.31785074 18.40234375 17.3046875 C19.49071139 18.39492365 20.57930257 19.48493669 21.66810608 20.57473755 C24.51269535 23.42311794 27.35426681 26.27449004 30.19519043 29.12652588 C33.10289665 32.04452 36.01348824 34.95963304 38.92382812 37.875 C44.61869081 43.58053984 50.31036412 49.28924794 56 55 C51.17275153 69.83274839 41.56947898 81.77234834 31 93 C30.46117187 93.60328125 29.92234375 94.2065625 29.3671875 94.828125 C22.06302066 102.68285718 12.42721747 108.97446127 3 114 C2.34 114 1.68 114 1 114 C0.82766885 102.87508211 0.6612486 91.75008377 0.5 80.625 C0.48812275 79.80579071 0.4762455 78.98658142 0.46400833 78.14254761 C0.088186 52.09376561 -0.15239145 26.05190378 0 0 Z " fill="currentColor" transform="translate(306,244)"/>
<path d="M0 0 C26.07 0 52.14 0 79 0 C84.82312172 18.6339895 84.82312172 18.6339895 85.8125 26.625 C85.98676514 27.96498047 85.98676514 27.96498047 86.16455078 29.33203125 C87.52300766 40.42376162 87.17648515 50.82163273 85.6875 61.875 C85.57003418 62.75542969 85.45256836 63.63585937 85.33154297 64.54296875 C84.51321193 70.05285537 83.13209827 74.85190837 81 80 C76.17986337 75.98646856 71.6558492 71.78208662 67.25390625 67.31640625 C66.33169533 66.3885154 66.33169533 66.3885154 65.39085388 65.44187927 C62.79307814 62.82795177 60.20135106 60.20805816 57.60913086 57.58862305 C55.70118697 55.66242362 53.79011376 53.73936667 51.87890625 51.81640625 C51.30781631 51.23701797 50.73672638 50.6576297 50.14833069 50.0606842 C47.23195637 47.1270272 44.25852482 44.32152473 41.12475586 41.62036133 C36.58908672 37.69764893 32.35821605 33.50218553 28.125 29.2578125 C27.31506592 28.44883514 26.50513184 27.63985779 25.6706543 26.80636597 C23.97533427 25.11172181 22.28125778 23.41583277 20.58837891 21.71875 C17.98323862 19.10820384 15.37273954 16.50310068 12.76171875 13.8984375 C11.11165799 12.24771682 9.46190699 10.59668643 7.8125 8.9453125 C7.0282666 8.16310333 6.2440332 7.38089417 5.43603516 6.57498169 C4.72108887 5.85688324 4.00614258 5.13878479 3.26953125 4.39892578 C2.63635986 3.7649588 2.00318848 3.13099182 1.35083008 2.47781372 C0 1 0 1 0 0 Z " fill="currentColor" transform="translate(286,206)"/>
<path d="M0 0 C0 3 0 3 -2.36743164 5.69213867 C-3.45754349 6.77498064 -4.55574071 7.84971931 -5.66015625 8.91796875 C-6.24284775 9.49404373 -6.82553925 10.07011871 -7.42588806 10.66365051 C-9.29782055 12.51213877 -11.17954731 14.35024421 -13.0625 16.1875 C-14.91880289 18.00849081 -16.77287848 19.83166538 -18.62413025 21.65779114 C-19.77623412 22.79322111 -20.93142189 23.92553443 -22.09034729 25.05400085 C-24.94697734 27.85901035 -27.6608057 30.72339472 -30.26977539 33.76098633 C-34.69673184 38.88141308 -39.48395124 43.62726551 -44.2734375 48.40625 C-45.24767377 49.38116139 -46.22176169 50.35622106 -47.19570923 51.3314209 C-49.21951328 53.35668724 -51.24508505 55.38016358 -53.27197266 57.40234375 C-55.87475807 59.99937897 -58.47295579 62.60095087 -61.06989098 65.20383453 C-63.0720027 67.20954628 -65.07647303 69.21288713 -67.08168411 71.21549988 C-68.04173879 72.17488649 -69.00104846 73.1350192 -69.95960617 74.09590149 C-71.29015773 75.42897608 -72.62423443 76.75852945 -73.95849609 78.08789062 C-75.09597794 79.22417908 -75.09597794 79.22417908 -76.25643921 80.38342285 C-78 82 -78 82 -79 82 C-79 55.93 -79 29.86 -79 3 C-52.06924245 -4.92081105 -27.22744803 -8.00807295 0 0 Z " fill="currentColor" transform="translate(285,132)"/>
</svg>
