<svg width="24" height="24" viewBox="0 0 500 500" version="1.1" xmlns="http://www.w3.org/2000/svg" desc="Created with imagetracer.js version 1.2.6" ><path fill="currentColor" stroke="currentColor" stroke-width="1" opacity="1" d="M 144.5 147 L 354.5 147 Q 367.7 149.8 375 158.5 L 382 173.5 L 382 326.5 Q 379.3 339.3 370.5 346 Q 364.8 351.3 355.5 353 L 143.5 353 Q 130.7 350.3 124 341.5 L 118 330.5 L 117 325.5 L 117 174.5 Q 119.5 162 127.5 155 Q 134.1 149.1 144.5 147 Z M 218 175 Q 207 177 201 183 L 194 191 L 189 206 Q 187 231 199 243 L 226 264 L 236 275 L 239 282 Q 240 292 237 299 L 229 305 Q 221 306 218 303 Q 213 299 211 293 L 210 279 L 208 274 L 204 270 Q 197 269 194 271 L 189 278 Q 190 282 188 284 Q 188 305 198 316 Q 204 322 215 325 Q 238 328 249 318 Q 258 310 261 296 L 261 275 L 258 264 L 254 257 L 243 245 L 220 228 Q 213 223 211 213 L 211 208 L 214 200 L 222 195 Q 229 194 232 197 Q 236 200 237 206 L 237 212 L 239 220 L 246 224 L 254 223 L 259 217 L 259 203 Q 257 193 252 187 Q 243 173 218 175 Z M 305 175 L 291 181 Q 284 186 281 195 L 276 218 L 276 282 L 277 283 L 277 290 L 279 300 L 286 315 Q 292 323 304 325 L 324 325 L 335 321 L 345 309 L 349 296 L 350 284 L 351 283 L 351 217 L 350 216 L 349 204 L 341 186 Q 336 179 328 176 L 323 175 L 305 175 Z M 156 176 L 154 177 L 148 185 L 148 316 L 149 319 L 155 324 L 159 325 L 164 324 L 170 316 L 170 185 L 168 181 Q 166 174 156 176 Z " /><path fill="currentColor" stroke="currentColor" stroke-width="1" opacity="1" d="M 310.5 195 Q 320.2 193.8 323 199.5 L 326 206.5 L 327 217.5 L 328 218.5 L 328 280.5 L 327 281.5 L 326 294.5 L 322 303 Q 318.4 306.1 309.5 305 L 303 299.5 L 300 288.5 L 300 279.5 L 299 278.5 L 299 221.5 L 300 220.5 L 301 206.5 L 306.5 197 L 310.5 195 Z " /><path fill="currentColor" stroke="currentColor" stroke-width="1" opacity="0" d="M 0 0 L 500 0 L 500 500 L 0 500 L 0 0 Z M 145 147 Q 134 149 128 155 Q 120 162 117 175 L 117 326 L 118 331 L 124 342 Q 131 350 144 353 L 356 353 Q 365 351 371 346 Q 379 339 382 327 L 382 174 L 375 159 Q 368 150 355 147 L 145 147 Z " /><path fill="currentColor" stroke="currentColor" stroke-width="1" opacity="0" d="M 217.5 175 Q 242.9 172.6 252 186.5 Q 257.1 192.9 259 202.5 L 259 216.5 L 253.5 223 L 245.5 224 L 239 219.5 L 237 211.5 L 237 205.5 Q 235.8 199.8 231.5 197 Q 228.5 194 221.5 195 L 214 199.5 L 211 207.5 L 211 212.5 Q 212.8 222.8 219.5 228 L 242.5 245 L 254 256.5 L 258 263.5 L 261 274.5 L 261 295.5 Q 258.3 310.3 248.5 318 Q 237.7 327.7 214.5 325 Q 204 322.5 198 315.5 Q 187.9 304.6 188 283.5 Q 190.2 282.3 189 277.5 L 193.5 271 Q 196.7 268.7 203.5 270 L 208 273.5 L 210 278.5 L 211 292.5 Q 212.6 299.4 217.5 303 Q 220.8 306.2 228.5 305 L 237 298.5 Q 240.4 292.4 239 281.5 L 236 274.5 L 225.5 264 L 199 242.5 Q 186.9 231.1 189 205.5 L 194 190.5 L 200.5 183 Q 207.1 177.1 217.5 175 Z " /><path fill="currentColor" stroke="currentColor" stroke-width="1" opacity="0" d="M 304.5 175 L 322.5 175 L 327.5 176 Q 336.2 178.8 341 185.5 L 349 203.5 L 350 215.5 L 351 216.5 L 351 282.5 L 350 283.5 L 349 295.5 L 345 308.5 L 334.5 321 L 323.5 325 L 303.5 325 Q 291.7 322.8 286 314.5 L 279 299.5 L 277 289.5 L 277 282.5 L 276 281.5 L 276 217.5 L 281 194.5 Q 284.2 186.2 290.5 181 L 304.5 175 Z M 311 195 L 307 197 L 301 207 L 300 221 L 299 222 L 299 279 L 300 280 L 300 289 L 303 300 L 310 305 Q 318 306 322 303 L 326 295 L 327 282 L 328 281 L 328 219 L 327 218 L 326 207 L 323 200 Q 320 194 311 195 Z " /><path fill="currentColor" stroke="currentColor" stroke-width="1" opacity="0" d="M 155.5 176 Q 165.6 174.4 168 180.5 L 170 184.5 L 170 315.5 L 163.5 324 L 158.5 325 L 154.5 324 L 149 318.5 L 148 315.5 L 148 184.5 L 153.5 177 L 155.5 176 Z " /></svg>