<?xml version="1.0" standalone="no"?>
<!DOCTYPE svg PUBLIC "-//W3C//DTD SVG 20010904//EN"
 "http://www.w3.org/TR/2001/REC-SVG-20010904/DTD/svg10.dtd">
<svg version="1.0" xmlns="http://www.w3.org/2000/svg"
 width="24" height="24" viewBox="0 0 400.000000 400.000000"
 preserveAspectRatio="xMidYMid meet">

<g transform="translate(0.000000,400.000000) scale(0.100000,-0.100000)"
fill="currentColor" stroke="none">
<path d="M640 3081 c-111 -36 -210 -125 -252 -229 l-23 -57 0 -795 0 -795 31
-66 c58 -122 171 -207 305 -228 38 -7 258 -11 537 -11 l472 0 0 110 0 109
-503 3 -503 3 -42 28 c-23 15 -51 45 -62 67 -20 38 -20 57 -20 785 0 623 2
750 14 773 16 31 61 74 93 91 15 8 172 11 522 11 l501 0 0 110 0 110 -507 -1
c-457 0 -513 -2 -563 -18z"/>
<path d="M2282 2993 l3 -108 511 -5 511 -5 37 -29 c21 -16 47 -47 57 -70 18
-39 19 -80 19 -773 0 -493 -3 -741 -11 -760 -15 -40 -57 -82 -104 -104 -37
-17 -74 -19 -533 -19 l-493 0 3 -108 3 -107 470 -3 c266 -1 497 2 533 7 170
26 306 154 341 319 7 36 11 286 11 780 0 779 0 785 -51 884 -32 63 -111 135
-187 171 l-67 32 -528 3 -528 3 3 -108z"/>
</g>
</svg>
