<?xml version="1.0" standalone="no"?>
<!DOCTYPE svg PUBLIC "-//W3C//DTD SVG 20010904//EN"
 "http://www.w3.org/TR/2001/REC-SVG-20010904/DTD/svg10.dtd">
<svg version="1.0" xmlns="http://www.w3.org/2000/svg"
 width="24" height="24" viewBox="0 0 400.000000 400.000000"
 preserveAspectRatio="xMidYMid meet">

<g transform="translate(0.000000,400.000000) scale(0.100000,-0.100000)"
fill="currentColor" stroke="none">
<path d="M640 3085 c-115 -36 -216 -129 -261 -242 l-24 -58 0 -785 0 -785 34
-72 c59 -125 172 -211 308 -233 32 -6 271 -10 531 -10 l472 0 0 110 0 110
-488 0 -488 0 -50 25 c-28 14 -59 40 -74 62 l-25 37 -3 743 c-2 713 -2 746 17
787 10 24 36 56 57 72 l37 29 509 3 508 3 0 109 0 110 -507 -1 c-405 0 -517
-3 -553 -14z"/>
<path d="M2280 2990 l0 -110 494 0 c325 0 504 -4 523 -11 38 -14 83 -57 99
-96 12 -27 14 -166 14 -773 0 -723 0 -742 -20 -780 -11 -22 -39 -52 -62 -67
l-42 -28 -503 -3 -503 -3 0 -109 0 -110 473 0 c276 0 498 4 536 10 131 22 248
109 305 230 l31 65 3 774 c2 687 1 780 -14 830 -38 132 -141 236 -273 275 -47
14 -127 16 -558 16 l-503 0 0 -110z"/>
<path d="M1908 2235 c-61 -23 -106 -63 -134 -122 -83 -168 31 -353 216 -353
72 0 123 19 168 63 158 151 65 410 -151 423 -38 2 -76 -2 -99 -11z"/>
</g>
</svg>
