<?xml version="1.0" encoding="UTF-8"?>
<svg version="1.1" xmlns="http://www.w3.org/2000/svg" width="24" height="24" viewBox="0 0 500 500">
<path d="M0 0 C0.93672043 -0.0049649 1.87344086 -0.00992981 2.83854675 -0.01504517 C5.95706912 -0.02972139 9.07554047 -0.03648137 12.1940918 -0.04199219 C14.36109926 -0.04774359 16.52810671 -0.05350133 18.69511414 -0.05926514 C23.25247434 -0.06979364 27.80981683 -0.07562272 32.3671875 -0.07910156 C38.18296414 -0.08455963 43.99850348 -0.10852195 49.81420612 -0.13707352 C54.29860593 -0.15578947 58.78294993 -0.16091047 63.26738548 -0.16243744 C65.40940827 -0.1654494 67.55143042 -0.17342826 69.69341469 -0.18662262 C86.58365765 -0.28315018 102.15421999 0.16553661 115.1940918 12.18066406 C126.43294233 23.9779668 127.23150281 37.39924718 127.22607422 52.90820312 C127.22906994 54.30023793 127.23247342 55.69227191 127.23625183 57.08430481 C127.2450549 60.85104215 127.24742841 64.61775674 127.24806762 68.38450336 C127.24878033 70.74266354 127.25091884 73.100818 127.25356483 75.45897675 C127.26280671 83.69970565 127.26690126 91.94041843 127.26611328 100.18115234 C127.26551311 107.839955 127.27605602 115.49868708 127.29185694 123.1574719 C127.30497184 129.75136431 127.31029551 136.34523378 127.30965787 142.93913913 C127.309404 146.86913205 127.31219331 150.79906223 127.32283592 154.72904205 C127.3325834 158.42926567 127.33255099 162.12936742 127.32531929 165.82959557 C127.32379067 167.8181709 127.33207389 169.80674639 127.34075928 171.79530334 C127.29201202 185.83703023 125.30856353 198.6603795 115.58081055 209.47363281 C108.58486103 215.95437674 98.31265004 221.29312286 88.68951416 221.28138733 C87.81735764 221.28276199 86.94520111 221.28413666 86.0466156 221.28555298 C85.09787064 221.2819577 84.14912567 221.27836243 83.17163086 221.2746582 C82.16642899 221.27480423 81.16122711 221.27495026 80.12556458 221.27510071 C76.80333294 221.27440409 73.48115739 221.26662339 70.15893555 221.25878906 C67.85536734 221.25692399 65.55179873 221.25550051 63.24822998 221.25450134 C57.18523056 221.25068318 51.12225509 221.24085885 45.05926514 221.22979736 C38.87243982 221.21956819 32.68561063 221.21500049 26.4987793 221.20996094 C14.35944586 221.19923598 2.22013019 221.18216794 -9.91918945 221.16113281 C-9.94806457 217.51531594 -9.9659453 213.86952818 -9.98168945 210.22363281 C-9.99006836 209.18271484 -9.99844727 208.14179688 -10.00708008 207.06933594 C-10.01191406 205.58530273 -10.01191406 205.58530273 -10.0168457 204.07128906 C-10.02208252 203.15484619 -10.02731934 202.23840332 -10.03271484 201.29418945 C-9.91918945 199.16113281 -9.91918945 199.16113281 -8.91918945 198.16113281 C-5.84623758 198.05170725 -2.79493937 198.00689267 0.27880859 198.00341797 C1.24467392 197.99833725 2.21053925 197.99325653 3.20567322 197.98802185 C5.31135324 197.97729135 7.41704486 197.96868177 9.52274132 197.96190262 C12.85562035 197.95014915 16.18836771 197.93070424 19.52119446 197.90878296 C29.00025039 197.84705668 38.47929474 197.79314821 47.95849609 197.75976562 C53.74988297 197.73881742 59.54103324 197.70350749 65.33228493 197.65900803 C67.54062933 197.64484329 69.74901563 197.63612453 71.95740318 197.63295364 C75.05046686 197.62804391 78.14290358 197.60488198 81.23583984 197.57763672 C82.147771 197.58064285 83.05970215 197.58364899 83.99926758 197.58674622 C89.10738325 197.51994235 92.65896989 197.00197553 97.08081055 194.16113281 C101.75166412 189.23078737 103.32850909 184.79439139 103.34150696 178.0642395 C103.34859177 176.83901581 103.35567657 175.61379211 103.36297607 174.35144043 C103.36068246 173.00170861 103.35817279 171.65197715 103.35546875 170.30224609 C103.35981811 168.87445815 103.36500201 167.44667254 103.37095642 166.01889038 C103.38433456 162.14691276 103.38492635 158.27503282 103.38239312 154.40303659 C103.38132247 151.16754017 103.38620926 147.93206343 103.39099854 144.69657123 C103.40208992 137.06120826 103.40253341 129.42589448 103.39648438 121.79052734 C103.3904459 113.92147273 103.40275317 106.05259698 103.42405444 98.18357289 C103.44168606 91.42077437 103.44766929 84.6580327 103.4444167 77.89521205 C103.44260597 73.85909911 103.44521885 69.82311372 103.45913124 65.78702164 C103.4717302 61.98993046 103.46974611 58.19311745 103.45672035 54.39603043 C103.4543594 53.00571599 103.45707202 51.61538186 103.46534348 50.22509003 C103.51349156 41.5002686 103.46545958 35.27759785 97.76831055 28.34863281 C92.14032393 23.76771347 86.24266622 23.85884437 79.31176758 23.84228516 C78.34528793 23.83223953 77.37880829 23.82219391 76.38304138 23.81184387 C73.20157442 23.78105451 70.02019146 23.7639884 66.83862305 23.74707031 C64.62758667 23.72835527 62.4165574 23.7087816 60.20553589 23.68838501 C54.39579466 23.63709349 48.58603029 23.59745169 42.77618408 23.5602417 C36.84381396 23.52018347 30.91153989 23.46909939 24.97924805 23.41894531 C13.34650305 23.32222124 1.71370378 23.23780509 -9.91918945 23.16113281 C-9.94806457 19.51531594 -9.9659453 15.86952818 -9.98168945 12.22363281 C-9.99006836 11.18271484 -9.99844727 10.14179688 -10.00708008 9.06933594 C-10.01191406 7.58530273 -10.01191406 7.58530273 -10.0168457 6.07128906 C-10.02208252 5.15484619 -10.02731934 4.23840332 -10.03271484 3.29418945 C-9.76019327 -1.82628579 -3.92637336 0.00490996 0 0 Z " fill="currentColor" transform="translate(286.919189453125,138.8388671875)"/>
<path d="M0 0 C1.43267967 -0.00262848 1.43267967 -0.00262848 2.89430237 -0.00531006 C6.0385217 -0.00969728 9.18268443 -0.00680277 12.3269043 -0.00341797 C14.51311758 -0.00409163 16.69933079 -0.00506217 18.88554382 -0.00631714 C23.45918493 -0.00778963 28.03280648 -0.0056529 32.60644531 -0.00097656 C38.4824875 0.00473735 44.35848418 0.0014284 50.23452473 -0.00454903 C54.7442001 -0.00815235 59.25386458 -0.0070174 63.76354027 -0.00442123 C65.93138827 -0.0037522 68.09923726 -0.00457956 70.26708412 -0.00690079 C73.28615595 -0.00942538 76.30515256 -0.00559024 79.32421875 0 C80.22756958 -0.00202423 81.13092041 -0.00404846 82.06164551 -0.00613403 C88.22435713 0.01512861 88.22435713 0.01512861 89.33862305 1.12939453 C89.42562647 2.76412335 89.44563367 4.40253508 89.4362793 6.03955078 C89.43305664 7.02890625 89.42983398 8.01826172 89.42651367 9.03759766 C89.41813477 10.07851562 89.40975586 11.11943359 89.40112305 12.19189453 C89.39661133 13.23667969 89.39209961 14.28146484 89.38745117 15.35791016 C89.37562217 17.94846113 89.35913994 20.53890012 89.33862305 23.12939453 C88.11388779 23.13526077 86.88915253 23.14112701 85.62730408 23.14717102 C74.07718187 23.20441982 62.52724754 23.27719301 50.97731686 23.36510944 C45.03957925 23.40980923 39.10191019 23.44906645 33.1640625 23.47583008 C27.43216004 23.50186662 21.70052144 23.54227208 15.96878242 23.5925808 C13.78359831 23.60924703 11.59836855 23.62076281 9.41312981 23.62700844 C6.34886992 23.63665192 3.28528472 23.66471511 0.22119141 23.69702148 C-1.12964287 23.69486885 -1.12964287 23.69486885 -2.50776672 23.69267273 C-9.47449332 23.79633682 -14.37468865 24.84270623 -19.47387695 29.94189453 C-22.88099819 34.90655691 -23.91101264 39.25896146 -23.91534424 45.23265076 C-23.92098389 46.43400665 -23.92662354 47.63536255 -23.93243408 48.87312317 C-23.92838562 50.17770981 -23.92433716 51.48229645 -23.92016602 52.82641602 C-23.92287836 54.22479433 -23.92644066 55.62317122 -23.93078613 57.02154541 C-23.93988431 60.80876522 -23.93637629 64.59587575 -23.93002796 68.38309741 C-23.92495364 72.35298116 -23.92966349 76.32285574 -23.93280029 80.29273987 C-23.93643619 86.959744 -23.93165117 93.62670378 -23.92211914 100.29370117 C-23.91123977 107.99176384 -23.91475791 115.68972052 -23.92577195 123.38778061 C-23.93486089 130.00622443 -23.93612212 136.62463643 -23.93089461 143.24308449 C-23.92778317 147.19196023 -23.92734274 151.14078623 -23.93396759 155.08965874 C-23.93976366 158.80382091 -23.93570295 162.51784708 -23.92417908 166.23199463 C-23.92029185 168.23804032 -23.92619916 170.24409756 -23.93243408 172.25013733 C-23.92421286 184.25444068 -23.92421286 184.25444068 -17.66137695 194.12939453 C-12.37904784 197.50672233 -7.8804537 197.56588826 -1.81640625 197.54589844 C-0.35446587 197.55877647 -0.35446587 197.55877647 1.13700867 197.57191467 C4.34621451 197.59693307 7.55510994 197.60134901 10.7644043 197.60595703 C12.99546757 197.62026749 15.226522 197.63602459 17.45756531 197.65316772 C23.32120004 197.69499039 29.18477988 197.72001148 35.04852295 197.74066162 C44.45216624 197.77650778 53.85567447 197.83730042 63.25917625 197.89915085 C66.550332 197.9183024 69.8414515 197.92998649 73.13264465 197.94058228 C75.13530559 197.95078779 77.13796576 197.96114515 79.140625 197.97167969 C80.52370346 197.97324318 80.52370346 197.97324318 81.9347229 197.97483826 C88.22519287 198.01596435 88.22519287 198.01596435 89.33862305 199.12939453 C89.42562647 200.76412335 89.44563367 202.40253508 89.4362793 204.03955078 C89.43305664 205.02890625 89.42983398 206.01826172 89.42651367 207.03759766 C89.41813477 208.07851563 89.40975586 209.11943359 89.40112305 210.19189453 C89.39661133 211.23667969 89.39209961 212.28146484 89.38745117 213.35791016 C89.37562217 215.94846113 89.35913994 218.53890012 89.33862305 221.12939453 C76.21221611 221.19903609 63.08585344 221.25227772 49.95929909 221.28483105 C43.86350585 221.30045836 37.76783942 221.32164315 31.67211914 221.35571289 C25.78472021 221.38841077 19.89744293 221.4062696 14.00996017 221.41402626 C11.7685899 221.41955105 9.52722596 221.43033948 7.28590775 221.4465847 C4.13618044 221.46849737 0.98694999 221.47135565 -2.1628418 221.4699707 C-3.08066437 221.48075653 -3.99848694 221.49154236 -4.94412231 221.50265503 C-16.25219741 221.4491746 -26.58317068 217.78841416 -34.92700195 210.02001953 C-42.20384509 202.20415098 -46.89662016 193.4151548 -46.92880249 182.55952454 C-46.93733246 181.25456528 -46.94586243 179.94960602 -46.95465088 178.60510254 C-46.95395194 177.17089832 -46.95302892 175.73669419 -46.9519043 174.30249023 C-46.95789292 172.78252331 -46.96469924 171.26255941 -46.97225952 169.74259949 C-46.98989625 165.62249655 -46.99461402 161.50247675 -46.99589109 157.38233972 C-46.99731497 154.80423833 -47.00158913 152.22615792 -47.00688553 149.64806175 C-47.02538058 140.64223266 -47.03355711 131.63646269 -47.03198242 122.63061523 C-47.0307823 114.25546012 -47.05186057 105.88056325 -47.08346975 97.50547343 C-47.10968821 90.30013237 -47.12034734 83.09487533 -47.1190716 75.88948697 C-47.11856345 71.59276476 -47.1241644 67.29627196 -47.1454277 62.99959755 C-47.16490339 58.9537365 -47.16487149 54.90832143 -47.15039444 50.86244392 C-47.1483165 49.38511243 -47.15294617 47.90775234 -47.16511536 46.43046951 C-47.27375587 32.31753867 -44.2138682 21.75081464 -34.66137695 11.12939453 C-24.62423601 2.41245411 -12.90901094 -0.02925431 0 0 Z " fill="currentColor" transform="translate(131.661376953125,138.87060546875)"/>
<path d="M0 0 C26.41387921 -0.04010881 26.41387921 -0.04010881 37.63085938 -0.04882812 C45.29940478 -0.05481726 52.9679383 -0.06191942 60.63647461 -0.07543945 C66.81559441 -0.08626599 72.99470148 -0.09227634 79.17383003 -0.09487724 C81.5370561 -0.09673192 83.90028144 -0.10035332 86.26350212 -0.10573006 C89.56101896 -0.11293738 92.85848247 -0.11399107 96.15600586 -0.11352539 C97.14358887 -0.11712067 98.13117188 -0.12071594 99.14868164 -0.12442017 C100.04195663 -0.1230455 100.93523163 -0.12167084 101.85557556 -0.12025452 C102.63633422 -0.12117631 103.41709288 -0.1220981 104.22151089 -0.12304783 C106 0 106 0 107 1 C107.07271741 3.35313555 107.08370868 5.70833668 107.0625 8.0625 C107.05347656 9.35285156 107.04445313 10.64320313 107.03515625 11.97265625 C107.02355469 12.97167969 107.01195312 13.97070312 107 15 C105.42412109 15.74443359 105.42412109 15.74443359 103.81640625 16.50390625 C95.92842701 20.2923172 88.44733781 23.96659633 82 30 C81.25492187 30.69222656 80.50984375 31.38445312 79.7421875 32.09765625 C70.63623717 41.34251091 65.04339162 53.19046376 62.47265625 65.83984375 C62 68 62 68 61 69 C59.09756238 69.09391296 57.19161541 69.11743658 55.28686523 69.11352539 C54.04851929 69.11340454 52.81017334 69.11328369 51.53430176 69.11315918 C49.56632629 69.10548523 49.56632629 69.10548523 47.55859375 69.09765625 C46.36045044 69.09664917 45.16230713 69.09564209 43.92785645 69.09460449 C39.4310613 69.08935305 34.93427974 69.07539195 30.4375 69.0625 C20.393125 69.041875 10.34875 69.02125 0 69 C0 46.23 0 23.46 0 0 Z " fill="currentColor" transform="translate(122,172)"/>
<path d="M0 0 C34.98 0 69.96 0 106 0 C106 22.77 106 45.54 106 69 C85.87 69 65.74 69 45 69 C43 63 43 63 42.140625 60.17578125 C38.38315732 48.09585225 32.95680788 38.95680788 24 30 C23.42378906 29.42378906 22.84757812 28.84757812 22.25390625 28.25390625 C15.84912944 22.3406231 7.72166345 18.86083172 0 15 C0 10.05 0 5.1 0 0 Z " fill="currentColor" transform="translate(270,172)"/>
<path d="M0 0 C20.46 0 40.92 0 62 0 C63.32 4.95 64.64 9.9 66 15 C75.28364957 34.45995775 87.79147732 44.97199434 107 54 C107 58.62 107 63.24 107 68 C71.69 68 36.38 68 0 68 C0 45.56 0 23.12 0 0 Z " fill="currentColor" transform="translate(122,259)"/>
<path d="M0 0 C20.46 0 40.92 0 62 0 C62 22.44 62 44.88 62 68 C27.02 68 -7.96 68 -44 68 C-44 63.05 -44 58.1 -44 53 C-42.44152344 52.27296875 -42.44152344 52.27296875 -40.8515625 51.53125 C-22.93456818 42.99873325 -10.36035162 31.98784379 -3 13 C-2.01 8.71 -1.02 4.42 0 0 Z " fill="currentColor" transform="translate(314,259)"/>
<path d="M0 0 C7.52874406 5.06585259 12.52480181 11.7020385 14.609375 20.6015625 C16.18944703 30.30320476 13.43412201 39.04501509 7.8046875 46.95703125 C2.53733662 52.91985486 -4.42619411 56.538866 -12.33203125 57.3359375 C-23.40464402 57.46020925 -30.16191693 55.35983789 -38.27734375 47.79296875 C-45.33371032 40.44858722 -46.59264305 32.76941423 -46.4375 22.8984375 C-45.55032853 14.99310596 -41.99039884 8.52570774 -36.3125 3 C-25.29170087 -5.58572732 -12.23464363 -6.32272094 0 0 Z " fill="currentColor" transform="translate(265,223)"/>
<path d="M0 0 C0.66 0.33 1.32 0.66 2 1 C-1.63 4.63 -5.26 8.26 -9 12 C-9 7.8407692 -6.75316432 5.85455565 -4 3 C-1.6875 1.125 -1.6875 1.125 0 0 Z " fill="currentColor" transform="translate(102,146)"/>
</svg>
