<?xml version="1.0" standalone="no"?>
<!DOCTYPE svg PUBLIC "-//W3C//DTD SVG 20010904//EN"
 "http://www.w3.org/TR/2001/REC-SVG-20010904/DTD/svg10.dtd">
<svg version="1.0" xmlns="http://www.w3.org/2000/svg"
 width="24" height="24" viewBox="0 0 400.000000 400.000000"
 preserveAspectRatio="xMidYMid meet">

<g transform="translate(0.000000,400.000000) scale(0.100000,-0.100000)"
fill="currentColor" stroke="none">
<path d="M649 3086 c-149 -40 -266 -177 -289 -338 -13 -87 -12 -1405 0 -1493
27 -181 158 -316 335 -345 33 -6 273 -10 538 -10 l477 0 0 110 0 110 -492 0
c-457 0 -496 2 -533 19 -51 23 -91 70 -105 121 -7 26 -10 281 -8 768 l3 728
28 42 c15 23 45 51 67 62 38 19 57 20 540 20 l500 0 0 110 0 110 -507 -1
c-369 0 -520 -4 -554 -13z"/>
<path d="M2280 2990 l0 -110 501 0 c501 0 501 0 541 -22 24 -14 51 -41 66 -68
l27 -45 3 -723 c2 -483 -1 -736 -8 -762 -14 -51 -54 -98 -105 -121 -37 -17
-76 -19 -532 -19 l-493 0 0 -110 0 -110 473 0 c498 0 566 5 655 45 68 31 151
115 188 190 l29 60 0 805 0 805 -29 62 c-35 77 -122 163 -203 201 l-58 27
-527 3 -528 3 0 -111z"/>
<path d="M1915 2690 c-85 -10 -169 -36 -250 -78 -91 -47 -227 -181 -273 -269
-30 -57 -72 -165 -72 -185 0 -4 44 -8 98 -8 l97 0 33 71 c62 132 197 237 343
269 74 17 199 8 271 -18 121 -43 231 -144 285 -264 l27 -58 98 0 c54 0 98 4
98 8 0 5 -9 34 -20 66 -37 107 -82 178 -170 266 -68 69 -102 94 -170 127 -132
65 -263 89 -395 73z"/>
<path d="M1900 2321 c-93 -30 -164 -94 -207 -186 -75 -162 -1 -356 166 -433
79 -37 192 -38 271 -1 255 119 259 470 8 600 -32 17 -64 23 -128 26 -47 1 -96
-1 -110 -6z"/>
<path d="M1320 1835 c0 -2 11 -34 25 -71 37 -98 91 -181 165 -254 80 -78 167
-131 275 -167 69 -23 98 -27 205 -27 112 -1 134 2 213 28 139 45 248 120 331
226 47 60 108 174 124 233 l10 37 -101 -1 -102 0 -29 -62 c-63 -134 -216 -243
-372 -267 -206 -32 -418 80 -515 272 l-29 58 -100 0 c-55 0 -100 -2 -100 -5z"/>
</g>
</svg>
