<?xml version="1.0" encoding="UTF-8"?>
<svg version="1.1" xmlns="http://www.w3.org/2000/svg" width="24" height="24" viewBox="0 0 500 500">
<path d="M0 0 C3.22618733 2.0790985 4.8669302 3.80039529 7 7 C7.22705078 8.99291992 7.22705078 8.99291992 7.1953125 11.23046875 C7.18886719 12.03291016 7.18242187 12.83535156 7.17578125 13.66210938 C7.15064453 14.91217773 7.15064453 14.91217773 7.125 16.1875 C7.11597656 17.03248047 7.10695313 17.87746094 7.09765625 18.74804688 C7.07410703 20.83215243 7.03823647 22.91611217 7 25 C8.15113281 24.96519531 9.30226563 24.93039063 10.48828125 24.89453125 C14.90827803 24.89938946 18.91022304 25.62787247 23.1875 26.6875 C23.92726074 26.86829102 24.66702148 27.04908203 25.42919922 27.23535156 C55.00832345 34.7306876 79.21808642 52.85961477 95.12988281 78.84521484 C100.44251689 87.82654681 104.19286029 96.93044959 107 107 C107.3196875 108.08667969 107.639375 109.17335938 107.96875 110.29296875 C115.34520558 139.96954236 108.63925103 170.46652645 93.34375 196.28125 C85.18545552 209.52838163 73.27027191 221.83218644 60 230 C58.95328125 230.65613281 57.9065625 231.31226563 56.828125 231.98828125 C31.84179862 247.20686665 1.52169424 252.20919359 -27.02978516 245.49609375 C-55.51478318 238.32366302 -81.16494971 221.09556208 -96.83984375 195.96923828 C-112.15075015 169.98065011 -117.83074915 139.02829681 -110.83398438 109.39624023 C-105.81775124 90.22857161 -96.41156354 73.4884044 -83 59 C-81.90751953 57.78570312 -81.90751953 57.78570312 -80.79296875 56.546875 C-64.4386176 39.19123705 -38.97473339 26.30771273 -15 25 C-15.02320313 23.90300781 -15.04640625 22.80601562 -15.0703125 21.67578125 C-15.08907921 20.221361 -15.10727844 18.76693336 -15.125 17.3125 C-15.14175781 16.59126953 -15.15851563 15.87003906 -15.17578125 15.12695312 C-15.2138122 10.96256414 -14.97756009 7.69928199 -13 4 C-8.72668493 0.26084932 -5.70617855 -0.48357445 0 0 Z M-73 78 C-88.85065544 98.12538644 -95.34663609 122.74362895 -92.78173828 148.16308594 C-89.83562254 169.21564586 -80.66754079 186.15467084 -66 201 C-65.41734375 201.65484375 -64.8346875 202.3096875 -64.234375 202.984375 C-50.06046346 218.58999477 -26.51461907 226.88922536 -6 228 C-5.31035156 228.04125 -4.62070313 228.0825 -3.91015625 228.125 C19.01664408 228.80810764 42.0715476 220.42370108 59 205 C59.97710937 204.11570312 60.95421875 203.23140625 61.9609375 202.3203125 C78.19136722 187.13841315 88.83436997 166.21702995 90.1262207 143.81079102 C90.97055581 118.09743643 84.64464936 95.27462886 67.5625 75.6875 C66.06269511 74.10480434 64.54180743 72.54180743 63 71 C62.23042969 70.23042969 61.46085938 69.46085937 60.66796875 68.66796875 C51.247429 59.7344359 40.25373939 53.24051819 28 49 C26.33710938 48.41025391 26.33710938 48.41025391 24.640625 47.80859375 C-11.20698876 36.95599338 -48.84824734 50.32299152 -73 78 Z " fill="currentColor" transform="translate(251,126)"/>
<path d="M0 0 C2.82275936 1.25455972 4.46288541 2.28384722 6.3125 4.75 C7.31516165 8.03143813 7.35356638 10.58219169 7 14 C4.28149042 18.66566514 0.96551235 22.31742476 -2.83837891 26.08129883 C-3.41121109 26.65602936 -3.98404327 27.23075989 -4.57423401 27.82290649 C-6.45350495 29.70585793 -8.3398352 31.58155359 -10.2265625 33.45703125 C-11.53921385 34.76848958 -12.85149474 36.08031879 -14.16342163 37.39250183 C-16.90566784 40.13318811 -19.65122882 42.87049389 -22.39941406 45.60522461 C-25.92648364 49.11524632 -29.44687567 52.63187383 -32.96505165 56.15080738 C-35.67042713 58.85591145 -38.37839683 61.55840554 -41.0872612 64.26001549 C-42.38686496 65.5564328 -43.68586018 66.85346045 -44.98424149 68.15110207 C-46.79379408 69.95849419 -48.60659597 71.7625598 -50.42041016 73.56567383 C-50.958629 74.10434586 -51.49684784 74.64301788 -52.05137634 75.19801331 C-55.41996145 78.53748035 -57.38459397 80.16965812 -62.125 80.5 C-66.02041695 80.40312465 -67.82788079 79.74113748 -70.67236328 77.09057617 C-71.36267639 76.45211761 -72.0529895 75.81365906 -72.76422119 75.15585327 C-73.5020282 74.44442169 -74.23983521 73.73299011 -75 73 C-75.77599548 72.2523941 -76.55199097 71.50478821 -77.35150146 70.73452759 C-79.95783549 68.19064134 -82.54028643 65.62447111 -85.1171875 63.05078125 C-86.06496298 62.10622759 -87.0128098 61.1617455 -87.96072388 60.21733093 C-89.93065837 58.25333518 -91.89856567 56.28733406 -93.86523438 54.32006836 C-96.38191273 51.80328765 -98.90544842 49.29350299 -101.43072319 46.78535175 C-103.8515383 44.37831968 -106.26516104 41.96412139 -108.6796875 39.55078125 C-109.584841 38.65281326 -110.48999451 37.75484528 -111.4225769 36.82966614 C-112.25749664 35.99166977 -113.09241638 35.1536734 -113.95263672 34.2902832 C-114.68795624 33.5563887 -115.42327576 32.8224942 -116.18087769 32.06636047 C-118.50204003 29.42972737 -119.93020248 27.3214997 -120.1171875 23.78125 C-119.73489518 20.18030297 -119.37838124 17.60540999 -117.4375 14.5 C-114.12395328 12.46089433 -110.8493033 11.62328882 -107 12 C-100.72895097 14.37032841 -96.69856877 18.91951448 -92.1015625 23.60546875 C-91.26660248 24.44467361 -90.43164246 25.28387848 -89.57138062 26.14851379 C-86.9154424 28.82119719 -84.27014655 31.50413991 -81.625 34.1875 C-79.82230744 36.00524467 -78.01892959 37.82231 -76.21484375 39.63867188 C-71.8019239 44.0846059 -67.39768776 48.53900138 -63 53 C-57.35234879 48.33949071 -52.19223793 43.30074712 -47.04833412 38.09293365 C-45.58347756 36.61046293 -44.11491353 35.13175543 -42.64530945 33.6539917 C-38.4726477 29.45705765 -34.30584703 25.25433909 -30.14331055 21.04736328 C-27.5848399 18.46209536 -25.02150561 15.881733 -22.45512962 13.30431366 C-21.48242218 12.32541241 -20.5116145 11.34461951 -19.54277992 10.36188507 C-18.1910778 8.99093891 -16.83261832 7.62666522 -15.47387695 6.26269531 C-14.70445267 5.4858136 -13.93502838 4.70893188 -13.14228821 3.9085083 C-8.88696938 0.11755652 -5.70242694 -0.50021289 0 0 Z " fill="currentColor" transform="translate(309,202)"/>
</svg>
