<?xml version="1.0" encoding="UTF-8"?>
<svg version="1.1" xmlns="http://www.w3.org/2000/svg" width="24" height="24" viewBox="0 0 500 500">
<path d="M0 0 C1.39823954 -0.00417816 2.79647569 -0.00965832 4.19470561 -0.01631981 C8.01833644 -0.03073 11.8417509 -0.02654364 15.66539335 -0.019153 C19.7963839 -0.01441261 23.92732822 -0.02693889 28.05830383 -0.03717041 C36.14410284 -0.05434685 44.2298241 -0.0552008 52.31563662 -0.04995751 C58.88951593 -0.04591232 65.4633723 -0.0473635 72.03725052 -0.05270576 C73.44192867 -0.0538284 73.44192867 -0.0538284 74.87498415 -0.05497371 C76.77753031 -0.05650522 78.68007646 -0.05804357 80.5826226 -0.05958868 C98.41547074 -0.07330961 116.24827498 -0.06787895 134.08112212 -0.05640347 C150.38497538 -0.04647212 166.68871514 -0.05941079 182.99255089 -0.08333766 C199.74533459 -0.10773759 216.49806543 -0.11733429 233.25086653 -0.11068493 C242.65148381 -0.10719462 252.05201382 -0.10941232 261.45261765 -0.12693596 C269.45534284 -0.14166913 277.4579193 -0.14227883 285.46064161 -0.12486505 C289.54104696 -0.11636174 293.62118674 -0.11418897 297.70157814 -0.1295166 C301.44228969 -0.14339391 305.18250892 -0.13856203 308.92319222 -0.11927737 C310.90592152 -0.11375936 312.88867608 -0.12776349 314.87135732 -0.14263147 C325.52052796 -0.05533436 334.54241351 1.92715436 342.40322876 9.46580505 C348.59795442 16.39263465 351.36143925 23.67598791 351.3894043 33.0398407 C351.40219925 34.98672035 351.40219925 34.98672035 351.41525269 36.97293091 C351.41455379 38.39405835 351.4136308 39.8151857 351.4125061 41.23631287 C351.4184965 42.74657522 351.42530322 44.25683452 351.43286133 45.76708984 C351.45047809 49.85614297 351.45521492 53.9451123 351.4564929 58.03419971 C351.45791769 60.59337794 351.46219353 63.15253509 351.46748734 65.71170807 C351.48597443 74.65270329 351.49415974 83.59363901 351.49258423 92.53465271 C351.4913837 100.84791336 351.51247195 109.16091403 351.54407156 117.47410893 C351.57029007 124.62851525 351.58094917 131.78283696 351.57967341 138.93729091 C351.57916534 143.20269978 351.58476178 147.46787752 351.60602951 151.73323822 C351.62550584 155.7487449 351.62547289 159.76380223 351.61099625 163.77932549 C351.60891852 165.24536998 351.61354667 166.71144329 351.62571716 168.17743874 C351.71666972 179.90107489 350.4256081 189.92898109 342.04385376 198.66893005 C332.69333804 207.03117988 323.62093368 207.68421875 311.48446655 207.65510559 C310.08795497 207.65884481 308.69144547 207.66344742 307.29493928 207.66883624 C303.46683383 207.68104815 299.63881589 207.68080791 295.81069541 207.67844748 C291.67831312 207.67803886 287.54595872 207.68908285 283.41358948 207.69856262 C275.32084893 207.71516379 267.22813752 207.72067177 259.13538137 207.72178738 C252.5557372 207.72273829 245.97610262 207.72685077 239.39646149 207.73318863 C220.73411382 207.75079882 202.07178913 207.76002788 183.4094331 207.75852768 C182.40368938 207.75844777 181.39794566 207.75836786 180.36172485 207.75828552 C179.35475037 207.75820376 178.34777589 207.758122 177.31028703 207.75803776 C160.99337755 207.75722498 144.67656041 207.77636128 128.35967764 207.80456226 C111.5979224 207.83330307 94.83621217 207.84710188 78.07443166 207.8453747 C68.66707157 207.8447112 59.25980827 207.8501859 49.8524704 207.8717308 C41.84238474 207.88995838 33.83243975 207.89427701 25.82234231 207.88071196 C21.73789498 207.87419018 17.65371741 207.87403631 13.56929588 207.89141846 C9.82481247 207.90718958 6.08081179 207.90424488 2.33633986 207.88685019 C0.35152019 207.88234716 -1.6333147 207.89740588 -3.61807561 207.91332948 C-14.87406443 207.82694499 -23.8003549 205.4487604 -32.00302124 197.5243988 C-40.32438574 188.04151051 -40.17655391 175.84477428 -40.15267944 163.87864685 C-40.15703406 162.42882527 -40.16221969 160.97900599 -40.16816711 159.52919006 C-40.18148922 155.61372669 -40.18214329 151.69836024 -40.17960382 147.78287864 C-40.17852927 144.50291707 -40.18342989 141.22297473 -40.18820924 137.9430173 C-40.1992814 130.19807562 -40.19975505 122.45318245 -40.19369507 114.70823669 C-40.18765954 106.74490471 -40.19996083 98.78174959 -40.22126514 90.81844777 C-40.2389378 83.95782691 -40.24487352 77.09726205 -40.2416274 70.23661929 C-40.23982307 66.14954584 -40.24236481 62.06259852 -40.25634193 57.97554588 C-40.26900797 54.12832044 -40.26689425 50.2813686 -40.25393105 46.43414688 C-40.2515845 45.03141623 -40.25423 43.62866579 -40.26255417 42.22595787 C-40.32877802 30.18772348 -39.7460219 18.35599746 -30.87802124 9.38768005 C-21.66769638 0.85744247 -12.20083734 -0.05705039 0 0 Z M20.12197876 33.38768005 C14.17279885 45.37957349 11.29978607 59.1692418 7.66885376 71.98143005 C6.96141148 74.46207181 6.25349755 76.94257911 5.5451355 79.42295837 C4.06907348 84.59604664 2.59673019 89.770169 1.12783813 94.94529724 C-0.75508825 101.57904283 -2.64544484 108.21064729 -4.53810501 114.8416214 C-5.99675037 119.95221211 -7.45267701 125.06357555 -8.90801239 130.17510986 C-9.60458568 132.62165743 -10.30152855 135.0680998 -10.99884796 137.51443481 C-11.97008645 140.92407189 -12.9386405 144.33445944 -13.90634155 147.74510193 C-14.19411469 148.75398468 -14.48188782 149.76286743 -14.77838135 150.80232239 C-15.17348404 152.19802963 -15.17348404 152.19802963 -15.5765686 153.62193298 C-15.80513172 154.42636589 -16.03369484 155.2307988 -16.26918411 156.05960846 C-18.27288726 163.72136918 -18.71781886 169.52769159 -15.04598999 176.6884613 C-13.82356433 178.69227669 -13.82356433 178.69227669 -10.87802124 180.38768005 C-7.42032933 180.97110358 -7.42032933 180.97110358 -3.87802124 180.38768005 C0.24176843 176.39465315 1.58900913 171.7956484 3.18447876 166.45018005 C3.42746704 165.6838324 3.67045532 164.91748474 3.92080688 164.12791443 C6.13882462 156.92082761 7.52580815 149.83647622 9.12197876 142.38768005 C23.97197876 142.38768005 38.82197876 142.38768005 54.12197876 142.38768005 C55.44197876 147.99768005 56.76197876 153.60768005 58.12197876 159.38768005 C61.11955223 169.84234301 61.11955223 169.84234301 66.12197876 179.38768005 C69.35552015 181.00445075 71.54958411 180.86399934 75.12197876 180.38768005 C78.88004628 177.57330504 80.84778594 174.76586661 81.7661438 170.14988708 C82.81869986 159.02131835 77.56977356 146.58901145 74.40322876 135.95018005 C73.94339198 134.39069557 73.4840482 132.83106565 73.02516174 131.27130127 C71.81239836 127.15354163 70.59359194 123.03759712 69.37314987 118.9221077 C67.36512143 112.14708306 65.36595112 105.36943351 63.36553764 98.59215736 C62.87297158 96.92379941 62.38016026 95.25551385 61.88710213 93.58730125 C59.00449321 83.83361735 56.15302802 74.07326734 53.39932251 64.2822113 C53.14305084 63.3752652 52.88677917 62.46831909 52.6227417 61.53388977 C51.51899942 57.62511923 50.42642638 53.71400207 49.35635376 49.79588318 C47.10590543 41.7158128 44.51846643 35.16155524 38.87197876 28.88768005 C31.51946509 24.87721805 25.04788447 26.99089595 20.12197876 33.38768005 Z M91.12197876 32.38768005 C85.88153853 45.44265232 92.04366459 63.17098945 94.45401001 76.48143005 C94.89173689 78.92029434 95.32912418 81.3592196 95.76618958 83.79820251 C96.68068443 88.89245552 97.5999896 93.98581124 98.52261353 99.07859802 C99.69917414 105.57586898 100.86258256 112.07541481 102.02223682 118.57572174 C102.92163734 123.60761963 103.82861599 128.63812968 104.73776817 133.66827393 C105.16956111 136.0630001 105.59892076 138.45816645 106.02570534 140.85379028 C108.23540414 161.13938084 108.23540414 161.13938084 116.87197876 178.70018005 C121.2141479 180.95476788 123.26774625 181.08114184 128.12197876 180.38768005 C133.36403473 177.3589366 135.4006711 172.98017089 136.9906311 167.26560974 C137.22733521 166.12511169 137.46403931 164.98461365 137.70791626 163.80955505 C137.84605743 163.1533316 137.98419861 162.49710815 138.12652588 161.82099915 C138.59208334 159.5949437 139.04471761 157.36647221 139.49697876 155.13768005 C139.82864399 153.53392593 140.16068927 151.93025036 140.49307251 150.3266449 C146.24963247 122.39121233 151.65142396 94.38022953 157.12197876 66.38768005 C159.94144906 79.68018131 162.653325 92.99093453 165.27363968 106.32390213 C165.75393881 108.76649157 166.2355172 111.20882532 166.7175293 113.65107727 C166.87885031 114.46854872 167.04017132 115.28602016 167.20638084 116.12826347 C167.53495007 117.79315106 167.86354438 119.4580337 168.19216347 121.12291145 C169.02765606 125.35872248 169.85989105 129.59513327 170.68618774 133.83274841 C171.50127928 138.01166862 172.32502798 142.18880236 173.1544323 146.3649044 C173.46409993 147.9321551 173.7707019 149.50001526 174.073946 151.0685215 C176.50231345 165.97526189 176.50231345 165.97526189 183.30947876 179.07518005 C187.37658746 180.97316412 190.73288699 181.47332113 195.12197876 180.38768005 C200.69472765 177.09803974 201.98035725 171.06898139 203.51668262 165.18601322 C206.0970803 154.91059103 207.7943469 144.4356545 209.63369751 134.0087738 C210.05121426 131.66472142 210.46909308 129.32073351 210.88731384 126.97680664 C211.75795275 122.08854733 212.62388438 117.1994839 213.48648071 112.30979919 C214.58663333 106.07600826 215.69911914 99.84449264 216.81521893 93.6135397 C217.67918259 88.78173654 218.53627935 83.94873406 219.39139748 79.11535835 C219.79867376 76.81831196 220.20809119 74.52164403 220.61978722 72.22538567 C226.0228667 50.79720353 226.0228667 50.79720353 222.12197876 30.38768005 C219.65015539 27.65101847 218.31825592 27.41571965 214.62197876 26.88768005 C211.10416509 27.08612241 211.10416509 27.08612241 208.87197876 29.20018005 C203.3434711 39.26996187 202.57927687 51.93271704 200.80166626 63.1337738 C200.49503469 65.03670262 200.1878247 66.93953832 199.88006592 68.84228516 C199.07638435 73.81943281 198.27950388 78.7976437 197.48440552 83.77616882 C196.20677173 91.76817934 194.91840032 99.75846677 193.63058853 107.74884224 C193.18269682 110.53377654 192.73753526 113.31913639 192.29284668 116.10458374 C192.0196276 117.80759905 191.74636539 119.51060745 191.47305298 121.21360779 C191.35045105 121.9861087 191.22784912 122.75860962 191.10153198 123.55451965 C190.56682173 126.87543938 189.96855124 130.13301525 189.12197876 133.38768005 C188.89282776 132.21527771 188.66367676 131.04287537 188.42758179 129.83494568 C186.263011 118.76847939 184.08615453 107.70449128 181.89735031 96.64279175 C180.77254683 90.95624031 179.65203853 85.2689134 178.54141235 79.57957458 C177.4687714 74.08566805 176.38476216 68.59411537 175.29294586 63.10398865 C174.8790732 61.01251023 174.46925326 58.92022549 174.06362152 56.82713318 C173.49330591 53.88802529 172.90844364 50.95215516 172.32022095 48.0165863 C172.15693802 47.15702835 171.99365509 46.2974704 171.82542419 45.41186523 C170.54810722 39.152697 168.60721927 33.33315028 164.43447876 28.38768005 C160.66581445 26.75798738 157.14516087 26.64730279 153.12197876 27.38768005 C147.34686242 31.02386441 144.92410244 35.33694709 143.21194458 41.84883118 C142.96118164 43.11961517 142.7104187 44.39039917 142.45205688 45.69969177 C142.31013412 46.40638504 142.16821136 47.11307831 142.02198792 47.84118652 C141.55745412 50.16502129 141.10526193 52.49107175 140.65322876 54.81736755 C140.32913308 56.45212617 140.00429092 58.08673694 139.67874146 59.72120667 C138.82390089 64.02403917 137.97961648 68.32887838 137.13742065 72.63420105 C136.28870329 76.96220738 135.42931425 81.28809208 134.57119751 85.61424255 C132.88045402 94.15259409 131.19329609 102.69158472 129.53955078 111.23719025 C129.25522057 112.70148666 128.9689499 114.16540731 128.68096924 115.62899017 C128.25132054 117.81351284 127.82764804 119.9991218 127.40518188 122.18504333 C127.03447571 124.08517685 127.03447571 124.08517685 126.65628052 126.0236969 C126.20008426 128.89592497 126.00862989 131.49059849 126.12197876 134.38768005 C125.46197876 134.38768005 124.80197876 134.38768005 124.12197876 134.38768005 C124.08269257 133.73356644 124.04340637 133.07945282 124.00292969 132.40551758 C123.32751343 122.87294048 121.82490427 113.52437447 120.28604126 104.1025238 C120.00296335 102.35244414 119.7201207 100.60232641 119.4375 98.85217285 C118.84712207 95.20326349 118.2533169 91.55493255 117.65713501 87.90696716 C116.89799786 83.25963107 116.14841899 78.61081157 115.40152931 73.96149349 C114.82061013 70.35317738 114.2341143 66.74578393 113.64603806 63.13862801 C113.36757502 61.42591629 113.0909029 59.71291228 112.81615067 57.99960136 C111.23609893 41.11160297 111.23609893 41.11160297 103.12197876 27.38768005 C97.19189405 26.41730255 94.72266707 27.65534684 91.12197876 32.38768005 Z M244.12197876 32.38768005 C240.5333559 37.09001346 240.00084123 41.81736389 239.98153687 47.59794617 C239.97582672 48.626754 239.97011658 49.65556183 239.9642334 50.71554565 C239.96311554 51.83357071 239.96199768 52.95159576 239.96084595 54.10350037 C239.95588104 55.28946304 239.95091614 56.47542572 239.94580078 57.69732666 C239.93371706 60.94340496 239.92624044 64.18944731 239.92179012 67.43554401 C239.91885198 69.46703427 239.91474578 71.49851897 239.91028595 73.53000641 C239.89662221 79.89612623 239.88695028 86.26223325 239.88308406 92.62836671 C239.87860705 99.95839347 239.86107119 107.28823342 239.83208346 114.6182034 C239.81041282 120.29653336 239.8003769 125.97481096 239.79904294 131.65318179 C239.79799868 135.03880687 239.79217237 138.42425608 239.77422333 141.80983734 C239.75712425 145.5914618 239.75905291 149.37263393 239.76553345 153.15428162 C239.75631866 154.26420975 239.74710388 155.37413788 239.73760986 156.5177002 C239.77481353 163.46580514 239.93526696 171.20096826 245.12197876 176.38768005 C248.24436739 177.94887437 250.77649509 178.51474261 254.21939087 178.53294373 C255.04132431 178.53932358 255.86325775 178.54570343 256.71009827 178.55227661 C257.59754227 178.55338943 258.48498627 178.55450226 259.39932251 178.5556488 C260.78191002 178.5606414 260.78191002 178.5606414 262.19242859 178.56573486 C264.14851381 178.57080156 266.10460769 178.57314327 268.06069946 178.57298279 C271.01682375 178.5751488 273.97256216 178.59325 276.92861938 178.61228943 C298.61119786 179.01091212 298.61119786 179.01091212 317.37979126 169.3759613 C321.93998516 164.55494451 325.01934337 159.67345321 327.12197876 153.38768005 C327.34627563 152.73799255 327.57057251 152.08830505 327.80166626 151.41893005 C331.05006603 139.84928705 330.48010536 125.1610866 325.12197876 114.38768005 C321.05945251 108.69860155 316.31549387 103.71102963 310.12197876 100.38768005 C309.46197876 100.38768005 308.80197876 100.38768005 308.12197876 100.38768005 C308.12197876 99.72768005 308.12197876 99.06768005 308.12197876 98.38768005 C308.70979126 98.13115662 309.29760376 97.87463318 309.90322876 97.6103363 C316.63858125 93.89877763 320.84082029 86.52549848 323.12197876 79.38768005 C325.56973822 67.34601772 324.9455374 54.85323398 318.76651001 44.0087738 C314.30319511 37.70269618 308.83353192 32.11884505 301.12197876 30.38768005 C295.09989919 29.49265085 289.22898012 29.21391971 283.14541626 29.18455505 C282.21653595 29.17885498 281.28765564 29.17315491 280.33062744 29.1672821 C278.37925334 29.15788995 276.4278638 29.15132133 274.47647095 29.14744568 C271.49865347 29.13768554 268.52151135 29.1065858 265.54385376 29.07518005 C263.64021199 29.06865381 261.73656533 29.06340185 259.83291626 29.05955505 C258.9484079 29.04720825 258.06389954 29.03486145 257.15258789 29.0221405 C252.05846848 29.04045782 248.52309791 29.52905327 244.12197876 32.38768005 Z " fill="currentColor" transform="translate(93.87802124023438,145.61231994628906)"/>
<path d="M0 0 C1.74023438 -0.01836914 1.74023438 -0.01836914 3.515625 -0.03710938 C12.59710861 -0.05251913 21.31790762 0.00756004 28.5 6.1875 C33.31832203 12.8126928 34.15532267 19.20660604 33.5 27.1875 C32.3324086 32.63053636 30.55556726 37.24780609 26.5 41.1875 C20.66535493 44.59104296 16.24589805 45.31354194 9.546875 45.28515625 C8.88665344 45.2837413 8.22643188 45.28232635 7.54620361 45.28086853 C5.44742206 45.27529245 3.34874905 45.26274447 1.25 45.25 C-0.17708179 45.2449819 -1.60416525 45.24041954 -3.03125 45.23632812 C-6.52086832 45.22533088 -10.01042356 45.2080828 -13.5 45.1875 C-13.52527124 38.93954325 -13.54283344 32.69159959 -13.55493164 26.44360352 C-13.55997298 24.31631986 -13.56680591 22.18903969 -13.57543945 20.06176758 C-13.58751379 17.01122174 -13.59323014 13.96072155 -13.59765625 10.91015625 C-13.60281754 9.95287125 -13.60797882 8.99558624 -13.61329651 8.0092926 C-13.61337204 7.12845505 -13.61344757 6.24761749 -13.61352539 5.34008789 C-13.615746 4.56065323 -13.61796661 3.78121857 -13.62025452 2.97816467 C-13.27567703 -2.15280884 -3.77825554 0.00204451 0 0 Z " fill="currentColor" transform="translate(368.5,256.8125)"/>
<path d="M0 0 C4.12486211 -0.08813808 8.24947739 -0.14077078 12.375 -0.1875 C14.10943359 -0.22520508 14.10943359 -0.22520508 15.87890625 -0.26367188 C32.06361028 -0.40083038 32.06361028 -0.40083038 37.68139648 4.45263672 C43.24346472 10.93598089 42.6019114 17.89927574 42 26 C40.53765453 31.34868752 37.81801457 35.15299139 33 38 C26.15027406 40.19916402 19.71742036 40.26914774 12.5625 40.1875 C11.46228516 40.18685547 10.36207031 40.18621094 9.22851562 40.18554688 C1.14058618 40.14058618 1.14058618 40.14058618 0 39 C-0.08865208 36.1156618 -0.11521296 33.25537842 -0.09765625 30.37109375 C-0.0962413 29.50686295 -0.09482635 28.64263214 -0.09336853 27.75221252 C-0.08775239 24.98060708 -0.07519719 22.2090812 -0.0625 19.4375 C-0.05748708 17.5631522 -0.05292381 15.68880315 -0.04882812 13.81445312 C-0.03777772 9.20960456 -0.0205023 4.60481579 0 0 Z " fill="currentColor" transform="translate(355,197)"/>
<path d="M0 0 C2.00167298 3.00250947 2.69864521 5.0864459 3.60400391 8.54125977 C3.90416412 9.67576065 4.20432434 10.81026154 4.51358032 11.97914124 C4.83136444 13.20418869 5.14914856 14.42923615 5.4765625 15.69140625 C5.80667328 16.94759262 6.13678406 18.20377899 6.47689819 19.49803162 C7.1746101 22.15428361 7.86854912 24.81148215 8.55957031 27.46948242 C9.4462424 30.87964998 10.34003056 34.28790002 11.23635292 37.69554234 C12.09011931 40.94341656 12.93956757 44.19241204 13.7890625 47.44140625 C14.11089508 48.66847794 14.43272766 49.89554962 14.76431274 51.1598053 C15.05816864 52.29115402 15.35202454 53.42250275 15.65478516 54.58813477 C15.91522614 55.5872438 16.17566711 56.58635284 16.44400024 57.61573792 C17 60 17 60 17 62 C6.11 62 -4.78 62 -16 62 C-13.74950961 49.62230287 -13.74950961 49.62230287 -12.59545898 45.17724609 C-12.33856796 44.18026703 -12.08167694 43.18328796 -11.81700134 42.15609741 C-11.54610184 41.12231964 -11.27520233 40.08854187 -10.99609375 39.0234375 C-10.71274673 37.93157135 -10.42939972 36.8397052 -10.13746643 35.7147522 C-9.54355615 33.43025516 -8.94766133 31.1462732 -8.34985352 28.86279297 C-7.43132384 25.35138943 -6.52092709 21.83794505 -5.61132812 18.32421875 C-5.03172965 16.09883336 -4.45166846 13.87356841 -3.87109375 11.6484375 C-3.59817001 10.59441742 -3.32524628 9.54039734 -3.04405212 8.45443726 C-2.79031326 7.4889798 -2.5365744 6.52352234 -2.27514648 5.52880859 C-2.0524559 4.67596283 -1.82976532 3.82311707 -1.60032654 2.94442749 C-1 1 -1 1 0 0 Z " fill="currentColor" transform="translate(125,204)"/>
</svg>
