<svg version="1.1" id="Layer_1" xmlns="http://www.w3.org/2000/svg" xmlns:xlink="http://www.w3.org/1999/xlink" x="0px" y="0px"
	 width="24" viewBox="0 0 500 500" enable-background="new 0 0 500 500" xml:space="preserve">
<path fill="currentColor" opacity="1.000000" stroke="none" 
	d="
M282.000000,501.000000 
	C188.000015,501.000000 94.500046,501.000000 1.000050,501.000000 
	C1.000033,334.333405 1.000033,167.666794 1.000017,1.000140 
	C167.666565,1.000093 334.333130,1.000093 500.999756,1.000046 
	C500.999847,167.666519 500.999847,334.333038 500.999939,500.999786 
	C428.166656,501.000000 355.333344,501.000000 282.000000,501.000000 
M178.000198,152.778915 
	C178.000198,187.920166 177.986237,223.061432 178.007812,258.202667 
	C178.015305,270.401489 185.671036,277.987885 197.955597,277.993835 
	C232.930283,278.010803 267.904968,278.016113 302.879639,277.990753 
	C314.732269,277.982178 322.285797,270.601379 322.302155,258.885345 
	C322.351685,223.411102 322.346222,187.936691 322.305206,152.462418 
	C322.291840,140.895981 315.232269,133.717102 303.784119,133.699753 
	C268.143341,133.645752 232.502350,133.642441 196.861572,133.702194 
	C185.762253,133.720795 178.808380,140.542847 178.000198,152.778915 
M89.500160,367.834045 
	C127.310745,367.834045 165.121338,367.846283 202.931915,367.824707 
	C211.462982,367.819855 217.119232,363.525085 218.734802,355.628937 
	C220.051590,349.193115 216.694977,344.551483 212.407074,340.268402 
	C169.865402,297.774536 127.358192,255.246109 84.833221,212.735489 
	C83.658142,211.560837 82.458801,210.393311 81.158905,209.363708 
	C76.291054,205.508072 70.948860,204.812210 65.347198,207.478531 
	C59.866405,210.087311 57.402828,214.768585 57.017731,220.656128 
	C56.909241,222.314774 56.995796,223.986282 56.995781,225.651901 
	C56.995464,266.959534 56.994423,308.267151 56.996197,349.574768 
	C56.996742,362.331482 62.426964,367.832397 75.008720,367.833954 
	C79.505920,367.834503 84.003128,367.834045 89.500160,367.834045 
M443.324280,281.500214 
	C443.324249,261.834381 443.216949,242.167633 443.381744,222.503174 
	C443.440369,215.505753 441.161591,210.137741 434.620300,207.176636 
	C428.474091,204.394379 422.731110,205.911758 417.085266,211.556808 
	C373.834167,254.801834 330.614258,298.078125 287.307861,341.267731 
	C282.201660,346.360138 280.217957,351.987732 282.944183,358.765228 
	C285.740295,365.716370 291.444946,367.871185 298.529999,367.861145 
	C341.193390,367.800751 383.856873,367.835114 426.520325,367.828522 
	C437.757721,367.826782 443.308167,362.279480 443.318176,350.995087 
	C443.338409,328.163483 443.324280,305.331848 443.324280,281.500214 
z"/>
<path fill="currentColor" opacity="1.000000" stroke="none" 
	d="
M178.000275,152.317596 
	C178.808380,140.542847 185.762253,133.720795 196.861572,133.702194 
	C232.502350,133.642441 268.143341,133.645752 303.784119,133.699753 
	C315.232269,133.717102 322.291840,140.895981 322.305206,152.462418 
	C322.346222,187.936691 322.351685,223.411102 322.302155,258.885345 
	C322.285797,270.601379 314.732269,277.982178 302.879639,277.990753 
	C267.904968,278.016113 232.930283,278.010803 197.955597,277.993835 
	C185.671036,277.987885 178.015305,270.401489 178.007812,258.202667 
	C177.986237,223.061432 178.000198,187.920166 178.000275,152.317596 
z"/>
<path fill="currentColor" opacity="1.000000" stroke="none" 
	d="
M89.000244,367.834045 
	C84.003128,367.834045 79.505920,367.834503 75.008720,367.833954 
	C62.426964,367.832397 56.996742,362.331482 56.996197,349.574768 
	C56.994423,308.267151 56.995464,266.959534 56.995781,225.651901 
	C56.995796,223.986282 56.909241,222.314774 57.017731,220.656128 
	C57.402828,214.768585 59.866405,210.087311 65.347198,207.478531 
	C70.948860,204.812210 76.291054,205.508072 81.158905,209.363708 
	C82.458801,210.393311 83.658142,211.560837 84.833221,212.735489 
	C127.358192,255.246109 169.865402,297.774536 212.407074,340.268402 
	C216.694977,344.551483 220.051590,349.193115 218.734802,355.628937 
	C217.119232,363.525085 211.462982,367.819855 202.931915,367.824707 
	C165.121338,367.846283 127.310745,367.834045 89.000244,367.834045 
M142.196106,314.304077 
	C124.404358,296.509766 106.612610,278.715454 88.308487,260.408722 
	C88.308487,286.482574 88.308487,311.510864 88.308487,336.755737 
	C113.604256,336.755737 138.617096,336.755737 165.005173,336.755737 
	C157.038422,328.916595 149.867264,321.860321 142.196106,314.304077 
z"/>
<path fill="currentColor" opacity="1.000000" stroke="none" 
	d="
M443.324280,282.000244 
	C443.324280,305.331848 443.338409,328.163483 443.318176,350.995087 
	C443.308167,362.279480 437.757721,367.826782 426.520325,367.828522 
	C383.856873,367.835114 341.193390,367.800751 298.529999,367.861145 
	C291.444946,367.871185 285.740295,365.716370 282.944183,358.765228 
	C280.217957,351.987732 282.201660,346.360138 287.307861,341.267731 
	C330.614258,298.078125 373.834167,254.801834 417.085266,211.556808 
	C422.731110,205.911758 428.474091,204.394379 434.620300,207.176636 
	C441.161591,210.137741 443.440369,215.505753 443.381744,222.503174 
	C443.216949,242.167633 443.324249,261.834381 443.324280,282.000244 
M340.979279,331.475159 
	C339.430664,333.059753 337.882050,334.644348 335.805206,336.769409 
	C361.940582,336.769409 387.006317,336.769409 412.327087,336.769409 
	C412.327087,311.405243 412.327087,286.253876 412.327087,260.111511 
	C388.262756,284.181885 364.871521,307.578979 340.979279,331.475159 
z"/>
<path fill="currentColor" opacity="1.000000" stroke="none" 
	d="
M142.446106,314.554047 
	C149.867264,321.860321 157.038422,328.916595 165.005173,336.755737 
	C138.617096,336.755737 113.604256,336.755737 88.308487,336.755737 
	C88.308487,311.510864 88.308487,286.482574 88.308487,260.408722 
	C106.612610,278.715454 124.404358,296.509766 142.446106,314.554047 
z"/>
<path fill="currentColor" opacity="1.000000" stroke="none" 
	d="
M341.229767,331.225647 
	C364.871521,307.578979 388.262756,284.181885 412.327087,260.111511 
	C412.327087,286.253876 412.327087,311.405243 412.327087,336.769409 
	C387.006317,336.769409 361.940582,336.769409 335.805206,336.769409 
	C337.882050,334.644348 339.430664,333.059753 341.229767,331.225647 
z"/>
</svg>