<?xml version="1.0" encoding="UTF-8"?>
<svg version="1.1" xmlns="http://www.w3.org/2000/svg" width="24" height="24" viewBox="0 0 500 500">
<path d="M0 0 C2.4944015 2.20629434 4.9132094 4.47259023 7.3203125 6.7734375 C8.35091797 7.69189453 8.35091797 7.69189453 9.40234375 8.62890625 C18.74784711 17.27395768 25.2074939 28.82207051 29.3203125 40.7734375 C29.63871094 41.65644531 29.95710938 42.53945312 30.28515625 43.44921875 C35.14170451 59.27216632 32.59185091 76.1556252 28.3203125 91.7734375 C32.93565846 91.04469866 34.76366728 88.54457267 37.6484375 85.07421875 C42.04119867 79.02904041 43.84032726 72.40245595 45.31640625 65.15625 C46.6878111 61.90116456 48.08565027 61.11286101 51.3203125 59.7734375 C69.89060722 59.56908763 87.35153976 70.41805266 100.3203125 82.7734375 C116.10773962 100.25237467 120.38159551 120.14107148 119.47558594 143.11328125 C118.63606062 157.49609227 110.90627939 172.18403977 101.3203125 182.7734375 C100.75183594 183.4334375 100.18335938 184.0934375 99.59765625 184.7734375 C87.43636031 197.99336006 69.09257982 206.40832239 51.32648337 208.05009925 C48.32182491 208.15760099 45.33067678 208.17863432 42.32417297 208.16111755 C40.62372063 208.16919586 40.62372063 208.16919586 38.88891572 208.17743737 C35.12936193 208.19162676 31.37016474 208.18463538 27.6105957 208.17749023 C24.89899291 208.18155898 22.18740776 208.19006528 19.47581482 208.19828796 C12.89752425 208.21540898 6.31932949 208.21632974 -0.25897755 208.21107506 C-5.61226023 208.20701854 -10.9655148 208.20849443 -16.31879616 208.21382332 C-17.46568422 208.21494595 -17.46568422 208.21494595 -18.63574174 208.21609126 C-20.18950464 208.2176229 -21.74326754 208.21916125 -23.29703043 208.22070623 C-37.84098072 208.23440778 -52.38487709 208.22901077 -66.92882613 208.21752102 C-80.19813854 208.20759749 -93.46731133 208.22051823 -106.73660221 208.24445521 C-120.39896508 208.2689133 -134.06126311 208.27843726 -147.72364742 208.27180248 C-155.37894902 208.2683243 -163.03414342 208.27044872 -170.68942833 208.28805351 C-177.20819293 208.30286003 -183.72677489 208.30330208 -190.24553623 208.2859826 C-193.56340665 208.2775376 -196.88068794 208.27737513 -200.1985817 208.29063416 C-230.67344989 208.40304503 -255.60736748 202.50078102 -278.34375 181.19921875 C-295.31601665 163.57417261 -304.11610141 140.7139413 -303.97998047 116.33740234 C-303.38593099 92.25966696 -293.07002158 70.57217839 -276.33984375 53.3671875 C-258.4402763 36.42497131 -235.17932362 28.34041837 -210.81640625 28.55859375 C-188.9582911 29.39868841 -168.88876485 38.21834763 -152.6796875 52.7734375 C-151.97199219 53.38703125 -151.26429688 54.000625 -150.53515625 54.6328125 C-145.5860828 59.20118799 -142.18468976 64.36051944 -138.91162109 70.2019043 C-137.76988818 72.22622921 -137.76988818 72.22622921 -135.6796875 74.7734375 C-132.99527352 75.31812385 -132.99527352 75.31812385 -130.6796875 74.7734375 C-131.14739575 63.08073118 -136.95011664 52.31031909 -144.6796875 43.7734375 C-145.17726562 43.18433594 -145.67484375 42.59523438 -146.1875 41.98828125 C-150.80174039 36.89870454 -156.48389781 33.47333034 -162.27734375 29.88671875 C-171.47002383 24.19276484 -171.47002383 24.19276484 -172.6796875 21.7734375 C-173.30592306 15.3768886 -170.85941652 12.46607667 -167.06640625 7.57421875 C-148.61537278 -14.07781235 -120.04136907 -22.76839616 -92.50976562 -25.04345703 C-59.91275594 -27.15247681 -25.79765933 -21.43537291 0 0 Z " fill="currentColor" transform="translate(341.6796875,158.2265625)"/>
</svg>
