<?xml version="1.0" encoding="UTF-8"?>
<svg version="1.1" xmlns="http://www.w3.org/2000/svg" width="24" height="24" viewBox="0 0 500 500">
<path d="M0 0 C2.49807138 2.18534148 4.83753138 4.45075013 7.15234375 6.828125 C7.77496094 7.41851562 8.39757812 8.00890625 9.0390625 8.6171875 C21.16848279 20.99192191 25.65307781 38.28595041 25.50219727 55.06152344 C25.04696457 72.23467866 18.27874742 87.56929571 6.15234375 99.828125 C-9.12530748 113.37016648 -26.59249721 119.0325442 -46.72021484 117.98779297 C-63.73136722 116.71107807 -78.30872451 107.81383357 -89.97265625 95.765625 C-101.32472152 82.43328059 -106.89589305 65.26195817 -105.84765625 47.828125 C-104.17446455 30.80937515 -96.60729332 14.41280357 -83.84765625 2.828125 C-58.73142525 -15.87871372 -25.94808768 -19.79031104 0 0 Z " fill="currentColor" transform="translate(289.84765625,197.171875)"/>
<path d="M0 0 C4.23639989 2.54308889 7.53104555 5.84887223 10.96459961 9.36816406 C11.62057632 10.02838562 12.27655304 10.68860718 12.95240784 11.36883545 C15.02748005 13.46057982 17.09182249 15.56255424 19.15600586 17.66503906 C20.56871894 19.09281374 21.98212374 20.51990435 23.39624023 21.94628906 C26.84504592 25.42801182 30.28427372 28.91894315 33.71850586 32.41503906 C32.61363688 35.72964599 31.842275 36.38480012 29.21850586 38.54003906 C23.60638591 43.30122386 17.8182349 48.2654455 13.71850586 54.41503906 C9.36964313 52.74015268 6.52601833 49.51054328 3.30834961 46.27050781 C2.39527794 45.36030632 2.39527794 45.36030632 1.46376038 44.43171692 C0.17959703 43.14891242 -1.10205265 41.8635873 -2.38134766 40.57592773 C-4.33352257 38.61306795 -6.29610011 36.66107158 -8.26000977 34.70996094 C-9.50869822 33.45995047 -10.75676592 32.20931953 -12.00415039 30.95800781 C-12.58858414 30.37762253 -13.17301788 29.79723724 -13.77516174 29.19926453 C-18.46279902 24.45764477 -21.72748456 20.38693458 -22.34008789 13.46582031 C-22.22039138 9.27644228 -20.7214831 5.93350153 -17.84790039 2.90332031 C-12.32599788 -1.90252501 -6.7499838 -3.26024067 0 0 Z " fill="currentColor" transform="translate(170.281494140625,149.5849609375)"/>
<path d="M0 0 C4.62168234 3.87061521 9.03410833 7.87516089 13.30078125 12.1328125 C13.86323044 12.69193329 14.42567963 13.25105408 15.00517273 13.82711792 C16.18028439 14.99721189 17.35408684 16.16862209 18.52661133 17.34130859 C20.32029455 19.13278496 22.12185792 20.91608277 23.92382812 22.69921875 C25.07080091 23.84326055 26.21730231 24.98777518 27.36328125 26.1328125 C27.89971756 26.66206329 28.43615387 27.19131409 28.98884583 27.73660278 C33.18737911 31.96108518 35.28181812 34.89272341 35.375 40.875 C35.27633292 45.66035343 34.21849946 48.33448673 31 52 C27.06549779 55.45759285 23.42913147 56.42091718 18.16551208 56.34336853 C11.34687225 55.26218946 5.74686569 49.21397148 1.05859375 44.52734375 C0.4460524 43.92241592 -0.16648895 43.3174881 -0.79759216 42.69422913 C-2.07599651 41.42654214 -3.35054963 40.15496026 -4.62133789 38.87963867 C-6.5750665 36.92492718 -8.54930654 34.99262562 -10.52539062 33.06054688 C-11.76952501 31.82161242 -13.01241051 30.5814223 -14.25390625 29.33984375 C-14.84643692 28.76370834 -15.43896759 28.18757294 -16.04945374 27.59397888 C-17.67016602 25.94506836 -17.67016602 25.94506836 -20 23 C-19.55166821 19.36152172 -18.25199179 18.01921843 -15.4375 15.75 C-9.75566589 10.99810636 -4.34403564 6.02818484 0 0 Z " fill="currentColor" transform="translate(316,295)"/>
<path d="M0 0 C1.08053146 0.00424484 2.16106293 0.00848969 3.27433777 0.01286316 C6.71830381 0.02962746 10.16168019 0.06727649 13.60546875 0.10546875 C15.94335091 0.12051845 18.28124226 0.13420636 20.61914062 0.14648438 C26.34415878 0.17696903 32.06790536 0.2356969 37.79296875 0.29296875 C37.46296875 10.19296875 37.13296875 20.09296875 36.79296875 30.29296875 C30.53001696 30.38507098 24.26943844 30.46462861 18.00634766 30.51269531 C15.87833673 30.53274343 13.75038043 30.55998929 11.62255859 30.59472656 C8.55422442 30.64354423 5.48662202 30.66600601 2.41796875 30.68359375 C1.00342407 30.71456146 1.00342407 30.71456146 -0.43969727 30.74615479 C-6.5401585 30.74820192 -11.12226963 29.78041203 -16.20703125 26.29296875 C-19.75414827 22.6571738 -20.49281352 19.7266709 -20.70703125 14.79296875 C-20.51394926 9.89268107 -19.61816714 6.98068322 -16.20703125 3.29296875 C-11.36362806 -0.78770336 -5.99930972 -0.08880657 0 0 Z " fill="currentColor" transform="translate(133.20703125,234.70703125)"/>
<path d="M0 0 C3.63601621 2.95283989 5.62056786 5.22002308 6.99609375 9.76953125 C7.26977437 13.28791677 7.22854352 16.79319529 7.19140625 20.3203125 C7.18857635 21.33425583 7.18574646 22.34819916 7.18283081 23.39286804 C7.17166 26.62271052 7.14656086 29.85227296 7.12109375 33.08203125 C7.11105995 35.27538661 7.1019348 37.46874633 7.09375 39.66210938 C7.0734347 45.03144398 7.03427961 50.40017514 6.99609375 55.76953125 C-2.90390625 55.76953125 -12.80390625 55.76953125 -23.00390625 55.76953125 C-23.09591792 49.20347631 -23.1755042 42.63967316 -23.22363281 36.07348633 C-23.2437031 33.84163823 -23.27096558 31.60984243 -23.30566406 29.37817383 C-23.35438297 26.16344268 -23.37692141 22.94940898 -23.39453125 19.734375 C-23.41517639 18.74243637 -23.43582153 17.75049774 -23.45709229 16.72850037 C-23.45908816 10.51576432 -22.6840513 6.83078433 -19.00390625 1.76953125 C-13.3057697 -2.50407116 -6.35120495 -3.89986269 0 0 Z " fill="currentColor" transform="translate(258.00390625,114.23046875)"/>
<path d="M0 0 C9.9 0 19.8 0 30 0 C30.0920897 6.40535009 30.17165177 12.80838129 30.21972656 19.21386719 C30.23977764 21.39037888 30.26702571 23.56683714 30.30175781 25.74316406 C30.35056212 28.88099393 30.37303438 32.01810835 30.390625 35.15625 C30.41127014 36.12115356 30.43191528 37.08605713 30.45318604 38.0802002 C30.45520785 44.23918105 29.51555538 48.85738065 26 54 C22.65326303 56.92580717 18.82944551 57.86669626 14.5 58.5625 C9.92219083 57.82678067 6.40148486 56.17964889 3 53 C-0.62150706 47.48869748 -0.39167899 42.48936669 -0.29296875 36.1328125 C-0.28872391 35.09808807 -0.28447906 34.06336365 -0.28010559 32.99728394 C-0.26336996 29.70625319 -0.22572649 26.41584434 -0.1875 23.125 C-0.17244658 20.8880297 -0.15875933 18.65104977 -0.14648438 16.4140625 C-0.11604047 10.94227845 -0.05730778 5.47183187 0 0 Z " fill="currentColor" transform="translate(235,329)"/>
<path d="M0 0 C6.72594266 -0.1015993 13.45168668 -0.17154911 20.17822266 -0.21972656 C22.46540726 -0.23981517 24.75254068 -0.26709128 27.03955078 -0.30175781 C30.33118334 -0.35039558 33.62213557 -0.37299679 36.9140625 -0.390625 C37.93303619 -0.41127014 38.95200989 -0.43191528 40.00186157 -0.45318604 C46.02004701 -0.45507896 49.41546965 -0.00200601 54 4 C57.65290418 8.13354947 58.66482992 11.3778446 58.375 16.7578125 C57.63954626 21.155213 56.05200598 24.51532514 52.37939453 27.17254639 C46.65963386 30.23555806 41.78471899 30.53094884 35.375 30.390625 C34.38749756 30.38496521 33.39999512 30.37930542 32.38256836 30.37347412 C29.25453482 30.35123369 26.12768239 30.30106027 23 30.25 C20.86850622 30.22991907 18.73699434 30.2116711 16.60546875 30.1953125 C11.40324858 30.15140973 6.2017087 30.08462275 1 30 C0.06608713 26.5469827 -0.11524645 23.5102756 -0.09765625 19.921875 C-0.09443359 18.76171875 -0.09121094 17.6015625 -0.08789062 16.40625 C-0.07951172 15.1996875 -0.07113281 13.993125 -0.0625 12.75 C-0.05798828 11.52796875 -0.05347656 10.3059375 -0.04882812 9.046875 C-0.03704815 6.03120054 -0.02059853 3.01562502 0 0 Z " fill="currentColor" transform="translate(329,235)"/>
<path d="M0 0 C4.0497414 2.36296838 7.26235704 4.50814284 8.87890625 9.0546875 C9.63598539 14.76632257 9.52078918 18.52326104 6.18141174 23.36750793 C3.70473557 26.57563062 0.81049177 29.36526646 -2.07421875 32.203125 C-2.73444031 32.86051666 -3.39466187 33.51790833 -4.07489014 34.19522095 C-6.16894637 36.27815012 -8.2698744 38.35398708 -10.37109375 40.4296875 C-11.79863796 41.84719226 -13.22572622 43.26515636 -14.65234375 44.68359375 C-18.13667359 48.14596244 -21.62718043 51.60199094 -25.12109375 55.0546875 C-27.78585865 52.39245271 -30.44897115 49.72897079 -33.09375 47.046875 C-34.12367475 46.00778954 -35.1536229 44.96872727 -36.18359375 43.9296875 C-36.69986328 43.40503906 -37.21613281 42.88039062 -37.74804688 42.33984375 C-40.39794438 39.67306791 -43.03137381 37.2034136 -46.12109375 35.0546875 C-44.81864935 32.18858639 -43.43224288 30.11103539 -41.21948242 27.87841797 C-40.63514938 27.28455292 -40.05081635 26.69068787 -39.44877625 26.0788269 C-38.81857071 25.44953278 -38.18836517 24.82023865 -37.5390625 24.171875 C-36.88786942 23.51639679 -36.23667633 22.86091858 -35.56575012 22.18557739 C-34.18888289 20.8029748 -32.80939746 19.4229753 -31.42749023 18.04541016 C-29.31799082 15.9390705 -27.2221572 13.81976704 -25.12695312 11.69921875 C-23.78596773 10.35596024 -22.44419649 9.01348568 -21.1015625 7.671875 C-20.47742966 7.03853241 -19.85329681 6.40518982 -19.21025085 5.75265503 C-13.80385103 0.40296778 -7.78685247 -3.4703836 0 0 Z " fill="currentColor" transform="translate(342.12109375,148.9453125)"/>
<path d="M0 0 C3.06062189 3.0401947 6.00467163 6.10018544 8.8125 9.375 C12.5722997 13.65042937 16.63986136 17.35301443 21 21 C17.12938479 25.62168234 13.12483911 30.03410833 8.8671875 34.30078125 C8.02850632 35.14445503 8.02850632 35.14445503 7.17288208 36.00517273 C6.00278811 37.18028439 4.83137791 38.35408684 3.65869141 39.52661133 C1.86721504 41.32029455 0.08391723 43.12185792 -1.69921875 44.92382812 C-2.84326055 46.07080091 -3.98777518 47.21730231 -5.1328125 48.36328125 C-5.66206329 48.89971756 -6.19131409 49.43615387 -6.73660278 49.98884583 C-10.73065179 53.95836116 -13.6853249 56.27518114 -19.375 56.375 C-25.17085504 56.23224495 -28.24144645 53.71102507 -32.3125 49.75 C-34.43491129 46.29125568 -35.38285534 43.02346156 -35 39 C-32.87748187 32.65645378 -29.4613371 28.92731311 -24.70703125 24.31640625 C-24.00100266 23.61603745 -23.29497406 22.91566864 -22.56755066 22.19407654 C-20.32513259 19.97392957 -18.0691698 17.76814986 -15.8125 15.5625 C-14.28358722 14.05366401 -12.75558215 12.54390764 -11.22851562 11.03320312 C-7.49611827 7.34475008 -3.75252003 3.66797294 0 0 Z " fill="currentColor" transform="translate(183,295)"/>
<path d="M0 0 C0.66 0.33 1.32 0.66 2 1 C-2.29 5.29 -6.58 9.58 -11 14 C-11.66 13.67 -12.32 13.34 -13 13 C-11.58791833 11.39179588 -10.17013964 9.78859292 -8.75 8.1875 C-7.96109375 7.29417969 -7.1721875 6.40085938 -6.359375 5.48046875 C-4.34120555 3.35871775 -2.40083295 1.65745577 0 0 Z " fill="currentColor" transform="translate(210,197)"/>
<path d="M0 0 C0 3 0 3 -2.625 5.91796875 C-3.74249406 7.01550756 -4.86785643 8.10507895 -6 9.1875 C-6.57234375 9.74630859 -7.1446875 10.30511719 -7.734375 10.88085938 C-9.14962788 12.26073093 -10.57397155 13.63126734 -12 15 C-12.33 14.01 -12.66 13.02 -13 12 C-12.31292969 11.38511719 -11.62585938 10.77023437 -10.91796875 10.13671875 C-10.01691406 9.32847656 -9.11585938 8.52023437 -8.1875 7.6875 C-7.29417969 6.88699219 -6.40085937 6.08648437 -5.48046875 5.26171875 C-3.60073214 3.54775419 -1.77407253 1.82122396 0 0 Z " fill="currentColor" transform="translate(309,303)"/>
<path d="M0 0 C0.66 0.33 1.32 0.66 2 1 C-0.31 3.31 -2.62 5.62 -5 8 C-5 5 -5 5 -2.5 2.3125 C-1.675 1.549375 -0.85 0.78625 0 0 Z " fill="currentColor" transform="translate(120,236)"/>
<path d="M0 0 C0.66 0.33 1.32 0.66 2 1 C-0.31 3.31 -2.62 5.62 -5 8 C-5 5 -5 5 -2.5 2.3125 C-1.675 1.549375 -0.85 0.78625 0 0 Z " fill="currentColor" transform="translate(242,114)"/>
</svg>
