<?xml version="1.0" encoding="UTF-8"?>
<svg version="1.1" xmlns="http://www.w3.org/2000/svg" width="24" height="24" viewBox="0 0 500 500">
<path d="M0 0 C1.92005859 -0.0309375 1.92005859 -0.0309375 3.87890625 -0.0625 C5.72935547 -0.07023438 5.72935547 -0.07023438 7.6171875 -0.078125 C8.74495605 -0.0874707 9.87272461 -0.09681641 11.03466797 -0.10644531 C14.53778343 0.2976113 16.35441773 1.08988501 19.125 3.25 C20.49549209 5.40067561 21.15971054 6.67828767 21.00379944 9.24627686 C19.50139583 15.12584326 17.68552557 20.84993512 15.68359375 26.578125 C15.35585464 27.53015808 15.02811554 28.48219116 14.69044495 29.46307373 C13.65241147 32.4769996 12.60802216 35.48866454 11.5625 38.5 C10.51400953 41.5258159 9.46699501 44.55211212 8.42384338 47.57977295 C7.77714423 49.45626377 7.12732734 51.33168382 6.47398376 53.20587158 C6.1802034 54.05735779 5.88642303 54.90884399 5.58374023 55.78613281 C5.19640968 56.90124237 5.19640968 56.90124237 4.80125427 58.03887939 C4.57809036 58.76854919 4.35492645 59.49821899 4.125 60.25 C3.86803848 61.06394226 3.61107697 61.87788452 3.34632874 62.7164917 C2.92844849 65.34897817 2.92844849 65.34897817 4.20193481 68.02426147 C5.93979248 70.47432319 5.93979248 70.47432319 8.72994995 70.86904907 C9.77410065 70.86666229 10.81825134 70.86427551 11.89404297 70.86181641 C13.07892303 70.87177643 14.2638031 70.88173645 15.48458862 70.89199829 C17.40647507 70.87198257 17.40647507 70.87198257 19.3671875 70.8515625 C21.37732698 70.86379496 23.38746651 70.87604274 25.39760017 70.8891964 C28.21624161 70.901749 31.03463332 70.89205922 33.85327148 70.88201904 C38.77710103 70.86591986 43.70076126 70.86861971 48.62454224 70.89559937 C51.24550823 70.90771946 53.8665937 70.9049695 56.48751831 70.88589478 C57.6787027 70.88955048 58.86988708 70.89320618 60.09716797 70.89697266 C61.66578079 70.89100571 61.66578079 70.89100571 63.26608276 70.88491821 C66.57291469 71.3071984 68.45170872 72.28953165 71.125 74.25 C72.8622664 77.72453281 72.58429481 81.44728645 71.63494873 85.1734314 C70.92468564 87.28031916 70.14649965 89.34759038 69.3359375 91.41796875 C68.89292549 92.5899456 68.89292549 92.5899456 68.44096375 93.78559875 C67.47178975 96.34063953 66.48617776 98.88897948 65.5 101.4375 C64.82388803 103.2092921 64.14868744 104.98143222 63.47436523 106.75390625 C61.37492152 112.25921345 59.25161296 117.7551423 57.125 123.25 C56.4301049 125.04896351 55.73527979 126.84795405 55.04052734 128.64697266 C51.09434167 138.85804302 47.12193784 149.05869382 43.125 159.25 C43.77049805 159.26981934 44.41599609 159.28963867 45.08105469 159.31005859 C48.01277221 159.40546328 50.94379232 159.51507971 53.875 159.625 C54.89078125 159.6559375 55.9065625 159.686875 56.953125 159.71875 C58.42265625 159.77675781 58.42265625 159.77675781 59.921875 159.8359375 C60.82260742 159.8673584 61.72333984 159.8987793 62.65136719 159.93115234 C65.27311203 160.26909142 66.92680624 160.78903717 69.125 162.25 C70.31640625 165.265625 70.31640625 165.265625 70.125 169.25 C68.18684313 172.83319985 65.64887831 175.86520724 63.0625 179 C61.570086 180.87899525 60.07922914 182.75922822 58.58984375 184.640625 C57.83558105 185.58228516 57.08131836 186.52394531 56.30419922 187.49414062 C53.13542705 191.50143395 50.12884246 195.61856802 47.125 199.75 C45.99056651 201.28978734 44.85513568 202.82884034 43.71875 204.3671875 C41.82148272 206.93826055 39.9331497 209.51483683 38.05859375 212.10253906 C35.92945862 215.03831114 33.77897124 217.95742017 31.625 220.875 C30.63693359 222.25461914 30.63693359 222.25461914 29.62890625 223.66210938 C25.01586198 229.8552864 25.01586198 229.8552864 20.96875 231.6484375 C17.01183463 231.09403452 15.47492527 229.25581627 13.125 226.25 C12.30153076 225.22084473 12.30153076 225.22084473 11.46142578 224.17089844 C9.50523233 221.67835458 7.59298035 219.15650754 5.6875 216.625 C4.98592773 215.69856689 4.28435547 214.77213379 3.56152344 213.81762695 C-1.62591598 206.95110761 -6.75731054 200.0436921 -11.83642578 193.09667969 C-14.64337238 189.25951966 -17.47584743 185.4487387 -20.37890625 181.68359375 C-21.21470215 180.59365112 -21.21470215 180.59365112 -22.06738281 179.48168945 C-23.11531608 178.11902879 -24.17022052 176.76168878 -25.23339844 175.41088867 C-30.09557126 169.06903384 -30.09557126 169.06903384 -29.875 165.25 C-28.22681154 162.52103222 -27.61019182 161.66106133 -24.875 160.25 C-20.77315737 159.50113768 -16.72429414 159.45939138 -12.5625 159.4375 C-11.44037109 159.41236328 -10.31824219 159.38722656 -9.16210938 159.36132812 C-6.39938714 159.3025468 -3.63824608 159.2662002 -0.875 159.25 C1.13385609 154.11451816 3.12711433 148.9733498 5.10644531 143.82641602 C5.78127368 142.07804118 6.46026136 140.33126562 7.14355469 138.58618164 C8.12765121 136.07071044 9.09641403 133.54977805 10.0625 131.02734375 C10.36873291 130.25414291 10.67496582 129.48094208 10.99047852 128.68431091 C12.73785396 124.06954335 13.64085111 120.26561712 13.125 115.25 C10.51355723 112.63855723 9.3991173 112.99447017 5.76074219 112.97875977 C4.07824371 112.96347984 4.07824371 112.96347984 2.36175537 112.94789124 C1.14409485 112.94575119 -0.07356567 112.94361115 -1.328125 112.94140625 C-3.8919293 112.91624069 -6.45573133 112.89084275 -9.01953125 112.86523438 C-13.07272263 112.83447474 -17.12593583 112.81229244 -21.17919922 112.79370117 C-25.08318751 112.77471528 -28.9868077 112.73259112 -32.890625 112.69140625 C-34.1001886 112.69129044 -35.3097522 112.69117462 -36.55596924 112.6910553 C-47.86798456 112.55802889 -47.86798456 112.55802889 -51.875 109.25 C-54.21363799 104.77633588 -54.0668401 102.07610806 -52.68774414 97.27246094 C-52.03205957 95.33614854 -51.35469938 93.40709125 -50.66015625 91.484375 C-50.29817642 90.43328552 -49.93619659 89.38219604 -49.56324768 88.29925537 C-48.37346411 84.85929917 -47.15606944 81.42985354 -45.9375 78 C-45.10886943 75.6262246 -44.28189807 73.25186939 -43.45654297 70.87695312 C-41.76985134 66.03226335 -40.07221631 61.1916085 -38.36669922 56.35351562 C-36.02651923 49.70291772 -33.74236046 43.03429019 -31.47265625 36.359375 C-30.46836146 33.42099787 -29.46264535 30.48311314 -28.45602417 27.54553223 C-27.82198711 25.69152991 -27.19054953 23.83663646 -26.5617981 21.98083496 C-25.68903078 19.41080779 -24.8033269 16.8456075 -23.9140625 14.28125 C-23.66370743 13.53470154 -23.41335236 12.78815308 -23.15541077 12.01898193 C-21.66602257 7.77341082 -20.01897656 4.49311442 -16.875 1.25 C-11.47062705 -0.55145765 -5.65531834 0.02264392 0 0 Z " fill="currentColor" transform="translate(170.875,133.75)"/>
<path d="M0 0 C3.63 0 7.26 0 11 0 C13.41026686 6.16680891 15.37435632 12.38385108 17.1875 18.75 C17.46013672 19.68199219 17.73277344 20.61398438 18.01367188 21.57421875 C18.27083984 22.47269531 18.52800781 23.37117188 18.79296875 24.296875 C19.0252417 25.10479492 19.25751465 25.91271484 19.49682617 26.74511719 C20 29 20 29 20 33 C20.66 33 21.32 33 22 33 C22.10304443 32.41226807 22.20608887 31.82453613 22.31225586 31.21899414 C23.57443642 24.44429797 25.43243597 17.98579995 27.5625 11.4375 C27.87896484 10.44169922 28.19542969 9.44589844 28.52148438 8.41992188 C30.86293543 1.13706457 30.86293543 1.13706457 32 0 C33.98 0 35.96 0 38 0 C41.3 10.56 44.6 21.12 48 32 C49.093125 28.57625 50.18625 25.1525 51.3125 21.625 C51.65063721 20.56748535 51.98877441 19.5099707 52.3371582 18.42041016 C54.28833229 12.29821095 56.17014697 6.15956682 58 0 C61.63 0 65.26 0 69 0 C68.39841634 6.79204101 66.68452543 12.93372603 64.65625 19.4296875 C64.32709595 20.50123077 63.99794189 21.57277405 63.65881348 22.67678833 C62.96590137 24.9283831 62.26984007 27.17901089 61.57080078 29.42871094 C60.49759143 32.8827518 59.4335062 36.33949957 58.37109375 39.796875 C57.69583604 41.98714064 57.02007265 44.17725046 56.34375 46.3671875 C56.02394165 47.40358368 55.7041333 48.43997986 55.37463379 49.50778198 C55.07762573 50.46282623 54.78061768 51.41787048 54.47460938 52.40185547 C54.08275452 53.66471878 54.08275452 53.66471878 53.6829834 54.95309448 C53 57 53 57 52 59 C50.02 59 48.04 59 46 59 C42.37 48.44 38.74 37.88 35 27 C32.85421067 30.218684 31.96490898 32.9433692 30.8359375 36.63671875 C30.63900299 37.27615921 30.44206848 37.91559967 30.23916626 38.57441711 C29.61317454 40.61073319 28.99400786 42.64905137 28.375 44.6875 C27.95096969 46.07110118 27.52649559 47.45456644 27.1015625 48.83789062 C26.06256005 52.22370017 25.02966715 55.61133821 24 59 C22.02 59 20.04 59 18 59 C15.27951493 53.04604493 13.33174068 46.95998902 11.42578125 40.703125 C11.09708542 39.63253845 10.76838959 38.5619519 10.42973328 37.45892334 C9.73954975 35.2070947 9.05133803 32.95466087 8.36499023 30.70166016 C7.31123011 27.24583536 6.24879391 23.79275994 5.18554688 20.33984375 C4.5151032 18.14859708 3.84516361 15.95719611 3.17578125 13.765625 C2.85708572 12.73125305 2.5383902 11.6968811 2.21003723 10.63116455 C1.91940903 9.67296814 1.62878082 8.71477173 1.3293457 7.72753906 C1.07192093 6.88483459 0.81449615 6.04213013 0.54927063 5.17388916 C0 3 0 3 0 0 Z " fill="currentColor" transform="translate(270,233)"/>
<path d="M0 0 C25 0 25 0 31 3 C34.40124883 6.67702577 35.83832317 9.28622563 36.3125 14.3125 C35.87386855 19.48835112 33.60392626 22.39607374 30 26 C30.928125 26.556875 31.85625 27.11375 32.8125 27.6875 C36.07857958 30.05700871 37.26339227 31.43484648 39 35 C39.82118478 40.49675939 39.72530457 45.43780554 37.375 50.5 C33.99030059 54.06284148 30.6697782 56.44340727 26 58 C17.42 58 8.84 58 0 58 C0 38.86 0 19.72 0 0 Z M11 8 C11 12.95 11 17.9 11 23 C17.90033499 22.95249254 17.90033499 22.95249254 23.6875 19.8125 C25.20995337 17.04511135 25.20995337 17.04511135 25.0625 13.875 C24.21695081 10.9078702 24.21695081 10.9078702 21.9375 9.125 C18.06136357 7.64052222 15.1351269 7.78973931 11 8 Z M11 30 C11 36.6 11 43.2 11 50 C17.81104786 50.97300684 19.36001195 51.14537795 25 48 C27.77764621 45.49115826 27.9752382 44.27733219 28.3125 40.5 C28.02719819 37.30461976 27.81740915 35.58263406 26 33 C20.87569085 29.5837939 17.31223291 30 11 30 Z " fill="currentColor" transform="translate(344,233)"/>
</svg>
