<?xml version="1.0" standalone="no"?>
<!DOCTYPE svg PUBLIC "-//W3C//DTD SVG 20010904//EN"
 "http://www.w3.org/TR/2001/REC-SVG-20010904/DTD/svg10.dtd">
<svg version="1.0" xmlns="http://www.w3.org/2000/svg"
 width="24" height="24" viewBox="0 0 500.000000 500.000000"
 preserveAspectRatio="xMidYMid meet">

<g transform="translate(0.000000,500.000000) scale(0.100000,-0.100000)"
fill="currentColor" stroke="none">
<path d="M2357 3690 c-58 -10 -103 -36 -131 -73 -19 -26 -21 -44 -24 -206 -3
-172 -4 -179 -25 -188 -92 -42 -209 -181 -259 -308 -27 -69 -32 -96 -36 -195
-8 -199 45 -338 177 -470 151 -150 347 -212 551 -176 236 42 435 225 495 456
27 101 23 245 -9 346 -41 130 -127 248 -231 320 l-55 37 0 151 c0 83 -5 169
-11 190 -13 48 -57 92 -107 106 -49 15 -274 21 -335 10z m281 -106 l42 -5 0
-65 0 -64 -185 0 -185 0 0 64 0 65 43 5 c90 12 186 12 285 0z"/>
<path d="M1146 2749 c-29 -34 -33 -67 -12 -108 25 -48 46 -51 334 -51 l267 0
0 95 0 95 -282 0 -281 0 -26 -31z"/>
<path d="M3267 2688 l1 -93 264 -3 c286 -3 309 1 333 49 22 41 18 74 -11 108
l-26 31 -281 0 -282 0 2 -92z"/>
<path d="M1550 2259 c-124 -71 -233 -138 -242 -150 -26 -31 -23 -82 8 -118 46
-55 71 -48 328 98 125 71 230 131 233 134 2 3 -14 36 -36 74 -23 38 -41 75
-41 81 0 7 -6 12 -12 11 -7 -1 -114 -59 -238 -130z"/>
<path d="M3189 2347 c-12 -23 -35 -61 -50 -83 l-29 -42 88 -50 c48 -27 154
-89 236 -136 92 -53 161 -86 178 -86 66 0 109 61 88 125 -12 38 -5 33 -367
243 l-123 71 -21 -42z"/>
<path d="M1977 1978 c-171 -293 -217 -377 -217 -397 0 -83 110 -132 163 -73 8
9 74 118 146 242 93 160 127 227 118 233 -43 27 -147 87 -151 87 -3 0 -29 -42
-59 -92z"/>
<path d="M2890 2030 c-36 -22 -71 -43 -79 -48 -11 -6 15 -58 114 -232 70 -124
138 -235 152 -247 38 -36 107 -27 140 16 32 42 17 81 -119 320 -73 127 -135
231 -138 231 -3 -1 -34 -19 -70 -40z"/>
<path d="M2400 1647 l0 -279 29 -29 c22 -21 39 -29 66 -29 27 0 44 8 66 29
l29 29 0 276 0 275 -95 3 -95 3 0 -278z"/>
</g>
</svg>
