<?xml version="1.0" standalone="no"?>
<!DOCTYPE svg PUBLIC "-//W3C//DTD SVG 20010904//EN"
 "http://www.w3.org/TR/2001/REC-SVG-20010904/DTD/svg10.dtd">
<svg version="1.0" xmlns="http://www.w3.org/2000/svg"
 width="24" height="24" viewBox="0 0 500.000000 500.000000"
 preserveAspectRatio="xMidYMid meet">

<g transform="translate(0.000000,500.000000) scale(0.100000,-0.100000)"
fill="currentColor" stroke="none">
<path d="M1629 3541 l-29 -29 0 -1002 c0 -1064 -1 -1046 45 -1064 9 -3 134 -6
277 -6 l260 0 29 29 29 29 0 275 0 275 36 53 c55 81 74 99 106 99 65 0 55 20
233 -465 61 -167 103 -266 116 -277 19 -16 49 -18 313 -18 213 1 295 4 307 13
22 17 39 51 39 80 0 14 -124 305 -275 648 -163 371 -275 636 -275 654 0 23 46
92 210 314 195 264 210 288 210 327 0 26 -7 51 -19 65 -19 24 -21 24 -248 27
-132 2 -240 -1 -255 -7 -18 -7 -71 -82 -193 -276 -93 -147 -179 -273 -191
-281 -27 -18 -65 -10 -91 18 -16 18 -19 46 -23 260 l-5 240 -28 24 -28 24
-260 0 -261 0 -29 -29z"/>
</g>
</svg>
