<?xml version="1.0" standalone="no"?>
<!DOCTYPE svg PUBLIC "-//W3C//DTD SVG 20010904//EN"
 "http://www.w3.org/TR/2001/REC-SVG-20010904/DTD/svg10.dtd">
<svg version="1.0" xmlns="http://www.w3.org/2000/svg"
 width="24" height="24" viewBox="0 0 500.000000 500.000000"
 preserveAspectRatio="xMidYMid meet">

<g transform="translate(0.000000,500.000000) scale(0.100000,-0.100000)"
fill="currentColor" stroke="none">
<path d="M1008 4004 c-42 -22 -62 -69 -61 -139 2 -91 275 -1299 308 -1365 43
-85 128 -111 215 -67 31 15 52 35 68 65 21 37 116 402 253 972 24 102 34 130
40 115 5 -11 61 -234 124 -495 127 -528 136 -561 165 -608 23 -37 88 -71 135
-72 54 0 117 40 143 92 16 30 70 255 162 670 76 342 141 646 145 675 5 40 2
61 -13 96 -24 54 -62 77 -127 77 -40 0 -52 -5 -76 -31 -16 -17 -35 -52 -42
-77 -8 -26 -56 -260 -108 -519 -51 -260 -96 -473 -99 -473 -3 0 -29 100 -59
223 -196 813 -197 816 -264 858 -47 28 -143 26 -188 -4 -60 -40 -78 -95 -199
-599 -63 -262 -118 -474 -121 -470 -4 4 -48 214 -99 467 -100 504 -118 574
-157 605 -31 24 -105 26 -145 4z"/>
<path d="M3005 3991 c-46 -11 -73 -32 -93 -71 -16 -32 -17 -87 -17 -705 0
-656 0 -671 20 -705 41 -70 48 -71 435 -67 367 4 394 7 495 58 63 31 130 106
168 187 31 64 32 72 32 192 0 115 -2 130 -27 182 -34 72 -98 137 -173 173
l-58 29 24 15 c174 113 227 333 126 524 -57 108 -153 169 -297 186 -94 12
-588 13 -635 2z m536 -241 c81 -16 121 -40 147 -91 50 -94 9 -228 -83 -274
-35 -18 -64 -20 -232 -23 l-193 -4 0 201 0 201 154 0 c84 0 177 -5 207 -10z
m115 -655 c80 -41 108 -91 108 -190 0 -94 -30 -148 -106 -191 l-53 -29 -212
-3 -213 -3 0 226 0 227 208 -4 208 -3 60 -30z"/>
<path d="M1547 2215 c-93 -32 -107 -69 -107 -269 0 -127 -3 -157 -16 -170 -13
-13 -44 -16 -177 -16 -144 0 -166 -2 -195 -20 -54 -33 -74 -75 -70 -148 4 -56
8 -66 39 -98 46 -46 82 -53 254 -54 96 0 145 -4 153 -12 8 -8 12 -59 12 -165
0 -175 8 -205 65 -249 72 -55 191 -29 229 50 13 27 16 67 16 188 0 108 4 159
13 170 10 14 40 17 177 20 131 3 171 7 197 21 76 40 103 136 61 216 -38 72
-64 81 -254 81 -141 0 -163 2 -177 18 -13 14 -16 49 -19 189 l-3 172 -30 31
c-16 18 -37 35 -45 40 -32 16 -86 19 -123 5z"/>
<path d="M2724 2219 c-17 -5 -36 -15 -42 -21 -25 -31 -532 -1091 -532 -1113 0
-88 110 -135 168 -71 11 11 135 259 276 549 261 538 272 568 245 619 -8 16
-69 51 -81 47 -2 0 -17 -5 -34 -10z"/>
<path d="M2876 1760 c-63 -19 -106 -83 -106 -158 0 -54 25 -100 73 -136 28
-21 36 -21 552 -21 513 0 524 0 551 21 54 40 69 70 69 139 0 76 -20 109 -85
143 -44 22 -45 22 -535 21 -269 0 -503 -5 -519 -9z"/>
</g>
</svg>
