<?xml version="1.0" standalone="no"?>
<!DOCTYPE svg PUBLIC "-//W3C//DTD SVG 20010904//EN"
 "http://www.w3.org/TR/2001/REC-SVG-20010904/DTD/svg10.dtd">
<svg version="1.0" xmlns="http://www.w3.org/2000/svg"
 width="24" height="24" viewBox="0 0 500.000000 500.000000"
 preserveAspectRatio="xMidYMid meet">

<g transform="translate(0.000000,500.000000) scale(0.100000,-0.100000)"
fill="currentColor" stroke="none">
<path d="M1868 3618 c-189 -157 -919 -777 -955 -812 -36 -34 -43 -46 -43 -79
0 -41 34 -86 67 -88 10 0 91 -1 180 -2 l163 -2 2 -575 3 -575 28 -47 c18 -31
44 -57 75 -75 l47 -28 509 -3 c335 -2 526 1 560 8 64 13 122 58 147 114 17 38
19 78 19 614 l0 572 164 0 c181 0 219 8 241 51 19 37 19 58 -3 91 -13 21 -598
509 -1005 841 -82 66 -114 65 -199 -5z m445 -932 c39 -17 92 -71 106 -109 7
-17 11 -117 11 -248 0 -238 -3 -252 -58 -312 -47 -50 -97 -57 -396 -57 -168 0
-286 4 -311 11 -52 15 -119 82 -134 134 -14 51 -14 407 -1 457 14 50 55 97
105 119 36 17 71 19 343 19 236 0 310 -3 335 -14z"/>
<path d="M2820 2560 c-45 -45 -55 -35 596 -644 551 -515 619 -576 648 -576 40
0 56 15 56 55 0 27 -58 84 -566 560 -643 602 -668 625 -695 625 -10 0 -28 -9
-39 -20z"/>
<path d="M2816 2211 c-10 -11 -16 -30 -14 -43 2 -15 145 -154 436 -425 458
-426 464 -431 505 -385 25 27 21 58 -10 91 -16 15 -188 176 -383 357 -195 180
-378 349 -407 376 -57 53 -97 62 -127 29z"/>
<path d="M2814 1845 c-9 -13 -13 -33 -9 -44 6 -21 476 -452 503 -462 20 -7 63
7 74 24 24 38 7 57 -239 282 -216 196 -252 225 -280 225 -23 0 -37 -7 -49 -25z"/>
<path d="M2830 1557 c-26 -13 -38 -60 -23 -83 19 -27 176 -144 193 -144 27 0
60 35 60 64 0 18 -20 41 -77 89 -67 55 -113 87 -125 87 -2 0 -14 -6 -28 -13z"/>
</g>
</svg>
