<?xml version="1.0" standalone="no"?>
<!DOCTYPE svg PUBLIC "-//W3C//DTD SVG 20010904//EN"
 "http://www.w3.org/TR/2001/REC-SVG-20010904/DTD/svg10.dtd">
<svg version="1.0" xmlns="http://www.w3.org/2000/svg"
 width="24" height="24" viewBox="0 0 500.000000 500.000000"
 preserveAspectRatio="xMidYMid meet">

<g transform="translate(0.000000,500.000000) scale(0.100000,-0.100000)"
fill="currentColor" stroke="none">
<path d="M1734 3588 c-30 -29 -236 -244 -458 -478 l-403 -425 128 -3 129 -3 0
-654 0 -655 710 0 710 0 0 655 0 654 129 3 129 3 -379 400 c-209 220 -415 435
-458 478 -78 76 -79 77 -131 77 -49 0 -55 -3 -106 -52z m346 -1373 l0 -245
-240 0 -240 0 0 245 0 245 240 0 240 0 0 -245z"/>
<path d="M2737 2523 c-4 -3 -7 -20 -7 -37 0 -28 61 -92 548 -579 l548 -548
144 3 145 3 3 33 c3 31 -24 60 -539 582 l-542 550 -147 0 c-81 0 -150 -3 -153
-7z"/>
<path d="M2680 2137 l0 -142 318 -318 317 -317 138 0 137 0 0 48 0 47 -413
413 -412 412 -43 0 -42 0 0 -143z"/>
<path d="M2680 1623 l0 -147 57 -58 57 -58 138 0 138 0 0 48 0 47 -158 158
c-147 147 -160 157 -195 157 l-37 0 0 -147z"/>
</g>
</svg>
