<?xml version="1.0" standalone="no"?>
<!DOCTYPE svg PUBLIC "-//W3C//DTD SVG 20010904//EN"
 "http://www.w3.org/TR/2001/REC-SVG-20010904/DTD/svg10.dtd">
<svg version="1.0" xmlns="http://www.w3.org/2000/svg"
 width="24" height="24" viewBox="0 0 500.000000 500.000000"
 preserveAspectRatio="xMidYMid meet">

<g transform="translate(0.000000,500.000000) scale(0.100000,-0.100000)"
fill="currentColor" stroke="none">
<path d="M2464 3980 c-53 -21 -54 -27 -54 -402 l0 -348 90 0 90 0 0 346 c0
218 -4 352 -10 365 -11 20 -60 49 -82 48 -7 0 -23 -4 -34 -9z"/>
<path d="M1739 3771 c-18 -18 -29 -40 -29 -57 0 -17 61 -133 165 -313 91 -157
170 -293 175 -301 8 -13 12 -13 32 -1 13 8 47 28 76 44 28 16 52 32 52 36 0
18 -334 587 -354 603 -33 28 -83 23 -117 -11z"/>
<path d="M3141 3783 c-11 -10 -97 -151 -190 -313 l-170 -294 57 -31 c31 -17
67 -37 79 -45 12 -8 24 -12 26 -10 14 18 322 559 333 586 12 29 12 39 0 68 -8
19 -23 39 -34 45 -31 16 -77 13 -101 -6z"/>
<path d="M1229 3261 c-36 -36 -38 -80 -6 -115 12 -14 89 -64 171 -111 l148
-85 179 2 179 3 -290 168 c-202 116 -300 167 -321 167 -20 0 -40 -10 -60 -29z"/>
<path d="M3386 3122 l-289 -167 178 -3 178 -2 156 89 c128 73 159 95 174 124
16 32 17 39 3 70 -16 40 -42 57 -83 57 -18 -1 -135 -63 -317 -168z"/>
<path d="M1368 2816 c-62 -17 -116 -59 -139 -110 -16 -35 -19 -66 -19 -201 0
-212 15 -246 125 -297 l50 -23 1115 0 1115 0 58 28 c40 20 66 42 85 70 26 39
27 46 30 197 5 221 -10 264 -111 318 l-52 27 -1105 2 c-867 1 -1115 -1 -1152
-11z m317 -311 l0 -140 -122 -3 -123 -3 0 146 0 146 123 -3 122 -3 0 -140z
m1873 3 l-3 -143 -127 -3 -128 -3 0 146 0 145 130 0 131 0 -3 -142z"/>
<path d="M1401 1976 c-90 -52 -170 -101 -178 -109 -7 -7 -16 -29 -19 -48 -5
-28 -1 -41 21 -67 48 -57 64 -52 379 129 155 89 290 168 301 175 17 12 -6 14
-160 14 l-180 0 -164 -94z"/>
<path d="M3086 2061 c5 -5 139 -83 298 -175 307 -176 329 -185 378 -146 31 24
40 65 23 105 -10 24 -47 50 -182 128 l-170 97 -179 0 c-102 0 -174 -4 -168 -9z"/>
<path d="M1887 1627 c-93 -160 -171 -306 -174 -323 -8 -46 36 -94 87 -94 22 0
46 7 58 18 21 18 352 584 352 602 0 5 -4 10 -8 10 -5 0 -38 18 -75 40 -36 22
-67 40 -69 40 -2 0 -79 -132 -171 -293z"/>
<path d="M2912 1908 c-8 -10 -108 -67 -129 -74 -8 -2 340 -592 358 -606 30
-25 82 -23 114 5 53 45 46 65 -141 387 -93 161 -174 295 -180 297 -6 2 -16 -2
-22 -9z"/>
<path d="M2410 1428 c1 -371 1 -372 47 -396 37 -20 73 -14 104 17 l29 29 0
351 0 351 -90 0 -90 0 0 -352z"/>
</g>
</svg>
